<?xml version="1.0" standalone="no"?>
<!DOCTYPE svg PUBLIC "-//W3C//DTD SVG 1.1//EN" "http://www.w3.org/Graphics/SVG/1.1/DTD/svg11.dtd" >
<svg>
<metadata>
Created by FontForge 20120731 at Tue Mar  8 15:31:39 2016
 By www
Copyright 1993-1997, Adobe Systems Incorporated. All Rights Reserved.
</metadata>
<defs>
<font id="CaflischScript-Web" horiz-adv-x="744" >
  <font-face 
    font-family="Caflisch Script Web"
    font-weight="400"
    font-style="italic"
    font-stretch="normal"
    units-per-em="2000"
    panose-1="3 8 5 2 4 3 7 7 2 3"
    ascent="1600"
    descent="-400"
    x-height="674"
    cap-height="958"
    bbox="-352 -716 1894 1532"
    underline-thickness="100"
    underline-position="-150"
    slope="-18"
    unicode-range="U+0020-FB02"
  />
<missing-glyph horiz-adv-x="2000" 
d="M250 0v1500h1500v-1500h-1500zM375 125h1250v1250h-1250v-1250z" />
    <glyph glyph-name=".notdef" horiz-adv-x="2000" 
d="M250 0v1500h1500v-1500h-1500zM375 125h1250v1250h-1250v-1250z" />
    <glyph glyph-name=".null" horiz-adv-x="0" 
 />
    <glyph glyph-name="nonmarkingreturn" horiz-adv-x="394" 
 />
    <glyph glyph-name="glyph3" unicode=" " horiz-adv-x="394" 
 />
    <glyph glyph-name="exclam" unicode="!" horiz-adv-x="354" 
d="M256 319q0 46 26 133l74 240q49 154 56 173t22 30t34 11q35 0 57 -41.5t22 -71.5q0 -34 -31 -60.5t-81 -143.5t-78 -196t-45.5 -96t-35.5 -17q-20 0 -20 39zM136 58q0 31 29 62.5t57 31.5q34 0 56 -34.5t22 -67.5q0 -34 -27.5 -59t-62.5 -25q-33 0 -53.5 29t-20.5 63z
" />
    <glyph glyph-name="quotedbl" unicode="&#x22;" horiz-adv-x="438" 
d="M274 665q0 12 16 49q25 52 62 149t46 127q14 50 34 50q23 0 50.5 -21.5t27.5 -41.5q0 -31 -89 -180t-133 -149q-14 0 -14 17zM487 666q0 11 21 63q31 75 52 139l38 118q5 21 30 34.5t50 13.5q38 0 38 -39q0 -36 -61 -156t-98 -156.5t-55 -36.5q-15 0 -15 20z" />
    <glyph glyph-name="numbersign" unicode="#" horiz-adv-x="906" 
d="M588 382h-126q-18 0 -28 -15.5t-29 -65.5t-22 -99q-3 -64 -49.5 -117t-69.5 -53q-11 0 -22 19t-11 39q0 28 32 95l85 177q5 9 5 13q0 7 -15 7l-118 -2q-25 0 -38.5 14t-13.5 30q0 17 17 33.5t65 16.5l130 -6q15 0 20 6.5t39.5 76.5t34.5 74q0 7 -12 7q-57 0 -81 -4
t-43 -4t-36.5 15.5t-17.5 36.5q0 20 17 37t47 17q60 -6 152 -6q12 0 18.5 4.5t23.5 40.5l41 85q38 81 48 100.5t33 19.5q28 0 45.5 -12t17.5 -30q0 -19 -19 -48q-32 -51 -58.5 -101.5t-26.5 -53.5q0 -9 19 -9l118 -2q15 0 27 18t79 166q29 64 76 64q18 0 30.5 -13t12.5 -34
q0 -17 -9 -29q-6 -8 -50 -83.5t-44 -81.5q0 -9 16 -9h112q25 0 40.5 -17.5t15.5 -36.5q0 -16 -26 -31t-50 -15q-4 0 -36 3q-83 7 -110 7q-16 0 -20.5 -4t-39.5 -72.5t-35 -71.5q0 -8 15 -8l132 2q26 0 45 -15t19 -35q0 -14 -22 -29t-54 -15l-170 2q-18 0 -27.5 -13
t-39 -76.5t-39.5 -130.5q-10 -73 -42 -113.5t-58 -40.5q-14 0 -23.5 20t-9.5 45q0 37 123 291q5 10 5 14q0 6 -15 6zM510 468h124q15 0 23 11.5t39.5 75t31.5 68.5q0 7 -14 7l-122 2q-17 0 -25 -9.5t-38 -76.5t-30 -71q0 -7 11 -7z" />
    <glyph glyph-name="dollar" unicode="$" horiz-adv-x="752" 
d="M576 482q0 -8 14 -12q107 -42 142.5 -82t35.5 -94q0 -91 -113 -163.5t-249 -86.5q-15 -2 -20.5 -9.5t-39.5 -97t-36 -107.5q-3 -44 -33.5 -63t-52.5 -19q-26 0 -26 35q0 19 10 41q20 38 55 119t35 85q0 8 -16 8q-103 3 -165.5 31.5t-62.5 70.5q0 21 23 40t43 19
q17 0 30 -11q33 -30 91.5 -46t82.5 -16q14 0 18.5 4.5t59 134.5t54.5 134q0 6 -10 11q-94 51 -126 89.5t-32 78.5q0 72 92 149t234 103q19 2 24 18q65 164 78 196t40 32q18 0 34 -16t16 -41q0 -15 -8 -29q-20 -31 -45.5 -86.5t-25.5 -60.5t13 -5q50 0 103 -16.5t53 -49.5
q0 -16 -24.5 -34t-45.5 -18q-22 0 -46 6q-68 20 -82 20q-16 0 -24 -26t-53 -125.5t-45 -110.5zM587 739q-36 0 -108.5 -42.5t-72.5 -96.5q0 -38 40 -63.5t50 -25.5q6 0 29.5 53.5t45.5 111t22 60.5t-6 3zM440 127q38 0 126 39t88 96q0 45 -51.5 75t-65.5 30q-6 0 -11.5 -9.5
t-49.5 -114t-44 -110.5t8 -6z" />
    <glyph glyph-name="percent" unicode="%" horiz-adv-x="1314" 
d="M304 -46q0 33 46 83l366 404q320 356 390 431.5t100 75.5q28 0 45.5 -17t17.5 -35q0 -26 -29 -42q-93 -57 -397.5 -386.5t-334.5 -365t-30 -82.5q0 -28 -54 -77t-82 -49q-10 0 -24 20t-14 40zM258 588q0 58 63.5 158.5t162.5 133.5q22 8 42 26q28 38 50 38
q70 0 122 -66.5t52 -143.5q0 -129 -123 -207.5t-231 -78.5q-64 0 -101 37t-37 103zM650 720q0 104 -64 104q-74 0 -145 -78t-71 -150q0 -25 18.5 -42.5t47.5 -17.5q73 0 143.5 56.5t70.5 127.5zM826 142q0 100 97.5 213t192.5 113q80 0 148 -40.5t68 -123.5
q0 -44 -59.5 -133t-151.5 -141t-141 -52q-52 0 -103 44t-51 120zM1228 300q0 25 -25 53.5t-49 28.5q-86 0 -156 -88.5t-70 -135.5q0 -33 17.5 -55.5t46.5 -22.5q84 0 160 82t76 138z" />
    <glyph glyph-name="ampersand" unicode="&#x26;" horiz-adv-x="1200" 
d="M460 626q0 121 97.5 211.5t196.5 90.5q30 0 50.5 -16.5t20.5 -34.5q0 -10 -5 -21q-5 -12 -5 -21q0 -10 7 -17q28 -33 28 -82q0 -55 -47.5 -112t-168.5 -134q-14 -9 -14 -18q0 -20 67.5 -127.5t81.5 -107.5q11 0 65 46t80.5 84.5t26.5 60.5q0 15 -11 28q-6 7 -6 16
q0 21 34.5 72.5t59.5 51.5q21 0 45.5 -23t24.5 -53q0 -54 -60 -146t-194 -194q-7 -5 -7 -10q0 -14 62 -59t133 -45q114 0 184 124q8 15 21 15q15 0 15 -19q0 -37 -38 -92.5t-100 -88.5t-130 -33q-122 0 -242 124q-8 10 -16 10q-6 0 -14 -6q-190 -124 -330 -124
q-78 0 -134 58t-56 136q0 64 41 124.5t247 199.5q10 7 10 15q0 4 -2 11q-18 54 -18 106zM748 742q0 76 -52 76q-46 0 -88 -51.5t-42 -112.5q0 -35 7.5 -63t14.5 -28q12 0 86 56t74 123zM302 182q0 -44 37.5 -75t96.5 -31q46 0 135 42t89 58q0 5 -6 14q-77 104 -130 210
q-5 11 -12 11q-16 0 -113 -77t-97 -152z" />
    <glyph glyph-name="quotesingle" unicode="'" horiz-adv-x="236" 
d="M274 665q0 12 16 49q25 52 62 149t46 127q14 50 34 50q23 0 50.5 -21.5t27.5 -41.5q0 -31 -89 -180t-133 -149q-14 0 -14 17z" />
    <glyph glyph-name="parenleft" unicode="(" horiz-adv-x="640" 
d="M408 -358q-36 0 -91.5 54t-96 177.5t-40.5 242.5q0 123 49.5 296.5t182.5 336t229.5 226t138.5 63.5q22 0 41 -16.5t19 -33.5q0 -22 -36 -38q-231 -104 -373.5 -330.5t-142.5 -499.5q0 -212 114 -348q60 -76 60 -94q0 -14 -18.5 -25t-35.5 -11z" />
    <glyph glyph-name="parenright" unicode=")" horiz-adv-x="664" 
d="M397 979q0 21 29 42t49 21q81 0 160.5 -134t79.5 -336t-103 -413.5t-270 -356t-241 -144.5q-18 0 -36.5 13.5t-18.5 31.5q0 17 23 42t42 25q50 0 177.5 107.5t225 290.5t97.5 388q0 168 -54.5 276t-117.5 108q-20 0 -31 12.5t-11 26.5z" />
    <glyph glyph-name="asterisk" unicode="*" horiz-adv-x="696" 
d="M525 775q7 0 9 7l28 122q6 26 22.5 44t31.5 18q16 0 32.5 -12t16.5 -40q0 -20 -9 -38q-47 -101 -47 -124q0 -5 6 -5q4 0 58.5 11t70.5 16q29 18 44 18q16 0 32 -12.5t16 -31.5q0 -14 -16 -28.5t-32 -17.5l-106 -18q-44 -7 -44 -10q0 -7 51 -56q58 -55 70.5 -70.5
t12.5 -31.5q0 -18 -17 -34.5t-35 -16.5q-14 0 -22 15q-25 43 -74.5 96t-55.5 53q-13 0 -22 -41q-4 -18 -17 -58q-18 -55 -25 -84q-7 -32 -28 -32q-13 0 -30 19t-17 45q0 24 29 96q22 57 22 65t-9 8t-60 -12t-86.5 -26.5t-41.5 -14.5q-45 0 -45 48q0 10 14.5 26t30.5 20
l165 26q19 3 19 10q0 10 -58 57.5t-63 50.5q-14 16 -14 34q0 14 15 26t29 12q28 0 138 -122q6 -7 11 -7z" />
    <glyph glyph-name="plus" unicode="+" horiz-adv-x="1104" 
d="M658 454v52q6 201 7.5 212.5t17.5 19.5t29 8q15 0 40 -19t25 -49q0 -11 -3 -26q-16 -64 -16 -200q0 -19 3.5 -25.5t16.5 -6.5h286q28 0 43 -19.5t15 -46.5q0 -32 -58 -32l-290 4q-22 0 -22 -46q0 -196 12 -250q2 -8 2 -15q0 -41 -48 -41q-25 0 -49.5 17t-24.5 41l10 218
v42q0 23 -6 28.5t-24 5.5l-254 -2q-22 0 -39 14.5t-17 29.5q0 29 24.5 43t89.5 14l204 -3q16 0 21 6t5 26z" />
    <glyph glyph-name="comma" unicode="," horiz-adv-x="304" 
d="M135 160q0 22 24.5 47t52.5 25q38 0 61 -30.5t23 -83.5q0 -89 -63.5 -178.5t-158.5 -154.5t-118 -65q-12 0 -12 18q0 16 26 34q82 64 139 149t57 149q0 33 -22 68q-9 9 -9 22z" />
    <glyph glyph-name="glyph16" unicode="-" horiz-adv-x="528" 
d="M548 432q28 0 28 -18q0 -26 -26.5 -53.5t-93.5 -46.5l-164 -46q-96 -27 -102 -27q-24 0 -24 19q0 21 20 48t51 41t163.5 48.5t147.5 34.5z" />
    <glyph glyph-name="period" unicode="." horiz-adv-x="304" 
d="M100 48q0 34 34 73t68 39q30 0 58 -28.5t28 -55.5q0 -34 -41 -66t-83 -32q-22 0 -43 23t-21 47z" />
    <glyph glyph-name="slash" unicode="/" horiz-adv-x="728" 
d="M52 -139q0 40 38 67q59 44 214 278q143 220 403 574q55 74 68 97.5t23 50.5q6 15 25 24.5t37 9.5q50 0 50 -50q0 -33 -32 -72q-187 -232 -397 -533t-239.5 -353.5t-29.5 -85.5q0 -29 -34.5 -52.5t-65.5 -23.5q-60 0 -60 69z" />
    <glyph glyph-name="zero" unicode="0" horiz-adv-x="752" 
d="M642 904q20 0 32 -16q8 -4 38 -4q66 0 110 -66t44 -156q0 -91 -69 -263t-210.5 -298.5t-252.5 -126.5q-74 0 -126 68.5t-52 163.5q0 126 87 303.5t215.5 286t183.5 108.5zM366 74q85 0 189.5 133t147.5 260t43 185q0 65 -21.5 107.5t-62.5 42.5q-20 0 -28 -18
q-15 -34 -52 -38q-92 -11 -196 -185.5t-104 -332.5q0 -75 26.5 -114.5t57.5 -39.5z" />
    <glyph glyph-name="one" unicode="1" horiz-adv-x="648" 
d="M260 668q0 12 32 24q276 89 322 146q8 16 48.5 46t65.5 30q21 0 34.5 -24t13.5 -45q0 -24 -24 -45q-41 -36 -72.5 -109.5t-99.5 -250.5l-81 -211q-13 -34 -13 -64q0 -19 6 -35q16 -45 16 -64q0 -25 -41.5 -65.5t-64.5 -40.5q-19 0 -34.5 19t-15.5 52q0 79 190 609
q7 21 7 32q0 12 -9 12q-12 0 -46 -12q-99 -33 -160 -33q-74 0 -74 29z" />
    <glyph glyph-name="two" unicode="2" horiz-adv-x="752" 
d="M260 674q0 56 145 142t211 86q80 0 130 -47t50 -125q0 -91 -80.5 -187.5t-333.5 -324.5q-76 -72 -76 -92q0 -15 42 -20.5t188 -5.5q61 0 155 17q37 7 47 7q33 0 33 -25q0 -27 -48 -70t-81 -43q-15 0 -36 6q-54 18 -174 18l-240 2q-27 0 -60 -12q-21 -8 -33 -8
q-22 0 -31.5 18.5t-9.5 34.5q0 37 40 57q35 15 175.5 140t248.5 239t131 154t23 79q0 41 -28.5 63.5t-71.5 22.5q-48 0 -113.5 -52.5t-104.5 -109.5q-12 -18 -40 -18q-24 0 -41 18.5t-17 35.5z" />
    <glyph glyph-name="three" unicode="3" horiz-adv-x="752" 
d="M306 764q0 41 35 79t71 41l20 5q75 19 114 19q82 0 156 -48t74 -122q0 -70 -69 -131.5t-143 -96.5q-19 -9 -19 -19q0 -8 13 -13q106 -38 149 -85t43 -109q0 -60 -55.5 -134t-190 -137t-278.5 -63q-39 0 -90.5 32.5t-51.5 69.5q0 25 29.5 43.5t58.5 18.5q56 0 116 -44
q21 -14 34 -14q60 0 141.5 34.5t125 83.5t43.5 86q0 56 -64.5 102t-191.5 46q-29 0 -53.5 14t-24.5 34t21 38t47 18q31 0 103.5 34.5t127.5 84.5t55 85q0 46 -41 74t-107 28q-33 0 -48 -11.5t-30 -40.5q-6 -20 -27 -39t-37 -19q-18 0 -37 19t-19 37z" />
    <glyph glyph-name="four" unicode="4" horiz-adv-x="752" 
d="M430 288q-292 0 -292 102q0 29 55 86.5t226 181t243 160.5q45 21 50 42q6 22 26 41t38 19q27 0 42.5 -36t15.5 -74q0 -31 -22 -40q-28 -20 -94 -196t-66 -183t12 -7q42 0 94 20q19 7 35 7q26 0 45.5 -14t19.5 -31t-24 -46t-45 -29q-11 0 -27 7q-24 9 -36 9
q-33 0 -74 -8.5t-48 -28.5q-2 -6 -9 -23q-35 -83 -35 -106q0 -19 18 -19q21 0 21 -22q0 -23 -43 -78q-10 -15 -18 -44q-7 -30 -37.5 -66t-56.5 -36q-33 0 -33 64q0 87 87 324q3 10 3 15q0 9 -17 9h-54zM286 423q0 -18 40 -33.5t116 -13.5l76 2q17 0 23 16l59 155
q54 138 54 149q0 7 -6 7q-19 0 -190.5 -122t-171.5 -160z" />
    <glyph glyph-name="five" unicode="5" horiz-adv-x="752" 
d="M524 899q13 0 26 -11q43 -32 122 -32q112 0 194 34q38 16 52 16q20 0 20 -18q0 -20 -48 -61t-112.5 -57t-191.5 -16q-35 0 -50.5 -12.5t-51.5 -81.5t-36 -104q0 -25 22.5 -43t83.5 -43q111 -46 142.5 -93.5t31.5 -112.5q0 -79 -72 -166.5t-164.5 -128.5t-157.5 -41
q-52 0 -92 22q-8 5 -24 11q-114 51 -114 123q0 50 54 50q41 0 62.5 -14.5t71.5 -77.5q19 -22 58 -22q88 0 175 71t87 155q0 40 -24 71t-94 60.5t-106 40.5q-45 12 -52.5 36t-7.5 38q0 16 27 86.5t61 141.5q26 57 34 114q3 20 30 42.5t44 22.5z" />
    <glyph glyph-name="six" unicode="6" horiz-adv-x="752" 
d="M164 288q0 127 82.5 281t249.5 259.5t322 105.5q50 0 87 -24.5t37 -53.5q0 -20 -33 -43t-59 -23q-19 0 -34 18q-34 34 -70 34q-65 0 -185.5 -78.5t-193 -203t-72.5 -180.5q0 -10 6 -10q5 0 13 6q92 68 145 91t99 23q93 0 153.5 -64.5t60.5 -137.5q0 -68 -61.5 -151.5
t-144.5 -120t-132 -36.5q-110 0 -190 83t-80 225zM654 280q0 40 -32.5 76t-79.5 36q-68 0 -157 -68t-89 -112q0 -43 44.5 -89.5t105.5 -46.5q60 0 134 65t74 139z" />
    <glyph glyph-name="seven" unicode="7" horiz-adv-x="752" 
d="M890 890h2q33 0 53.5 -17t20.5 -42q0 -89 -445 -572q-132 -143 -154 -173t-22 -59q0 -9 3 -24q2 -12 2 -17q0 -27 -39 -56.5t-73 -29.5q-22 0 -44 23.5t-22 58.5q0 43 46 78q24 18 44 38q19 31 62 78q113 123 245 282.5t178.5 225t46.5 88.5q0 18 -37.5 21t-200.5 3
q-61 0 -82 -28q-16 -22 -46 -22q-45 0 -93.5 27t-48.5 55q0 21 31 45.5t63 24.5q42 0 74 -8q32 -6 108 -6z" />
    <glyph glyph-name="eight" unicode="8" horiz-adv-x="752" 
d="M563 882q0 14 23.5 33t51.5 19q38 0 131 -81t93 -177q0 -90 -234 -244q-15 -10 -15 -19q0 -7 9 -15q92 -79 92 -161q0 -110 -120 -189.5t-240 -79.5q-68 0 -138 61.5t-70 129.5q0 51 49.5 108t184.5 143q12 7 12 15t-12 19q-78 70 -78 150q0 79 76.5 148.5t163.5 109.5
q10 5 15 9t6.5 7t0.5 7zM645 802q-48 0 -138.5 -66t-90.5 -122q0 -36 43.5 -84t71.5 -48q26 0 122.5 67.5t96.5 122.5q0 40 -37 85t-68 45zM268 164q0 -44 39 -76t85 -32q66 0 136 47.5t70 104.5q0 60 -51 110t-65 50q-20 0 -117 -70t-97 -134z" />
    <glyph glyph-name="nine" unicode="9" horiz-adv-x="752" 
d="M676 912q50 0 106 -70t56 -178q0 -241 -149.5 -424t-378.5 -268q-17 -6 -44 -28q-51 -44 -106 -44q-21 0 -42.5 21t-21.5 37q0 31 38.5 59.5t81.5 28.5q93 0 208.5 76t194.5 187t79 183q0 9 -7 9t-21 -11q-56 -45 -132 -79.5t-132 -34.5q-72 0 -118 44t-46 120
q0 110 115 226t255 116q25 0 28 12q3 18 36 18zM434 472q39 0 100 25.5t111.5 69.5t62.5 69t12 78q0 26 -12 43t-22 17q-17 0 -28 8q-18 12 -48 12q-81 0 -161.5 -71t-80.5 -163q0 -38 19.5 -63t46.5 -25z" />
    <glyph glyph-name="colon" unicode=":" horiz-adv-x="304" 
d="M230 460q0 41 29.5 77.5t68.5 36.5q31 0 58.5 -28.5t27.5 -55.5q0 -36 -38.5 -67t-75.5 -31q-25 0 -47.5 20.5t-22.5 47.5zM102 48q0 34 33.5 73t68.5 39q30 0 58 -28.5t28 -55.5q0 -34 -41 -66t-83 -32q-22 0 -43 23t-21 47z" />
    <glyph glyph-name="semicolon" unicode=";" horiz-adv-x="304" 
d="M228 458q0 42 30.5 79t69.5 37q30 0 58 -28.5t28 -55.5q0 -37 -39 -68.5t-77 -31.5q-24 0 -47 20.5t-23 47.5zM137 160q0 22 25 46t52 24q38 0 61 -30t23 -82q0 -87 -60.5 -175.5t-155.5 -155.5t-124 -67q-12 0 -12 16q0 18 26 36q83 64 139.5 148.5t56.5 149.5
q0 33 -22 68q-9 9 -9 22z" />
    <glyph glyph-name="less" unicode="&#x3c;" horiz-adv-x="992" 
d="M839 -6q-11 0 -25 12q-79 66 -224.5 145.5t-247.5 114.5q-15 4 -27.5 19.5t-12.5 28.5q0 37 64 60q49 18 381 213q121 71 146.5 84t44.5 13q32 0 32 -46q0 -50 -54 -74q-107 -48 -237.5 -116.5t-157.5 -87t-27 -28.5q0 -18 60 -48q135 -69 225 -122.5t111.5 -74
t21.5 -37.5q0 -19 -29 -37.5t-44 -18.5z" />
    <glyph glyph-name="equal" unicode="=" horiz-adv-x="1104" 
d="M334 520q0 46 96 46l476 -18q71 0 98 8q9 3 17 3q23 0 40 -20.5t17 -40.5q0 -48 -96 -48l-490 12q-36 0 -60 -4l-39 -6q-21 0 -40 25t-19 43zM418 279q46 0 186 -8.5t226 -8.5q119 0 164 12q10 2 19 2q25 0 48.5 -20.5t23.5 -41.5q0 -48 -129 -48l-524 12q-31 0 -50 -14
q-8 -7 -18 -7q-22 0 -40 28.5t-18 46.5q0 47 112 47z" />
    <glyph glyph-name="greater" unicode="&#x3e;" horiz-adv-x="992" 
d="M416 678q28 0 92 -44q30 -21 157 -95.5t227 -121.5q32 -14 40 -26.5t8 -34.5q0 -28 -52 -73t-302.5 -172t-293.5 -127q-18 0 -37 11t-19 25q0 21 25.5 44t60.5 36q95 34 252 108.5t186.5 96.5t29.5 33t-25 30.5t-163 98t-244 113.5q-34 10 -34 34q0 16 36.5 40t55.5 24z
" />
    <glyph glyph-name="question" unicode="?" horiz-adv-x="536" 
d="M352 836q0 34 68.5 57t123.5 23q67 0 127.5 -38.5t60.5 -93.5q0 -35 -30 -73t-68.5 -67t-237.5 -144q-56 -32 -56 -67q0 -33 24.5 -58t43.5 -25q7 0 38 20q57 36 78 36t39.5 -15t18.5 -31q0 -29 -55 -60t-100 -31q-85 0 -148 50.5t-63 116.5q0 28 32 70.5t64.5 65.5
t237.5 132q66 36 66 74q0 20 -19.5 34t-40.5 14q-14 0 -40 -22q-20 -26 -46 -26q-37 0 -77.5 17t-40.5 41zM398 62q0 -33 -31 -63.5t-61 -30.5q-28 0 -54 30t-26 76q0 33 26.5 60.5t55.5 27.5q34 0 62 -30.5t28 -69.5z" />
    <glyph glyph-name="at" unicode="@" horiz-adv-x="1276" 
d="M852 318q0 15 -4 15q-3 0 -10 -5q-136 -125 -195.5 -157.5t-100.5 -32.5q-19 0 -39.5 21t-20.5 57q0 67 79 191.5t194 211.5t181 87q22 0 38 -32q3 -8 11 -8q6 0 13 4q8 10 14 10q10 0 24 -13.5t14 -25.5q0 -9 -6 -19q-97 -167 -97 -300q0 -92 51 -92q86 0 162 97.5
t76 226.5q0 140 -90 219t-244 79q-130 0 -266 -85.5t-221 -221t-85 -267.5q0 -158 107.5 -252t292.5 -94q71 0 168.5 25.5t133.5 48.5q7 3 13 3q16 0 16 -14q0 -33 -125 -90t-316 -57q-161 0 -285.5 113t-124.5 259q0 192 106 358.5t282.5 265t351.5 98.5q180 0 285 -107.5
t105 -270.5q0 -157 -124.5 -291.5t-269.5 -134.5q-33 0 -63.5 34t-30.5 74v72zM922 575q0 10 -10.5 23.5t-29.5 13.5q-26 0 -98.5 -68.5t-123.5 -154.5t-51 -117q0 -18 13 -18q57 0 178.5 138t121.5 183z" />
    <glyph glyph-name="A" unicode="A" horiz-adv-x="970" 
d="M72 16q0 32 37.5 90.5t178.5 229.5q10 12 10 30q0 21 21 47t45 31q17 3 27.5 13t80.5 100l138 176q127 163 152.5 189t51.5 26q14 0 31.5 -21.5t17.5 -38.5q0 -15 -13 -28q-27 -25 -36 -37.5t-9 -41.5q0 -60 6.5 -175.5t9 -124.5t13.5 -9q199 0 199 -26
q0 -14 -47.5 -29.5t-143.5 -24.5q-17 -2 -17 -13q0 -30 13 -120.5t22.5 -108.5t28.5 -18l35 5q20 0 20 -33q0 -37 -32.5 -73.5t-81.5 -36.5q-55 0 -77.5 93.5t-32.5 282.5q0 12 -24 12q-86 0 -183 -16t-120 -39.5t-81 -101.5t-58 -140l2 -31q0 -35 -54.5 -64.5t-83.5 -29.5
q-19 0 -32.5 17t-13.5 39zM539 463q4 0 9 1q42 6 144 6q14 0 17 3t3 15l-8 178q0 21 -7 21q-10 0 -90 -104.5t-80 -111.5q0 -8 12 -8z" />
    <glyph glyph-name="B" unicode="B" horiz-adv-x="786" 
d="M599 915q0 -9 16 -11q133 -23 213.5 -62t80.5 -110q0 -44 -56.5 -103.5t-229.5 -152.5q-11 -6 -11 -10q0 -3 11 -6q28 -9 90 -41.5t79 -66t17 -68.5q0 -34 -57.5 -105.5t-178 -138t-192.5 -66.5q-23 0 -78 34q-5 4 -10 4q-9 0 -26 -14q-12 -12 -28 -12q-15 0 -29 26
t-14 73q0 42 16 112.5t88.5 274.5t124.5 324q5 12 5 18q0 14 -41 18q-22 2 -22 16q0 23 29.5 42.5t58.5 19.5q15 0 22 18q22 54 56 54q19 0 40 -14t23.5 -20.5t2.5 -32.5zM449 506q103 0 219.5 86t116.5 134q0 31 -79 57.5t-141 26.5q-22 0 -29 -21l-55 -141
q-48 -120 -48 -131t16 -11zM349 76q100 0 218 73t118 125q0 50 -98.5 95t-165.5 45q-18 0 -26.5 -9t-35.5 -85.5t-27 -115.5q0 -13 3 -30q2 -8 2 -50l-9 -39q0 -9 21 -9z" />
    <glyph glyph-name="C" unicode="C" horiz-adv-x="788" 
d="M170 222q0 148 90.5 320.5t238 286t273.5 113.5q46 0 77 -23.5t31 -64.5q0 -42 -35 -69.5t-59 -27.5q-14 0 -14 12q0 4 2 9q8 19 8 30q0 10 -11.5 19t-30.5 9q-73 0 -173.5 -79t-186.5 -238.5t-86 -294.5q0 -140 122 -140q191 0 454 210q14 11 24 11q13 0 13 -15
q0 -58 -189.5 -187t-357.5 -129q-90 0 -140 68t-50 180z" />
    <glyph glyph-name="D" unicode="D" horiz-adv-x="960" 
d="M621 915q0 -9 16 -9q180 -12 293 -101t113 -207q0 -157 -138 -322t-277.5 -229.5t-262.5 -64.5q-39 0 -81 46.5t-42 107.5q0 58 41 186.5t164 465.5q2 7 2 12q0 8 -9 8q-45 0 -127 -44q-5 -3 -10 -3q-11 0 -19.5 14t-8.5 31q0 51 70 73.5t128 22.5q14 0 24 16
q34 60 68 60q16 0 36 -13.5t20 -49.5zM447 72q68 0 189.5 87t205 209.5t83.5 231.5q0 107 -106.5 160.5t-215.5 53.5q-15 0 -22.5 -7.5t-39.5 -82.5t-73.5 -199.5t-69.5 -219.5t-28 -146q0 -48 28 -67.5t49 -19.5z" />
    <glyph glyph-name="E" unicode="E" horiz-adv-x="824" 
d="M584 898h182q88 0 136 -24.5t48 -51.5q0 -15 -27 -15q-12 0 -29 3q-30 4 -144 4q-60 0 -130.5 -7.5t-80 -19t-46 -134t-36.5 -127.5q0 -7 7 -10t49.5 -6.5t130.5 -3.5q52 0 102 6l76 11q12 0 12 -8q0 -22 -67.5 -62.5t-320.5 -40.5q-20 0 -25.5 -9.5t-55.5 -145
t-50 -143.5q0 -10 9.5 -13.5t74 -8t139.5 -4.5q100 0 166.5 9t155.5 43q9 3 15 3q12 0 12 -9q0 -23 -118.5 -83.5t-356.5 -60.5q-294 0 -294 48q0 15 24.5 37.5t38.5 28t29 40.5t50.5 145t35.5 119q0 11 -14 20q-24 17 -24 44q0 13 22 22q44 18 51.5 28.5t39.5 117.5t32 118
q0 12 -15 24q-38 29 -38 43q0 11 24.5 23.5t39.5 17.5q16 4 24.5 16.5t21.5 49.5q9 28 26 28q25 0 54 -46q10 -16 44 -16z" />
    <glyph glyph-name="F" unicode="F" horiz-adv-x="818" 
d="M618 882h176q41 0 50 18q7 16 27 16q29 0 74 -25t45 -51q0 -17 -40.5 -37.5t-77.5 -20.5q-48 12 -64 14.5t-138 2.5q-78 0 -84.5 -5t-27.5 -61l-55 -153q-34 -95 -34 -105q0 -13 15 -13q9 0 159 8t248 7q67 0 67 -17q0 -43 -228 -74l-177 -21q-88 -11 -103.5 -15.5
t-23.5 -14t-31 -61.5l-46 -105q-23 -52 -23 -62q0 -26 84 -26q51 0 80 9q8 2 14 2q12 0 12 -9q0 -22 -69.5 -62.5t-158.5 -40.5q-52 0 -95 16t-43 42q0 21 58 54q16 10 26 31.5t32.5 102.5t22.5 92q0 24 -19 48q-9 12 -9 21q0 16 29 35q47 32 55.5 45t54.5 154t46 162
q0 13 -16 13q-42 0 -80 -32q-15 -12 -25 -12t-17.5 11t-7.5 24q0 27 38 72.5t76 45.5q21 0 40 -11q9 -5 13 -5q5 0 7 7q0 6 6 36t32 30q32 0 59 -23.5t27 -46.5q0 -10 20 -10z" />
    <glyph glyph-name="G" unicode="G" horiz-adv-x="900" 
d="M330 -20q-51 0 -105.5 69.5t-54.5 164.5q0 162 95.5 322.5t264.5 278t316 117.5q44 0 81 -21t37 -48q0 -16 -36.5 -41.5t-72.5 -25.5q-26 0 -49 12q-36 18 -58 18q-57 0 -183.5 -106.5t-197.5 -241t-71 -246.5q0 -73 22.5 -108.5t55.5 -35.5q85 0 241.5 115.5
t164.5 236.5q3 42 57.5 82t84.5 40q23 0 39.5 -16t16.5 -29q0 -11 -16 -25q-64 -55 -102 -208q-21 -93 -58 -225.5t-54.5 -172t-51 -83t-75 -79t-84 -54t-75.5 -18.5q-40 0 -133 33t-93 73q0 21 26 43.5t56 22.5q28 0 88 -42q34 -34 64 -34q44 0 94.5 46t96.5 191.5
t46 162.5q0 11 -6 11q-4 0 -11 -5q-56 -47 -162.5 -110.5t-197.5 -63.5z" />
    <glyph glyph-name="H" unicode="H" horiz-adv-x="1060" 
d="M861 494q23 0 28 16q28 88 82.5 231.5t76 170t49.5 26.5q19 0 34 -19.5t15 -43.5q0 -33 -25 -83q-39 -76 -78.5 -178.5t-39.5 -113.5q0 -6 14 -6q91 0 122 2l53 3q17 0 17 -10q0 -17 -66.5 -41.5t-149.5 -31.5q-22 -2 -25 -8t-24.5 -75.5t-21.5 -83.5q0 -13 13 -13
q21 0 21 -25q0 -30 -62 -133.5t-103 -103.5q-32 0 -32 70q0 12 1.5 24t41.5 155t49 167q3 7 3 11q0 7 -13 7l-408 -8q-18 0 -33 -23t-47.5 -104.5t-32.5 -102.5q0 -12 13 -14q30 -7 30 -40q0 -30 -49.5 -91t-92.5 -61q-35 0 -35 60q0 66 42.5 196t50.5 150q5 11 5 17
q0 9 -11 11q-34 15 -34 36q0 13 25.5 29.5t48.5 24.5q14 5 19 11.5t50 124.5l101 264q21 56 54 56q21 0 43 -21.5t22 -55.5q0 -24 -8 -45l-65 -149q-56 -128 -68 -153q-5 -10 -5 -15q0 -11 19 -11h386z" />
    <glyph glyph-name="I" unicode="I" horiz-adv-x="572" 
d="M641 814q-15 0 -25 -14.5t-85 -186t-127.5 -315.5t-52.5 -181q0 -11 14 -11l146 4q74 0 74 -18q0 -22 -86 -47t-154 -25q-8 0 -25 -14q-27 -22 -49 -22q-14 0 -30 22q-12 14 -30 14q-24 0 -74 -20q-6 -3 -11 -3q-11 0 -24.5 14t-13.5 29q0 26 32.5 49t104.5 23
q13 0 18 18q38 182 228 654q4 9 4 13q0 9 -20 9q-30 0 -62 -4.5t-33 -4.5q-17 0 -26 13.5t-9 26.5q0 30 35.5 45.5t140.5 15.5q25 0 28 10q23 50 62 50q20 0 37.5 -16.5t20.5 -35.5q3 -17 18 -20q28 -3 81 -12.5t56 -15.5t3 -10q0 -14 -26 -24t-46 -10h-94z" />
    <glyph glyph-name="J" unicode="J" horiz-adv-x="456" 
d="M324 842q0 34 82 48q44 4 70 34q18 24 46 24q20 0 46.5 -17.5t26.5 -42.5q0 -22 -23 -50q-21 -25 -46.5 -96.5t-121.5 -431.5q-79 -291 -148 -415t-184.5 -177.5t-155.5 -53.5q-48 0 -99 31t-51 73q0 19 23 32.5t45 13.5q16 0 47 -10.5t47 -19.5q26 -16 52 -16
q29 0 84 40t107 162.5t148.5 460t96.5 352.5q0 9 -12 9q-27 0 -53.5 16t-26.5 34z" />
    <glyph glyph-name="K" unicode="K" horiz-adv-x="986" 
d="M447 504q25 0 260 154t304 234q29 36 70 36q18 0 38 -18t20 -40q0 -44 -44 -68q-28 -14 -70 -46q-70 -54 -325 -212q-90 -55 -113 -70.5t-23 -31.5q0 -9 7 -16q65 -59 166 -167.5t120 -134.5q9 -11 18 -11q11 0 20 15q19 30 40 30q17 0 29.5 -26.5t12.5 -53.5
q0 -34 -45 -72t-71 -38q-29 0 -60 40q-194 258 -338 366q-44 34 -50 44q-4 4 -8 4q-6 0 -10.5 -9t-34 -90t-29.5 -105t12 -32q7 -5 7 -15q0 -15 -17 -43q-14 -21 -60 -104q-30 -54 -66 -54q-31 0 -31 79q0 58 28 149t195 514q23 59 23 106l-2 32q0 29 34 60.5t65 31.5
q25 0 41 -24.5t16 -50.5q0 -31 -21 -67q-29 -52 -75 -167t-46 -121q0 -8 13 -8z" />
    <glyph glyph-name="L" unicode="L" horiz-adv-x="818" 
d="M311 126q0 -10 12.5 -18t92.5 -21t178 -13q144 0 248 60q13 8 21 8q9 0 9 -9q0 -34 -98 -93.5t-250 -59.5q-149 0 -231 16q-24 4 -33 4q-27 0 -54 -18q-10 -6 -21 -6q-27 0 -31 24q-5 21 -22 52q-4 9 -4 20q0 25 19.5 43.5t34.5 18.5q14 0 37.5 49.5t107.5 313t84 282.5
q0 11 -11 11q-20 0 -41 11t-21 25q0 22 44 34q55 17 92 60q21 24 40 24q25 0 51.5 -24t26.5 -47q0 -19 -16 -43q-27 -45 -36 -74q-47 -140 -126 -354.5t-98 -257.5q-5 -11 -5 -18z" />
    <glyph glyph-name="M" unicode="M" horiz-adv-x="1402" 
d="M624 678q0 -86 21 -262t40 -224t43 -48q21 0 76 52t134 151.5t177.5 239t115.5 172t17 49.5q0 58 28 58q25 0 36 22q10 20 28 20q21 0 37 -25t16 -60q0 -24 -9 -47q-30 -67 -68 -258t-38 -368q0 -21 16 -21q7 0 18 3q25 7 43 7q29 0 29 -17q0 -33 -62.5 -88.5
t-105.5 -55.5q-20 0 -49 18.5t-29 39.5q0 11 6 22q7 14 14 60q21 179 41 281l34 179q0 7 -4 7q-5 0 -13 -13q-147 -216 -263.5 -350.5t-169.5 -183t-89 -48.5q-44 0 -81 72t-61 270.5t-24 205.5q-1 15 -5 15q-5 0 -15 -21q-140 -322 -213.5 -446t-112.5 -124q-32 0 -65 46
t-33 74q0 55 56 55l24 -2q30 0 54 32t140.5 260t116.5 270q0 15 -11 31q-20 28 -20 58q0 26 84 66q23 10 34 30q31 54 54 54q24 0 42.5 -21t18.5 -50q0 -17 -7 -33q-46 -100 -46 -154z" />
    <glyph glyph-name="N" unicode="N" horiz-adv-x="1008" 
d="M412 847q0 17 19 43t49 26q27 0 44.5 -22.5t17.5 -50.5q0 -23 -13 -42t-13 -31q0 -29 138.5 -276.5t149.5 -247.5q6 0 12 20q68 214 147.5 415.5t110 234t58.5 32.5q29 0 46.5 -45t17.5 -78q0 -25 -36 -31q-30 -4 -48 -25t-82.5 -187.5t-99 -286t-34.5 -167.5
q0 -29 22 -62q5 -8 5 -19q0 -21 -19 -42t-44 -21q-46 0 -78 61l-260 465q-44 80 -47.5 83.5t-6.5 3.5q-9 0 -23 -35l-73 -171q-58 -136 -66 -219q-7 -102 -17 -120.5t-33.5 -55t-57.5 -36.5q-26 0 -43 20t-17 54q0 30 22 78l225 565q3 8 3 15q0 12 -12 22q-17 17 -17 32
q0 32 39 66q14 14 14 35z" />
    <glyph glyph-name="O" unicode="O" horiz-adv-x="910" 
d="M174 240q0 102 60.5 239t157 240t182.5 141t112 38q10 0 30 20q26 26 60 26q86 0 160 -64t74 -210q0 -160 -105.5 -334.5t-244 -264t-252.5 -89.5q-85 0 -159.5 63t-74.5 195zM756 756q-23 0 -30 22q-9 28 -44 28q-48 0 -138.5 -86.5t-166 -230.5t-75.5 -263
q0 -69 30.5 -110.5t85.5 -41.5q69 0 183.5 77t212.5 253.5t98 323.5q0 50 -29.5 83.5t-47.5 32.5q-8 0 -8 -7l2 -20q0 -26 -25.5 -43.5t-47.5 -17.5z" />
    <glyph glyph-name="P" unicode="P" horiz-adv-x="790" 
d="M542 972q26 0 64 -50q10 -12 30 -12q72 0 181 -57t109 -175q0 -61 -67.5 -143.5t-193.5 -140.5t-167 -58q-13 0 -26.5 6.5t-13.5 15.5q0 23 24 44t94 56q132 69 182 121t50 101q0 67 -61.5 103.5t-128.5 36.5q-25 0 -37 -15t-125 -334.5t-113 -353.5q0 -18 27.5 -26.5
t141.5 -14.5q25 -2 25 -15q0 -20 -53.5 -40.5t-127.5 -20.5q-41 0 -56 -12q-26 -22 -56 -22q-42 0 -72 27.5t-30 50.5q0 27 58 46q17 6 24 17.5t55 156.5l109 330q61 186 61 195q0 5 -4 5q-3 0 -11 -4q-99 -58 -112 -58q-18 0 -32 10.5t-14 23.5q0 28 59 63.5t125 60.5
q19 8 24 20q28 62 58 62z" />
    <glyph glyph-name="Q" unicode="Q" horiz-adv-x="882" 
d="M176 236q0 107 52 232.5t134 226t199 172t187 71.5q35 0 48 -16q4 -6 30 -6q60 0 113 -72.5t53 -147.5q0 -79 -32.5 -176.5t-87.5 -189.5t-98 -138t-119.5 -103.5t-110.5 -74.5q-25 -13 -25 -28q0 -24 69.5 -133.5t172.5 -184t209 -74.5q101 0 214.5 57.5t171.5 122.5
q12 13 20 13t8 -13q0 -51 -140 -156.5t-306 -105.5q-197 0 -363 169.5t-189 272.5q-6 20 -24 22q-65 7 -125.5 81.5t-60.5 178.5zM725 812q-147 0 -287 -212t-140 -382q0 -69 31 -109.5t61 -40.5q10 0 18 4q16 7 32 7l24 -2q61 0 161.5 100t170.5 258t70 283q0 60 -20 88.5
t-44 28.5q-8 0 -14 -11q-6 -14 -36 -14q-14 2 -27 2z" />
    <glyph glyph-name="R" unicode="R" horiz-adv-x="988" 
d="M567 980q25 0 47.5 -14.5t22.5 -47.5q0 -8 14 -8q98 0 174 -53.5t76 -148.5q0 -146 -280 -270q-21 -9 -21 -20q0 -14 105 -164t150.5 -189t99.5 -39q21 0 50.5 12.5t47.5 29.5q8 7 13 7q7 0 7 -9q0 -31 -54.5 -73.5t-117.5 -42.5q-74 0 -146 66.5t-196 243.5
q-62 88 -77 103t-37 15q-13 0 -21 -14t-50 -134.5t-42 -132.5q0 -11 21 -15q105 -23 105 -41q0 -12 -33.5 -28t-107.5 -19q-14 0 -38 -8q-18 -14 -44 -14q-34 0 -69.5 25t-35.5 51q0 31 71 44q21 3 29.5 37t44.5 130t36 112l-7 45q0 36 29 48q22 7 29.5 38t58.5 162t51 147
q0 7 -8 7q-65 0 -97 -44q-25 -37 -52 -37q-18 0 -37.5 21.5t-19.5 40.5q0 75 225 105q25 2 34 26q20 50 50 50zM479 476q25 0 108 35t141.5 89.5t58.5 93.5q0 57 -50 93.5t-112 36.5q-18 0 -29.5 -18t-67.5 -162t-56 -158q0 -10 7 -10z" />
    <glyph glyph-name="S" unicode="S" horiz-adv-x="592" 
d="M328 578q0 84 68.5 166.5t190 140t177.5 57.5q58 0 58 -53q0 -26 -25.5 -53.5t-64.5 -27.5l-79 3q-77 0 -140 -54.5t-63 -134.5q0 -72 46 -198q48 -131 48 -216q0 -61 -40 -116t-119.5 -82.5t-158.5 -27.5q-164 0 -164 72q0 31 23.5 49t45.5 18q15 0 27 -9
q68 -44 124 -44q57 0 99.5 38t42.5 100q0 68 -52 200q-44 111 -44 172z" />
    <glyph glyph-name="T" unicode="T" horiz-adv-x="1066" 
d="M751 881q17 0 23 13q20 40 44 40q22 0 54 -42q9 -13 20.5 -17t82.5 -7.5t135 -3.5q31 0 56.5 29t37.5 29q26 0 50 -29t24 -63q0 -28 -23.5 -51t-52.5 -23q-11 0 -52 18q-30 13 -44 15h-83l-131 3q-14 0 -22 -9t-65 -165l-190 -509q0 -7 15 -7q57 0 115.5 -12t58.5 -25
q0 -22 -72.5 -38.5t-153.5 -16.5q-21 0 -38 -10q-69 -46 -96 -46q-21 0 -41.5 18t-20.5 38q0 57 98 84q19 5 34.5 34t115.5 339.5t100 311.5q0 5 -7.5 8t-74.5 6t-182 3q-107 0 -130 -86q-4 -15 -15 -15q-15 0 -24 32t-9 53q0 116 202 116q67 0 143 -6z" />
    <glyph glyph-name="U" unicode="U" horiz-adv-x="1068" 
d="M372 146q93 0 328.5 248.5t283.5 367.5q44 111 62.5 136.5t45.5 25.5q18 0 41.5 -29t23.5 -49q0 -23 -21 -56q-95 -159 -144 -354.5t-49 -261.5q0 -16 9 -16q8 0 24 10q46 29 98 48.5t69 19.5q14 0 14 -10q0 -13 -21 -26q-55 -36 -132 -108.5t-102 -105.5
q-17 -20 -32 -20q-71 0 -71 75q0 47 40 201l63 242q0 6 -5 6q-6 0 -17 -12q-418 -478 -598 -478q-80 0 -80 68q0 63 41 220t155 444q18 46 18 89l-3 36q0 16 12.5 28t50.5 35.5t58 23.5q15 0 28 -16t13 -39q0 -22 -11 -45q-89 -190 -155.5 -379t-66.5 -263q0 -56 30 -56z
" />
    <glyph glyph-name="V" unicode="V" horiz-adv-x="992" 
d="M317 767q0 33 30 101t60 68q28 0 50.5 -30.5t22.5 -61.5q0 -21 -9 -46q-26 -74 -43 -182t-17 -195q0 -103 10 -151t19 -48t21 16q51 71 345 314q176 146 205 183t49 134q11 51 22 65t33 14q29 0 54.5 -27.5t25.5 -68.5q0 -57 -79.5 -142t-384.5 -352q-242 -214 -264 -340
q-3 -19 -24 -35.5t-38 -16.5q-49 0 -76 141t-27 288q0 116 11 190l19 120q0 11 -7 30q-8 20 -8 32z" />
    <glyph glyph-name="W" unicode="W" horiz-adv-x="1380" 
d="M328 830q0 30 40.5 64t71.5 34q43 0 43 -67q0 -30 -11 -67q-32 -112 -47 -250t-15 -228q0 -77 13 -77q7 0 17 13q46 57 254 279q68 72 105 114.5t49 114.5q8 59 33.5 98.5t58.5 39.5q25 0 61.5 -27t36.5 -53q0 -19 -16 -32q-33 -26 -49.5 -50t-28.5 -72t-12 -142
q0 -303 24 -303q8 0 28 23q73 86 280 301q112 117 143 160t31 71q0 32 -22 62q-8 12 -8 24q0 25 36.5 56.5t65.5 31.5t47.5 -26t18.5 -57q0 -66 -62.5 -157.5t-248.5 -302.5q-172 -192 -220.5 -261.5t-60.5 -119.5q-9 -44 -50 -44q-63 0 -85.5 149.5t-22.5 282.5l-4 82
q0 21 -8 21q-15 0 -86 -76.5t-162 -184t-113 -138t-29 -70.5q-6 -30 -25 -46t-35 -16q-17 0 -36.5 18.5t-22.5 35.5t-3 96q0 318 26 530q7 50 7 87q0 31 -5 61q-2 10 -2 18z" />
    <glyph glyph-name="X" unicode="X" horiz-adv-x="1014" 
d="M337 869q0 19 34.5 46t62.5 27q43 0 70.5 -37t155.5 -285q5 -9 11 -9q21 0 325 289q33 30 60 30q32 0 61.5 -21t29.5 -48q0 -24 -49 -43q-37 -15 -119.5 -77.5t-167 -134t-89 -78.5t-4.5 -15q0 -9 36 -82l82 -164q46 -92 59 -111.5t23 -19.5q5 0 10 4q14 10 27 10
q17 0 33 -19.5t16 -40.5q0 -29 -43.5 -66.5t-84.5 -37.5q-14 0 -33 16.5t-57 99.5q-105 228 -133 280t-36 52t-58 -43l-140 -122q-90 -79 -108 -98.5t-18 -35.5q0 -7 3 -15q3 -9 3 -17q0 -25 -35.5 -57t-81 -58t-74.5 -26q-19 0 -34.5 15.5t-15.5 36.5q0 16 19 41.5
t124 126.5t287 266q62 56 74 68t12 22q0 12 -67 131t-145 174q-25 18 -25 26z" />
    <glyph glyph-name="Y" unicode="Y" horiz-adv-x="862" 
d="M981 948q32 0 60 -29.5t28 -62.5q0 -47 -74 -102q-88 -63 -198.5 -153.5t-158 -141t-68.5 -92.5t-39.5 -134t-18.5 -109q0 -16 19 -20q140 -24 140 -54q0 -28 -102 -32q-116 -5 -144 -36q-16 -16 -40 -16q-27 0 -55 16t-28 40q0 36 53 62q28 14 34 33l31 122
q25 103 25 155q0 32 -9.5 68.5t-54.5 164.5q-45 130 -57 168t-12 63q0 44 33 70t78 26q26 0 26 -30l-4 -46q0 -75 38 -219t56 -144q5 0 16 9q35 32 180 138q99 72 131.5 98.5t51 59t21.5 82.5q2 20 14 33t28 13z" />
    <glyph glyph-name="Z" unicode="Z" horiz-adv-x="1082" 
d="M243 690q0 80 65.5 155t155.5 75q92 0 182 -16q226 -42 290 -42q39 0 60 24q48 52 62 52q42 0 42 -66q0 -37 -19 -70.5t-37 -33.5q-19 0 -48 -36q-259 -289 -564 -560q-17 -14 -17 -24q0 -8 11 -10q66 -10 218 -52q154 -42 236 -42q112 0 124 96q2 24 22 40.5t38 16.5
q25 0 45.5 -25.5t20.5 -45.5q0 -51 -107 -113.5t-213 -62.5q-77 0 -300 56q-177 44 -201 44q-42 0 -75 -48q-11 -16 -32 -16q-13 0 -31.5 20.5t-18.5 46.5q0 33 34 62t54 31q46 6 345 301t299 320q0 4 -3.5 6t-53 6t-172 20.5t-193.5 16.5q-48 0 -89 -19t-89 -87
q-27 -38 -32 -38q-9 0 -9 18z" />
    <glyph glyph-name="bracketleft" unicode="[" horiz-adv-x="608" 
d="M80 -270q0 19 10 51q5 16 6 25q5 56 51 203q85 275 112 367q89 308 111 372l62 184q19 42 38.5 61t42 25t57.5 6q160 0 199 -10t39 -36q0 -13 -16.5 -17t-86.5 -10q-116 -10 -139 -22t-45.5 -49.5t-65.5 -178.5l-201 -661q-49 -162 -49 -204q0 -27 11 -45t48 -25
q12 -2 34 -8q20 -5 28 -6q49 -5 81 -19t32 -29q0 -14 -12 -19t-45 -5q-60 6 -146 6l-122 -4q-34 0 -34 48z" />
    <glyph glyph-name="backslash" unicode="\" horiz-adv-x="702" 
d="M268 877q0 40 25 62.5t54 22.5q44 0 44 -74q0 -38 3 -62t26 -104l163 -574q42 -141 84 -246q20 -47 20 -70q0 -16 -17 -27t-43 -11q-47 0 -65.5 39t-66.5 224q-135 524 -218 773q-9 25 -9 47z" />
    <glyph glyph-name="bracketright" unicode="]" horiz-adv-x="630" 
d="M384 962q0 12 19.5 21.5t131 23t155.5 13.5q42 0 60 -21t18 -41q0 -65 -78 -284q-121 -328 -198 -593q-51 -176 -59 -262v-66q0 -30 -15 -41q-27 -21 -42 -36q-26 -26 -74 -26q-44 0 -123.5 15t-92 22t-12.5 17q0 30 46 30q140 0 169 8t33 40q18 135 89 363.5t207 614.5
q29 85 29 122t-33 48.5t-180 11.5q-50 3 -50 20z" />
    <glyph glyph-name="asciicircum" unicode="^" horiz-adv-x="776" 
d="M202 422q0 22 22 51l127 163q152 196 172 227t24 45t16.5 25t21.5 11q18 0 39 -21.5t21 -56.5q0 -40 52 -174.5t108 -215.5q28 -42 28 -54q0 -18 -22 -38t-40 -20q-22 0 -61.5 62t-126.5 274q-17 44 -24 44q-13 0 -141 -173q-108 -146 -132 -172.5t-41 -26.5
q-11 0 -27 16.5t-16 33.5z" />
    <glyph glyph-name="underscore" unicode="_" horiz-adv-x="1000" 
d="M1000 -150v-100h-1000v100h1000z" />
    <glyph glyph-name="grave" unicode="`" 
d="M378 1003q0 25 20 44t40 19q37 0 58.5 -52t64.5 -129t43 -94q0 -16 -16 -16q-28 0 -119 94t-91 134z" />
    <glyph glyph-name="a" unicode="a" horiz-adv-x="772" 
d="M68 82q0 83 89 245.5t204 269.5t189 107q26 0 56 -40q2 -8 11 -8q5 0 9 4q10 9 20 9q11 0 27.5 -13.5t16.5 -28.5q0 -9 -6 -23q-98 -216 -98 -362q0 -152 60 -152q48 0 137 85t189 219q12 15 22 15q16 0 16 -22q0 -38 -69 -138t-172 -183.5t-165 -83.5q-38 0 -81 46.5
t-43 213.5q0 12 -4 12t-12 -10q-39 -50 -144.5 -156t-167.5 -106q-23 0 -53.5 27t-30.5 73zM542 530q0 22 -11.5 42t-34.5 20q-37 0 -113 -85t-131 -201t-55 -159q0 -35 27 -35q33 0 116.5 91t142.5 187.5t59 139.5z" />
    <glyph glyph-name="b" unicode="b" horiz-adv-x="680" 
d="M310 508q5 0 19 14q86 86 172.5 136t147.5 50q42 0 69 -41.5t27 -82.5q0 -94 -68 -213t-169.5 -215.5t-183 -135t-131.5 -38.5q-27 0 -52.5 24t-25.5 44q0 31 -14 48q-9 9 -9 28q0 26 50 202t99 302l82 211q40 105 54.5 134.5t23 67t8.5 65.5q0 33 42.5 62.5t67.5 29.5
q32 0 32 -46q0 -19 -7 -44t-119 -290q-118 -287 -118 -308q0 -4 3 -4zM589 600q-51 0 -151 -77.5t-164.5 -184.5t-64.5 -194q0 -50 40 -50q46 0 139 69.5t170 199t77 183.5t-46 54z" />
    <glyph glyph-name="c" unicode="c" horiz-adv-x="628" 
d="M116 176q0 107 65.5 236.5t178.5 210.5t194 81q42 0 67 -23t25 -53q0 -39 -33.5 -70.5t-58.5 -31.5q-30 0 -30 31l3 21q0 26 -29 26q-62 0 -159 -128t-97 -276q0 -57 26.5 -88.5t69.5 -31.5q96 0 236 87t244 199q14 14 24 14q14 0 14 -22q0 -47 -115 -152.5t-238 -164.5
t-215 -59q-78 0 -125 49.5t-47 144.5z" />
    <glyph glyph-name="d" unicode="d" horiz-adv-x="852" 
d="M80 88q0 100 80.5 253.5t196.5 243t215 89.5q37 0 68 -14q9 -4 13 -4t6.5 4t37.5 90l74 185q80 202 95.5 233.5t33.5 31.5q22 0 40 -24.5t18 -47.5q0 -21 -43 -119q-164 -373 -203.5 -558.5t-39.5 -265.5q0 -89 46 -89q53 0 158.5 105t181.5 211q15 19 28 19q15 0 15 -17
q0 -44 -83 -156.5t-183.5 -191t-174.5 -78.5q-43 0 -67 39t-24 102q0 47 9 104l15 89q0 5 -3 5q-4 0 -12 -11q-53 -73 -142 -164t-170 -133.5t-112 -42.5q-74 0 -74 112zM607 536q0 20 -18 35t-53 15q-83 0 -209.5 -173.5t-126.5 -266.5q0 -42 30 -42q37 0 110 60t170 189.5
t97 182.5z" />
    <glyph glyph-name="e" unicode="e" horiz-adv-x="634" 
d="M276 -20q-62 0 -107 50t-45 130q0 79 56 210t147.5 235.5t144.5 104.5q42 0 46 -36q0 -18 24 -18q37 -2 60.5 -29t23.5 -71q0 -106 -89.5 -194t-206.5 -88q-26 0 -48 18q-5 4 -8 4q-9 0 -21.5 -44.5t-12.5 -73.5q0 -92 88 -92q97 0 229 78.5t275 231.5q12 13 22 13
q16 0 16 -21q0 -48 -124.5 -168t-249.5 -180t-220 -60zM302 379q0 -11 26 -11q73 0 131.5 51t58.5 105q0 33 -16 52.5t-38 19.5q-41 0 -101.5 -97.5t-60.5 -119.5z" />
    <glyph glyph-name="f" unicode="f" horiz-adv-x="370" 
d="M118 566q0 18 25.5 36t78.5 18q12 0 20 22q98 288 252 411t240 123q70 0 70 -43q0 -23 -26 -48t-50 -25q-90 0 -179.5 -86t-139 -203t-49.5 -136q0 -8 9 -8q13 0 110.5 12.5t214.5 46.5q11 3 19 3q14 0 14 -10q0 -29 -112 -72.5t-271 -76.5q-20 -5 -26 -30l-128 -477
q-68 -253 -142.5 -417.5t-157 -243t-160.5 -78.5q-46 0 -46 32q0 22 31.5 62.5t60.5 49.5q67 22 118 85.5t101.5 196.5t129 455.5t78.5 345.5q0 13 -15 13q-33 0 -51.5 13.5t-18.5 28.5z" />
    <glyph glyph-name="g" unicode="g" horiz-adv-x="670" 
d="M84 102q0 123 106.5 281.5t242 241.5t201.5 83q55 0 85.5 -35t30.5 -75q0 -56 -62 -98q-12 -9 -12 -15q0 -2 2 -7q4 -6 4 -18q0 -13 -53 -264.5t-84 -352.5t-87.5 -203.5t-125.5 -175t-156 -112.5t-142 -40q-58 0 -78 6q-37 10 -66 10q-35 0 -69.5 22t-34.5 48
q0 25 33.5 52.5t62.5 27.5q26 0 64 -38q47 -42 110 -42q113 0 236 152.5t179 409t56 311.5q0 7 -3 7q-4 0 -22 -18l-119 -123q-59 -60 -126.5 -105.5t-98.5 -45.5q-32 0 -53 34.5t-21 81.5zM588 594q-69 0 -164.5 -71t-150.5 -180.5t-55 -174.5q0 -42 20 -42
q25 0 121.5 85.5t183.5 215.5q42 62 75 71q16 0 30 16t14 32q0 21 -21 34.5t-53 13.5z" />
    <glyph glyph-name="h" unicode="h" horiz-adv-x="856" 
d="M283 322q6 0 15 12q56 63 178 173t177.5 147.5t106.5 37.5q44 0 44 -34q0 -14 -8 -32q-55 -125 -103 -273.5t-48 -208.5q0 -52 31 -52q65 0 203 122.5t203 211.5q12 17 23 17q15 0 15 -22q0 -43 -88.5 -151.5t-222 -206t-199.5 -97.5q-68 0 -68 125q0 147 84 399
q4 13 4 22q0 12 -8 12q-33 0 -212 -182t-196 -290q-4 -32 -25 -52t-49 -20q-34 0 -34 79q0 49 46 220.5t106.5 359.5t122 326t90.5 181.5t44.5 56.5t26.5 13q19 0 40.5 -25t21.5 -44q0 -16 -14 -35q-121 -171 -217 -458.5t-96 -321.5q0 -10 6 -10z" />
    <glyph glyph-name="i" unicode="i" horiz-adv-x="468" 
d="M413 1012q0 78 60 78q62 0 62 -46q0 -7 -2 -14q-12 -50 -12 -148q0 -26 -19 -26q-22 0 -55.5 31.5t-33.5 124.5zM747 442q0 -50 -124.5 -188t-235 -208t-170.5 -70q-37 0 -69 45t-32 92q0 26 9 53q83 248 83 269q0 8 -3 17q-3 12 -3 22q0 41 74 135.5t111 94.5
q11 0 26 -16.5t15 -40.5q0 -19 -11 -37q-66 -111 -127 -268t-61 -207q0 -45 38 -45q68 0 198.5 108.5t243.5 249.5q13 16 23 16q15 0 15 -22z" />
    <glyph glyph-name="j" unicode="j" horiz-adv-x="396" 
d="M396 1033q0 21 20.5 38t37.5 17q42 0 65 -42t23 -88q0 -37 -24 -61.5t-39 -24.5q-10 0 -16 8.5t-36.5 76t-30.5 76.5zM142 502q0 49 61.5 95.5t142.5 72.5q18 4 32 22q13 16 38 16q54 0 54 -73q0 -23 -21 -88l-121 -387q-100 -333 -126 -413t-68.5 -157.5t-89.5 -124.5
t-80 -61t-56 -14q-49 0 -109.5 53.5t-60.5 96.5q0 18 14.5 33t33.5 15q31 0 69.5 -32t46.5 -58q6 -20 24 -20q19 0 56.5 44t85 164.5t155 491.5t107.5 379q0 10 -8 10q-17 0 -56.5 -27t-59.5 -62q-16 -28 -34 -28q-12 0 -21 15t-9 37z" />
    <glyph glyph-name="k" unicode="k" horiz-adv-x="786" 
d="M286 352q5 0 27 22q328 330 450 330q28 0 45 -16.5t17 -30.5q0 -17 -19 -37t-61 -24q-72 -4 -186.5 -95t-114.5 -129q0 -42 85.5 -171t139.5 -129q108 0 282 240q10 15 22 15q16 0 16 -22q0 -32 -67.5 -127t-149 -150.5t-141.5 -55.5q-28 0 -62.5 21.5t-59.5 53
t-85 125.5q-39 60 -56 84t-35 24q-22 0 -60.5 -51t-55.5 -159q-4 -33 -31.5 -56.5t-52.5 -23.5q-35 0 -35 56q0 50 78.5 324t172 501.5t131.5 276t65 48.5q32 0 47 -20t15 -35q0 -14 -12 -31q-103 -140 -207.5 -429.5t-104.5 -322.5q0 -6 3 -6z" />
    <glyph glyph-name="l" unicode="l" horiz-adv-x="472" 
d="M198 -18q-33 0 -53.5 35.5t-20.5 90.5q0 53 42 208.5t143.5 399t154 348t66.5 114.5t26 10q23 0 37.5 -23.5t14.5 -45.5q0 -27 -26 -77q-140 -261 -241 -536t-101 -358q0 -52 32 -52q47 0 189.5 111.5t214.5 198.5q12 14 22 14q14 0 14 -21q0 -61 -198.5 -239
t-315.5 -178z" />
    <glyph glyph-name="m" unicode="m" horiz-adv-x="1256" 
d="M737 706h2q18 0 33 -19t15 -49q0 -23 -10 -48l-87 -242q-38 -106 -38 -121q0 -16 12 -16q11 0 33 25q360 400 390 426t50 26q21 0 39.5 -24.5t18.5 -51.5q0 -26 -39.5 -55.5t-80 -169.5t-40.5 -224q0 -85 62 -85q117 0 368 324q13 14 22 14q14 0 14 -19
q0 -38 -102 -168.5t-191 -190.5t-153 -60q-55 0 -90.5 48t-35.5 132q0 96 44 246q2 8 2 12q0 7 -4 7q-6 0 -22 -17q-268 -307 -323.5 -359.5t-80.5 -52.5q-32 0 -32 70q0 95 92 358q7 22 7 33q0 16 -11 16q-21 0 -91.5 -81t-247.5 -302q-51 -63 -69.5 -80.5t-35.5 -17.5
q-19 0 -34 27t-15 74q0 43 20.5 121.5t78.5 271.5q3 11 3 16q0 8 -7 8q-14 0 -14 20q0 24 40 108t68 84q20 0 44.5 -29t24.5 -57q0 -20 -11 -40q-30 -58 -74 -210.5t-44 -164.5q0 -18 9 -18t32 29q161 198 267 308.5t141.5 139t50.5 28.5z" />
    <glyph glyph-name="n" unicode="n" horiz-adv-x="852" 
d="M108 61q0 48 52 238.5t87 284.5t61 123t53 29q26 0 47 -29.5t21 -54.5q0 -16 -18 -20q-30 -6 -55.5 -60t-55.5 -150.5t-30 -111.5q0 -10 6 -10t15 12q58 78 184 197.5t192 148.5q22 11 36 36q17 30 38 30q16 0 36.5 -20.5t20.5 -41.5q0 -28 -36 -86q-49 -79 -95 -216
t-46 -205q0 -99 68 -99q109 0 380 344q10 14 19 14q13 0 13 -18q0 -50 -160.5 -244t-297.5 -194q-56 0 -89.5 48.5t-33.5 133.5q0 98 73 318q10 29 10 42q0 11 -6 11q-25 0 -155.5 -138.5t-228.5 -308.5q-34 -58 -60 -58q-15 0 -30 17t-15 38z" />
    <glyph glyph-name="o" unicode="o" horiz-adv-x="622" 
d="M214 -22q-38 0 -74 41.5t-36 92.5q0 64 34 165t150 259q24 30 24 62q0 28 23 51t55 23q29 0 46 22q23 32 62 32q54 0 54 -52q0 -24 10 -30q98 -64 98 -208q0 -65 -53 -175t-171 -196.5t-222 -86.5zM478 580q-52 0 -152 -161t-100 -271q0 -31 14.5 -49.5t37.5 -18.5
q92 0 184 137t92 231q0 132 -76 132z" />
    <glyph glyph-name="p" unicode="p" horiz-adv-x="740" 
d="M301 444q6 0 15 10q126 135 214 185.5t118 50.5q37 0 60.5 -49t23.5 -87q0 -72 -30.5 -151.5t-69.5 -134.5q-6 -8 -6 -13t6 -5q26 0 160.5 86.5t213.5 165.5q12 12 20 12q12 0 12 -18q0 -64 -166.5 -191.5t-305.5 -180.5q-23 -8 -106 -58q-26 -16 -107.5 -52.5
t-123.5 -36.5q-21 0 -34 14.5t-19 14.5q-4 0 -9 -10t-44 -120l-77 -220q-38 -111 -38 -123q0 -22 25.5 -27.5t138.5 -5.5q42 0 42 -14q0 -25 -118 -60.5t-162 -35.5q-24 0 -38 15.5t-14 36.5q0 20 10 48q36 89 136 404t198 702q28 105 68 132.5t64 27.5q15 0 37.5 -16
t22.5 -30q0 -11 -14 -22q-47 -39 -78 -130.5t-31 -105.5q0 -8 6 -8zM620 510q0 54 -46 54q-40 0 -154 -104.5t-165 -210t-51 -137.5q0 -22 30 -22q33 0 115 31.5t125.5 80t94.5 147.5t51 161z" />
    <glyph glyph-name="q" unicode="q" horiz-adv-x="684" 
d="M72 129q0 109 97.5 247.5t251.5 233t272 94.5q34 0 52.5 -20.5t18.5 -42.5q0 -30 -19 -49q-15 -23 -20 -80q-5 -45 -29.5 -146t-92.5 -301t-108 -305q-13 -36 -13 -56q0 -19 21 -38q14 -11 14 -26q0 -17 -20 -42q-26 -35 -66.5 -111t-65.5 -137q-19 -44 -46 -44
q-31 0 -31 61q0 32 12.5 82t126.5 385q143 418 143 458q0 12 -5 12q-11 0 -48 -42q-247 -280 -372 -280q-28 0 -50.5 42t-22.5 105zM587 588q-66 0 -162.5 -79t-169 -189t-72.5 -160t28 -50q62 0 237.5 191t175.5 259q0 28 -37 28z" />
    <glyph glyph-name="r" unicode="r" horiz-adv-x="564" 
d="M288 330q6 0 18 18q246 360 362 360q29 0 46 -16.5t17 -41.5q0 -31 -24 -67.5t-47 -36.5q-9 0 -16 6q-22 18 -46 18q-44 0 -159 -152.5t-223 -389.5q-20 -42 -48 -42q-19 0 -39.5 18t-20.5 41q0 17 10 43q46 116 100 444q9 58 18.5 78t39.5 48t48 28q19 0 32.5 -21.5
t13.5 -42.5q0 -26 -20 -56q-22 -34 -44.5 -118t-22.5 -108q0 -10 5 -10z" />
    <glyph glyph-name="s" unicode="s" horiz-adv-x="472" 
d="M194 416q0 61 56 136t129 111.5t131 36.5q55 0 81.5 -19.5t26.5 -40.5q0 -38 -64 -38q-86 0 -167 -55t-81 -113q0 -51 50 -120q74 -99 74 -170q0 -78 -100 -134t-154 -56q-31 0 -57.5 17t-26.5 35q0 26 39 57t59 31q7 0 24 -6q22 -10 43 -10q30 0 47.5 14.5t17.5 29.5
q0 39 -38 98q-90 132 -90 196z" />
    <glyph glyph-name="t" unicode="t" horiz-adv-x="534" 
d="M243 155q0 -63 58 -63q94 0 258 112q10 7 18 7q12 0 12 -16q0 -39 -145.5 -126t-226.5 -87q-39 0 -75.5 30t-36.5 76q0 31 37 138l89 262q4 9 4 14q0 6 -10 6q-7 0 -61 -6q-35 -4 -40 -4q-19 0 -32.5 10t-13.5 25q0 16 16.5 33t50.5 24q109 17 118.5 20.5t16 15.5
t47.5 123q33 92 45.5 124t38 53.5t46.5 21.5q19 0 31.5 -18.5t12.5 -36.5t-10 -39q-35 -67 -65.5 -142t-30.5 -84q0 -8 22 -8l170 9q94 5 164 5q23 0 23 -14q0 -9 -14 -22t-131.5 -33.5t-249.5 -38.5q-21 -2 -28.5 -10t-57.5 -157t-50 -204z" />
    <glyph glyph-name="u" unicode="u" horiz-adv-x="884" 
d="M683 150q0 -48 31 -48q48 0 165.5 98.5t244.5 237.5q10 12 19 12q15 0 15 -23q0 -50 -139.5 -192t-233 -197.5t-145.5 -55.5q-65 0 -65 108q0 55 19 132l32 123q0 9 -6 9t-16 -12q-74 -101 -217.5 -227.5t-214.5 -126.5q-23 0 -42.5 33.5t-19.5 80.5q0 81 79.5 281
t112 248.5t58.5 48.5q27 0 51.5 -18.5t24.5 -41.5q0 -12 -32.5 -67.5t-51.5 -73.5q-24 -22 -29 -34l-46 -117q-41 -106 -41 -149t30 -43q57 0 191 150t261 360q39 64 68 64q18 0 35.5 -20t17.5 -42t-33 -84q-47 -99 -85 -232.5t-38 -181.5z" />
    <glyph glyph-name="v" unicode="v" horiz-adv-x="716" 
d="M587 610q0 29 30 61.5t56 32.5q29 0 48.5 -33.5t19.5 -66.5q0 -58 142 -58q54 0 106 9.5t72 22.5q8 5 14 5q9 0 9 -11q0 -24 -72.5 -64t-178.5 -40q-43 0 -64 4l-34 6q-12 0 -20 -18q-80 -170 -238 -323t-280 -153q-27 0 -51 31.5t-24 87.5q0 107 85 331q5 14 5 25t-5 19
q-11 6 -11 20q0 44 44.5 118t88.5 74q21 0 34.5 -34.5t13.5 -79.5q0 -33 -34 -98q-46 -83 -75.5 -180t-29.5 -141q0 -53 31 -53q52 0 146 91.5t152.5 188t58.5 121.5q0 10 -9 21q-30 34 -30 84z" />
    <glyph glyph-name="w" unicode="w" horiz-adv-x="1072" 
d="M937 628q0 31 24 54.5t56 23.5q31 0 55.5 -32.5t30.5 -61.5q14 -51 139 -51q118 0 189 35q9 4 16 4q9 0 9 -8q0 -27 -76.5 -68t-186.5 -41q-32 0 -54 3l-34 6q-9 0 -14 -16q-70 -192 -220.5 -346t-233.5 -154q-32 0 -55 44t-23 117q0 99 24 175q3 9 3 14q0 9 -6 9
q-9 0 -93 -85.5t-178 -187.5q-71 -80 -130 -80q-27 0 -46 34.5t-19 87.5q0 57 21 121.5t92 234.5t84.5 190t40 35t49.5 15q21 0 34.5 -18.5t13.5 -43.5q0 -48 -30 -76q-47 -47 -61 -66.5t-49.5 -96t-54 -137t-18.5 -91.5t18 -31q22 0 54 34l131 142q98 108 164.5 177
t81.5 123q6 23 31.5 43t43.5 20t33.5 -18t15.5 -36q0 -20 -12 -39q-55 -86 -93 -208t-38 -198q0 -66 33 -66q37 0 105 66.5t129 182.5t61 154q0 14 -9 23q-48 44 -48 88z" />
    <glyph glyph-name="x" unicode="x" horiz-adv-x="888" 
d="M885 104q0 -57 -44.5 -87.5t-75.5 -30.5q-69 0 -164.5 72t-155.5 160q-10 13 -15 13q-9 0 -65 -49.5t-63 -60t-7 -55.5q0 -22 -22.5 -40.5t-57.5 -21.5q-16 -2 -44 -20q-101 -67 -120 -67q-13 0 -23 12.5t-10 23.5q0 15 12 34.5t120 116.5t223 194q10 9 10 18q0 6 -6 20
q-33 69 -73 178.5t-40 143.5q0 27 24 46.5t55 19.5q48 0 54 -56q5 -82 37.5 -176.5t43.5 -94.5q6 0 17 11l113 104q92 83 130 104.5t61 21.5q18 0 34 -25t16 -42q0 -27 -28 -37q-70 -23 -185 -117t-115 -111t53 -84.5t113 -107.5t92 -40q46 0 46 54q0 29 -6 53.5t-6 27.5
q0 12 9 12q20 0 41.5 -41t21.5 -76z" />
    <glyph glyph-name="y" unicode="y" horiz-adv-x="576" 
d="M154 168l14 333l-9 72q0 36 37 86.5t53 50.5q39 0 39 -126q0 -43 -16 -197q-16 -150 -16 -178q0 -79 37 -79q21 0 56 35.5t85.5 110.5t82.5 135t35 74t3 43q-2 9 -2 18q0 22 34.5 86t44.5 76t31 12q15 0 32.5 -26t17.5 -52q0 -73 -102 -256.5t-180 -279.5
q-176 -217 -281.5 -356.5t-115 -155t-9.5 -19.5t6 -5q32 -10 32 -32q0 -23 -43.5 -55.5t-98.5 -58.5q-41 -19 -62 -52q-46 -72 -86 -72q-45 0 -45 38t51.5 107.5t91.5 84.5q23 10 32 28q10 22 50.5 82.5t83.5 113.5l163 213q30 39 46 59l9 12q1 2 0 3l-1 1l-7 -2
q-24 -8 -42 -8q-51 0 -51 136z" />
    <glyph glyph-name="z" unicode="z" horiz-adv-x="820" 
d="M415 206q0 -21 96 -72.5t163 -51.5q165 0 286 194q10 15 20 15q12 0 12 -15q0 -25 -53 -106t-128.5 -132.5t-158.5 -51.5q-46 0 -103.5 18.5t-210.5 107.5q-11 6 -19 6q-11 0 -27 -16q-88 -88 -106.5 -101.5t-32.5 -13.5q-17 0 -25 14t-8 23q0 40 82 130q10 10 10 40
q0 35 19.5 59.5t40.5 24.5q19 0 40 -18q5 -4 10 -4q7 0 43 39l196 209q40 42 40 48q0 5 -6 7t-107.5 10.5t-109.5 8.5q-57 0 -57 -72q0 -31 15 -68q3 -7 3 -13q0 -10 -11 -10q-24 0 -63.5 52t-39.5 86t46 76.5t91 42.5q24 0 172 -18q70 -10 126 -10q33 0 52 14q24 16 44 16
q27 0 58.5 -19.5t31.5 -46.5q0 -15 -11.5 -37.5t-30.5 -22.5l-36 2q-41 0 -115 -79l-156 -163q-82 -85 -82 -102z" />
    <glyph glyph-name="braceleft" unicode="{" horiz-adv-x="624" 
d="M171 356q0 25 31.5 45.5t62.5 20.5q67 0 96.5 51t35.5 185q9 194 124 287t210 93q24 0 43 -15.5t19 -25.5q0 -19 -23 -48t-48 -29q-9 0 -17 4q-24 12 -54 12q-32 0 -69 -38.5t-44.5 -73.5t-36.5 -240q-25 -184 -130 -210q-22 -7 -22 -13q0 -3 4 -7q57 -65 57 -132
q0 -89 -105 -246q-94 -148 -94 -196q0 -29 18 -48.5t46 -19.5q15 0 57 10q39 10 53 10q22 0 37 -10.5t15 -23.5q0 -25 -84.5 -45.5t-143.5 -20.5q-50 0 -78.5 33t-28.5 82q0 87 104 258q63 103 77.5 146.5t14.5 77.5q0 27 -12.5 51t-29.5 34t-47 10q-15 0 -26.5 10t-11.5 22
z" />
    <glyph glyph-name="bar" unicode="|" horiz-adv-x="364" 
d="M252 1500h98v-2000h-98v2000z" />
    <glyph glyph-name="braceright" unicode="}" horiz-adv-x="636" 
d="M378 945q0 29 72.5 60t137.5 31q49 0 88.5 -36t39.5 -85q0 -69 -120 -267q-77 -128 -77 -214q0 -76 57 -76q4 0 20 2q19 2 24 2q20 0 35 -19t15 -41q0 -32 -44 -32q-88 0 -131 -38t-55 -96t-16 -156q-4 -104 -65.5 -192t-151 -127t-143.5 -39q-27 0 -47.5 17.5
t-20.5 36.5t23 41.5t47 22.5q9 0 30 -8q27 -10 42 -10q61 0 114.5 75t57.5 185q8 163 38.5 214t101.5 86q22 12 22 18q0 5 -8 10q-20 13 -42 53t-22 72q0 68 136 309q64 114 64 148q0 62 -72 62q-52 0 -116 -24q-7 -2 -13 -2q-21 0 -21 17z" />
    <glyph glyph-name="asciitilde" unicode="~" horiz-adv-x="944" 
d="M270 304q0 53 61 133.5t158 80.5q79 0 174 -84q85 -72 138 -72q36 0 65 32.5t41 87.5q10 44 45 44q19 0 32 -21t13 -45q0 -57 -62.5 -132.5t-149.5 -75.5q-83 0 -188 92q-75 62 -124 62q-37 0 -71 -37.5t-45 -86.5q-12 -34 -39 -34q-18 0 -33 15t-15 41z" />
    <glyph glyph-name="Adieresis" unicode="&#xc4;" horiz-adv-x="970" 
d="M72 16q0 32 37.5 90.5t178.5 229.5q10 12 10 30q0 21 21 47t45 31q17 3 27.5 13t80.5 100l138 176q127 163 152.5 189t51.5 26q14 0 31.5 -21.5t17.5 -38.5q0 -15 -13 -28q-27 -25 -36 -37.5t-9 -41.5q0 -60 6.5 -175.5t9 -124.5t13.5 -9q199 0 199 -26
q0 -14 -47.5 -29.5t-143.5 -24.5q-17 -2 -17 -13q0 -30 13 -120.5t22.5 -108.5t28.5 -18l35 5q20 0 20 -33q0 -37 -32.5 -73.5t-81.5 -36.5q-55 0 -77.5 93.5t-32.5 282.5q0 12 -24 12q-86 0 -183 -16t-120 -39.5t-81 -101.5t-58 -140l2 -31q0 -35 -54.5 -64.5t-83.5 -29.5
q-19 0 -32.5 17t-13.5 39zM539 463q4 0 9 1q42 6 144 6q14 0 17 3t3 15l-8 178q0 21 -7 21q-10 0 -90 -104.5t-80 -111.5q0 -8 12 -8zM632 1114q0 74 84 74q70 0 70 -70q0 -28 -29 -57t-55 -29q-25 0 -47.5 26t-22.5 56zM870 1096q0 33 26 61.5t62 28.5q25 0 49.5 -24.5
t24.5 -49.5q0 -32 -33 -56t-69 -24q-20 0 -40 19t-20 45z" />
    <glyph glyph-name="Aring" unicode="&#xc5;" horiz-adv-x="970" 
d="M72 16q0 32 37.5 90.5t178.5 229.5q10 12 10 30q0 21 21 47t45 31q17 3 27.5 13t80.5 100l138 176q127 163 152.5 189t51.5 26q14 0 31.5 -21.5t17.5 -38.5q0 -15 -13 -28q-27 -25 -36 -37.5t-9 -41.5q0 -60 6.5 -175.5t9 -124.5t13.5 -9q199 0 199 -26
q0 -14 -47.5 -29.5t-143.5 -24.5q-17 -2 -17 -13q0 -30 13 -120.5t22.5 -108.5t28.5 -18l35 5q20 0 20 -33q0 -37 -32.5 -73.5t-81.5 -36.5q-55 0 -77.5 93.5t-32.5 282.5q0 12 -24 12q-86 0 -183 -16t-120 -39.5t-81 -101.5t-58 -140l2 -31q0 -35 -54.5 -64.5t-83.5 -29.5
q-19 0 -32.5 17t-13.5 39zM539 463q4 0 9 1q42 6 144 6q14 0 17 3t3 15l-8 178q0 21 -7 21q-10 0 -90 -104.5t-80 -111.5q0 -8 12 -8zM687 1168q0 59 55 113.5t113 54.5q70 0 109 -37t39 -105q0 -59 -65 -112.5t-125 -53.5q-48 0 -87 45t-39 95zM927 1188q0 32 -23 51
t-59 19q-25 0 -51.5 -21.5t-26.5 -52.5t18 -54.5t48 -23.5q37 0 65.5 26t28.5 56z" />
    <glyph glyph-name="Ccedilla" unicode="&#xc7;" horiz-adv-x="788" 
d="M386 -24q-106 -13 -161 58.5t-55 187.5q0 148 90.5 320.5t238 286t273.5 113.5q46 0 77 -23.5t31 -64.5q0 -42 -35 -69.5t-59 -27.5q-14 0 -14 12q0 4 2 9q8 19 8 30q0 10 -11.5 19t-30.5 9q-73 0 -174 -80t-186.5 -239.5t-85.5 -292.5q0 -142 122 -142q196 0 502 258
q14 12 24 12q12 0 12 -14q0 -39 -153.5 -171t-326.5 -177q-56 -75 -56 -96q0 -14 58 -72q30 -30 30 -74q0 -47 -52 -95.5t-166 -48.5l-11 2l-38 -5q-20 0 -40.5 17t-20.5 38q0 23 32 48.5t54 25.5q25 0 44 -34q8 -14 34 -14q18 0 41 12t23 28q0 25 -44 64q-46 39 -46 64
q0 48 70 126z" />
    <glyph glyph-name="Eacute" unicode="&#xc9;" horiz-adv-x="824" 
d="M584 898h182q88 0 136 -24.5t48 -51.5q0 -15 -27 -15q-12 0 -29 3q-30 4 -144 4q-60 0 -130.5 -7.5t-80 -19t-46 -134t-36.5 -127.5q0 -7 7 -10t49.5 -6.5t130.5 -3.5q52 0 102 6l76 11q12 0 12 -8q0 -22 -67.5 -62.5t-320.5 -40.5q-20 0 -25.5 -9.5t-55.5 -145
t-50 -143.5q0 -10 9.5 -13.5t74 -8t139.5 -4.5q100 0 166.5 9t155.5 43q9 3 15 3q12 0 12 -9q0 -23 -118.5 -83.5t-356.5 -60.5q-294 0 -294 48q0 15 24.5 37.5t38.5 28t29 40.5t50.5 145t35.5 119q0 11 -14 20q-24 17 -24 44q0 13 22 22q44 18 51.5 28.5t39.5 117.5t32 118
q0 12 -15 24q-38 29 -38 43q0 11 24.5 23.5t39.5 17.5q16 4 24.5 16.5t21.5 49.5q9 28 26 28q25 0 54 -46q10 -16 44 -16zM671 1012q-22 0 -22 12q0 20 24 44q90 85 146 154q34 40 60 40q27 0 49 -18.5t22 -40.5q0 -40 -119 -115.5t-160 -75.5z" />
    <glyph glyph-name="Ntilde" unicode="&#xd1;" horiz-adv-x="1008" 
d="M412 847q0 17 19 43t49 26q27 0 44.5 -22.5t17.5 -50.5q0 -23 -13 -42t-13 -31q0 -29 138.5 -276.5t149.5 -247.5q6 0 12 20q68 214 147.5 415.5t110 234t58.5 32.5q29 0 46.5 -45t17.5 -78q0 -25 -36 -31q-30 -4 -48 -25t-82.5 -187.5t-99 -286t-34.5 -167.5
q0 -29 22 -62q5 -8 5 -19q0 -21 -19 -42t-44 -21q-46 0 -78 61l-260 465q-44 80 -47.5 83.5t-6.5 3.5q-9 0 -23 -35l-73 -171q-58 -136 -66 -219q-7 -102 -17 -120.5t-33.5 -55t-57.5 -36.5q-26 0 -43 20t-17 54q0 30 22 78l225 565q3 8 3 15q0 12 -12 22q-17 17 -17 32
q0 32 39 66q14 14 14 35zM595 1025q0 47 45 100t90 53q36 0 88 -56q49 -52 68 -52q27 0 48 76q9 30 34 30q37 0 37 -51q0 -56 -41.5 -104.5t-85.5 -48.5q-27 0 -48 14.5t-56 49.5q-45 42 -56 42q-16 0 -30.5 -25.5t-21.5 -56.5q-4 -22 -28 -22q-43 0 -43 51z" />
    <glyph glyph-name="Odieresis" unicode="&#xd6;" horiz-adv-x="910" 
d="M174 240q0 102 60.5 239t157 240t182.5 141t112 38q10 0 30 20q26 26 60 26q86 0 160 -64t74 -210q0 -160 -105.5 -334.5t-244 -264t-252.5 -89.5q-85 0 -159.5 63t-74.5 195zM756 756q-23 0 -30 22q-9 28 -44 28q-48 0 -138.5 -86.5t-166 -230.5t-75.5 -263
q0 -69 30.5 -110.5t85.5 -41.5q69 0 183.5 77t212.5 253.5t98 323.5q0 50 -29.5 83.5t-47.5 32.5q-8 0 -8 -7l2 -20q0 -26 -25.5 -43.5t-47.5 -17.5zM632 1132q0 74 84 74q70 0 70 -70q0 -28 -29 -57t-55 -29q-25 0 -47.5 26t-22.5 56zM870 1114q0 33 26 61.5t62 28.5
q25 0 49.5 -24.5t24.5 -49.5q0 -32 -33 -56t-69 -24q-20 0 -40 19t-20 45z" />
    <glyph glyph-name="Udieresis" unicode="&#xdc;" horiz-adv-x="1068" 
d="M372 146q93 0 328.5 248.5t283.5 367.5q44 111 62.5 136.5t45.5 25.5q18 0 41.5 -29t23.5 -49q0 -23 -21 -56q-95 -159 -144 -354.5t-49 -261.5q0 -16 9 -16q8 0 24 10q46 29 98 48.5t69 19.5q14 0 14 -10q0 -13 -21 -26q-55 -36 -132 -108.5t-102 -105.5
q-17 -20 -32 -20q-71 0 -71 75q0 47 40 201l63 242q0 6 -5 6q-6 0 -17 -12q-418 -478 -598 -478q-80 0 -80 68q0 63 41 220t155 444q18 46 18 89l-3 36q0 16 12.5 28t50.5 35.5t58 23.5q15 0 28 -16t13 -39q0 -22 -11 -45q-89 -190 -155.5 -379t-66.5 -263q0 -56 30 -56z
M642 1124q0 74 84 74q70 0 70 -70q0 -28 -29 -57t-55 -29q-25 0 -47.5 26t-22.5 56zM880 1106q0 33 26 61.5t62 28.5q25 0 49.5 -24.5t24.5 -49.5q0 -32 -33 -56t-69 -24q-20 0 -40 19t-20 45z" />
    <glyph glyph-name="aacute" unicode="&#xe1;" horiz-adv-x="772" 
d="M68 82q0 83 89 245.5t204 269.5t189 107q26 0 56 -40q2 -8 11 -8q5 0 9 4q10 9 20 9q11 0 27.5 -13.5t16.5 -28.5q0 -9 -6 -23q-98 -216 -98 -362q0 -152 60 -152q48 0 137 85t189 219q12 15 22 15q16 0 16 -22q0 -38 -69 -138t-172 -183.5t-165 -83.5q-38 0 -81 46.5
t-43 213.5q0 12 -4 12t-12 -10q-39 -50 -144.5 -156t-167.5 -106q-23 0 -53.5 27t-30.5 73zM542 530q0 22 -11.5 42t-34.5 20q-37 0 -113 -85t-131 -201t-55 -159q0 -35 27 -35q33 0 116.5 91t142.5 187.5t59 139.5zM494 770q-18 0 -18 12q0 18 20 36q84 76 190 208
q31 40 60 40q24 0 45.5 -17.5t21.5 -35.5q0 -12 -11.5 -29t-82 -75t-117.5 -88t-72 -40.5t-36 -10.5z" />
    <glyph glyph-name="agrave" unicode="&#xe0;" horiz-adv-x="772" 
d="M68 82q0 83 89 245.5t204 269.5t189 107q26 0 56 -40q2 -8 11 -8q5 0 9 4q10 9 20 9q11 0 27.5 -13.5t16.5 -28.5q0 -9 -6 -23q-98 -216 -98 -362q0 -152 60 -152q48 0 137 85t189 219q12 15 22 15q16 0 16 -22q0 -38 -69 -138t-172 -183.5t-165 -83.5q-38 0 -81 46.5
t-43 213.5q0 12 -4 12t-12 -10q-39 -50 -144.5 -156t-167.5 -106q-23 0 -53.5 27t-30.5 73zM542 530q0 22 -11.5 42t-34.5 20q-37 0 -113 -85t-131 -201t-55 -159q0 -35 27 -35q33 0 116.5 91t142.5 187.5t59 139.5zM351 1003q0 25 20 44t40 19q37 0 58.5 -52t64.5 -129
t43 -94q0 -16 -16 -16q-28 0 -119 94t-91 134z" />
    <glyph glyph-name="acircumflex" unicode="&#xe2;" horiz-adv-x="772" 
d="M68 82q0 83 89 245.5t204 269.5t189 107q26 0 56 -40q2 -8 11 -8q5 0 9 4q10 9 20 9q11 0 27.5 -13.5t16.5 -28.5q0 -9 -6 -23q-98 -216 -98 -362q0 -152 60 -152q48 0 137 85t189 219q12 15 22 15q16 0 16 -22q0 -38 -69 -138t-172 -183.5t-165 -83.5q-38 0 -81 46.5
t-43 213.5q0 12 -4 12t-12 -10q-39 -50 -144.5 -156t-167.5 -106q-23 0 -53.5 27t-30.5 73zM542 530q0 22 -11.5 42t-34.5 20q-37 0 -113 -85t-131 -201t-55 -159q0 -35 27 -35q33 0 116.5 91t142.5 187.5t59 139.5zM344 800q0 16 20 34q138 133 182 200q18 26 48 26
q26 0 34 -38q8 -37 32.5 -96.5t39.5 -77.5q10 -12 10 -26q0 -38 -50 -38q-18 0 -33 16t-51 112q-4 11 -10 11t-16 -13q-60 -73 -99.5 -104.5t-72.5 -31.5q-8 0 -21 6t-13 20z" />
    <glyph glyph-name="adieresis" unicode="&#xe4;" horiz-adv-x="772" 
d="M68 82q0 83 89 245.5t204 269.5t189 107q26 0 56 -40q2 -8 11 -8q5 0 9 4q10 9 20 9q11 0 27.5 -13.5t16.5 -28.5q0 -9 -6 -23q-98 -216 -98 -362q0 -152 60 -152q48 0 137 85t189 219q12 15 22 15q16 0 16 -22q0 -38 -69 -138t-172 -183.5t-165 -83.5q-38 0 -81 46.5
t-43 213.5q0 12 -4 12t-12 -10q-39 -50 -144.5 -156t-167.5 -106q-23 0 -53.5 27t-30.5 73zM542 530q0 22 -11.5 42t-34.5 20q-37 0 -113 -85t-131 -201t-55 -159q0 -35 27 -35q33 0 116.5 91t142.5 187.5t59 139.5zM366 889q0 36 23.5 56t60.5 20q70 0 70 -72
q0 -28 -29 -57t-55 -29q-25 0 -47.5 26t-22.5 56zM604 871q0 33 26 60.5t62 27.5q25 0 49.5 -23t24.5 -47q0 -32 -33 -57t-69 -25q-20 0 -40 19t-20 45z" />
    <glyph glyph-name="atilde" unicode="&#xe3;" horiz-adv-x="772" 
d="M68 82q0 83 89 245.5t204 269.5t189 107q26 0 56 -40q2 -8 11 -8q5 0 9 4q10 9 20 9q11 0 27.5 -13.5t16.5 -28.5q0 -9 -6 -23q-98 -216 -98 -362q0 -152 60 -152q48 0 137 85t189 219q12 15 22 15q16 0 16 -22q0 -38 -69 -138t-172 -183.5t-165 -83.5q-38 0 -81 46.5
t-43 213.5q0 12 -4 12t-12 -10q-39 -50 -144.5 -156t-167.5 -106q-23 0 -53.5 27t-30.5 73zM542 530q0 22 -11.5 42t-34.5 20q-37 0 -113 -85t-131 -201t-55 -159q0 -35 27 -35q33 0 116.5 91t142.5 187.5t59 139.5zM357 848q0 45 44 98.5t90 53.5q36 0 88 -56
q47 -54 66 -54q30 0 50 78q9 30 34 30q37 0 37 -51q0 -58 -42 -106.5t-87 -48.5q-18 0 -37.5 9.5t-64.5 54.5q-45 42 -56 42q-33 0 -52 -82q-6 -22 -32 -22q-38 0 -38 54z" />
    <glyph glyph-name="aring" unicode="&#xe5;" horiz-adv-x="772" 
d="M68 82q0 83 89 245.5t204 269.5t189 107q26 0 56 -40q2 -8 11 -8q5 0 9 4q10 9 20 9q11 0 27.5 -13.5t16.5 -28.5q0 -9 -6 -23q-98 -216 -98 -362q0 -152 60 -152q48 0 137 85t189 219q12 15 22 15q16 0 16 -22q0 -38 -69 -138t-172 -183.5t-165 -83.5q-38 0 -81 46.5
t-43 213.5q0 12 -4 12t-12 -10q-39 -50 -144.5 -156t-167.5 -106q-23 0 -53.5 27t-30.5 73zM542 530q0 22 -11.5 42t-34.5 20q-37 0 -113 -85t-131 -201t-55 -159q0 -35 27 -35q33 0 116.5 91t142.5 187.5t59 139.5zM421 924q0 59 55 113.5t113 54.5q70 0 109 -37t39 -105
q0 -58 -65 -112t-125 -54q-48 0 -87 45t-39 95zM661 944q0 32 -23 51t-59 19q-25 0 -51.5 -21.5t-26.5 -52.5t18 -54.5t48 -23.5q37 0 65.5 26t28.5 56z" />
    <glyph glyph-name="ccedilla" unicode="&#xe7;" horiz-adv-x="628" 
d="M294 -18q-67 -4 -122.5 40.5t-55.5 153.5q0 107 65.5 236.5t178.5 210.5t194 81q39 0 63.5 -23t24.5 -51q0 -38 -35.5 -69t-57.5 -31q-25 0 -25 28l3 21q0 25 -29 25q-62 0 -159 -128t-97 -276q0 -57 26.5 -88.5t69.5 -31.5q93 0 224 84t242 202q12 14 25 14t13 -17
q0 -51 -156.5 -189.5t-307.5 -179.5q0 -2 -13 -20q-43 -59 -43 -78q0 -25 56 -70q30 -25 30 -76q0 -42 -43 -84t-82 -48.5t-99 -6.5l-41 -6q-21 0 -41 17.5t-20 37.5q0 23 32 48.5t54 25.5q23 0 42 -34q8 -14 34 -14q18 0 41 12.5t23 31.5q0 22 -50 62q-38 31 -38 58
q0 53 74 132z" />
    <glyph glyph-name="eacute" unicode="&#xe9;" horiz-adv-x="634" 
d="M276 -20q-62 0 -107 50t-45 130q0 79 56 210t147.5 235.5t144.5 104.5q42 0 46 -36q0 -18 24 -18q37 -2 60.5 -29t23.5 -71q0 -106 -89.5 -194t-206.5 -88q-26 0 -48 18q-5 4 -8 4q-9 0 -21.5 -44.5t-12.5 -73.5q0 -92 88 -92q97 0 229 78.5t275 231.5q12 13 22 13
q16 0 16 -21q0 -48 -124.5 -168t-249.5 -180t-220 -60zM302 379q0 -11 26 -11q73 0 131.5 51t58.5 105q0 33 -16 52.5t-38 19.5q-41 0 -101.5 -97.5t-60.5 -119.5zM408 766q-18 0 -18 12q0 18 20 36q84 76 190 208q31 40 60 40q24 0 45.5 -17.5t21.5 -35.5q0 -12 -11.5 -29
t-82 -75t-117.5 -88t-72 -40.5t-36 -10.5z" />
    <glyph glyph-name="egrave" unicode="&#xe8;" horiz-adv-x="634" 
d="M276 -20q-62 0 -107 50t-45 130q0 79 56 210t147.5 235.5t144.5 104.5q42 0 46 -36q0 -18 24 -18q37 -2 60.5 -29t23.5 -71q0 -106 -89.5 -194t-206.5 -88q-26 0 -48 18q-5 4 -8 4q-9 0 -21.5 -44.5t-12.5 -73.5q0 -92 88 -92q97 0 229 78.5t275 231.5q12 13 22 13
q16 0 16 -21q0 -48 -124.5 -168t-249.5 -180t-220 -60zM302 379q0 -11 26 -11q73 0 131.5 51t58.5 105q0 33 -16 52.5t-38 19.5q-41 0 -101.5 -97.5t-60.5 -119.5zM303 1005q0 25 20 44t40 19q37 0 58.5 -52t64.5 -129t43 -94q0 -16 -16 -16q-28 0 -119 94t-91 134z" />
    <glyph glyph-name="ecircumflex" unicode="&#xea;" horiz-adv-x="634" 
d="M276 -20q-62 0 -107 50t-45 130q0 79 56 210t147.5 235.5t144.5 104.5q42 0 46 -36q0 -18 24 -18q37 -2 60.5 -29t23.5 -71q0 -106 -89.5 -194t-206.5 -88q-26 0 -48 18q-5 4 -8 4q-9 0 -21.5 -44.5t-12.5 -73.5q0 -92 88 -92q97 0 229 78.5t275 231.5q12 13 22 13
q16 0 16 -21q0 -48 -124.5 -168t-249.5 -180t-220 -60zM302 379q0 -11 26 -11q73 0 131.5 51t58.5 105q0 33 -16 52.5t-38 19.5q-41 0 -101.5 -97.5t-60.5 -119.5zM286 792q0 16 20 34q138 133 182 200q18 26 48 26q26 0 34 -38q8 -37 32.5 -96.5t39.5 -77.5q10 -12 10 -26
q0 -38 -50 -38q-18 0 -33 16t-51 112q-4 11 -10 11t-16 -13q-60 -73 -99.5 -104.5t-72.5 -31.5q-8 0 -21 6t-13 20z" />
    <glyph glyph-name="edieresis" unicode="&#xeb;" horiz-adv-x="634" 
d="M276 -20q-62 0 -107 50t-45 130q0 79 56 210t147.5 235.5t144.5 104.5q42 0 46 -36q0 -18 24 -18q37 -2 60.5 -29t23.5 -71q0 -106 -89.5 -194t-206.5 -88q-26 0 -48 18q-5 4 -8 4q-9 0 -21.5 -44.5t-12.5 -73.5q0 -92 88 -92q97 0 229 78.5t275 231.5q12 13 22 13
q16 0 16 -21q0 -48 -124.5 -168t-249.5 -180t-220 -60zM302 379q0 -11 26 -11q73 0 131.5 51t58.5 105q0 33 -16 52.5t-38 19.5q-41 0 -101.5 -97.5t-60.5 -119.5zM324 891q0 36 23.5 56t60.5 20q70 0 70 -72q0 -28 -29 -57t-55 -29q-25 0 -47.5 26t-22.5 56zM562 873
q0 33 26 60.5t62 27.5q25 0 49.5 -23t24.5 -47q0 -32 -33 -57t-69 -25q-20 0 -40 19t-20 45z" />
    <glyph glyph-name="iacute" unicode="&#xed;" horiz-adv-x="468" 
d="M763 442q0 -51 -124 -185t-243.5 -207.5t-174.5 -73.5q-41 0 -73 45t-32 92q0 26 9 53q83 248 83 269q0 8 -3 17q-3 12 -3 22q0 51 78 140.5t112 89.5q14 0 25 -17.5t11 -38.5q0 -20 -11 -38q-66 -108 -127 -266.5t-61 -208.5q0 -45 38 -45q71 0 210 112.5t246 245.5
q14 17 25 17q15 0 15 -23zM318 772q-18 0 -18 12q0 18 20 36q84 76 190 208q31 40 60 40q24 0 45.5 -17.5t21.5 -35.5q0 -12 -11.5 -29t-82 -75t-117.5 -88t-72 -40.5t-36 -10.5z" />
    <glyph glyph-name="igrave" unicode="&#xec;" horiz-adv-x="468" 
d="M763 442q0 -51 -124 -185t-243.5 -207.5t-174.5 -73.5q-41 0 -73 45t-32 92q0 26 9 53q83 248 83 269q0 8 -3 17q-3 12 -3 22q0 51 78 140.5t112 89.5q14 0 25 -17.5t11 -38.5q0 -20 -11 -38q-66 -108 -127 -266.5t-61 -208.5q0 -45 38 -45q71 0 210 112.5t246 245.5
q14 17 25 17q15 0 15 -23zM231 1004q0 25 20 44t40 19q37 0 58.5 -52t64.5 -129t43 -94q0 -16 -16 -16q-28 0 -119 94t-91 134z" />
    <glyph glyph-name="icircumflex" unicode="&#xee;" horiz-adv-x="468" 
d="M763 442q0 -51 -124 -185t-243.5 -207.5t-174.5 -73.5q-41 0 -73 45t-32 92q0 26 9 53q83 248 83 269q0 8 -3 17q-3 12 -3 22q0 51 78 140.5t112 89.5q14 0 25 -17.5t11 -38.5q0 -20 -11 -38q-66 -108 -127 -266.5t-61 -208.5q0 -45 38 -45q71 0 210 112.5t246 245.5
q14 17 25 17q15 0 15 -23zM208 800q0 16 20 34q138 133 182 200q18 26 48 26q26 0 34 -38q8 -37 32.5 -96.5t39.5 -77.5q10 -12 10 -26q0 -38 -50 -38q-18 0 -33 16t-51 112q-4 11 -10 11t-16 -13q-60 -73 -99.5 -104.5t-72.5 -31.5q-8 0 -21 6t-13 20z" />
    <glyph glyph-name="idieresis" unicode="&#xef;" horiz-adv-x="468" 
d="M763 442q0 -51 -124 -185t-243.5 -207.5t-174.5 -73.5q-41 0 -73 45t-32 92q0 26 9 53q83 248 83 269q0 8 -3 17q-3 12 -3 22q0 51 78 140.5t112 89.5q14 0 25 -17.5t11 -38.5q0 -20 -11 -38q-66 -108 -127 -266.5t-61 -208.5q0 -45 38 -45q71 0 210 112.5t246 245.5
q14 17 25 17q15 0 15 -23zM223 889q0 36 23.5 56t60.5 20q70 0 70 -72q0 -28 -29 -57t-55 -29q-25 0 -47.5 26t-22.5 56zM461 871q0 33 26 60.5t62 27.5q25 0 49.5 -23t24.5 -47q0 -32 -33 -57t-69 -25q-20 0 -40 19t-20 45z" />
    <glyph glyph-name="ntilde" unicode="&#xf1;" horiz-adv-x="852" 
d="M108 61q0 48 52 238.5t87 284.5t61 123t53 29q26 0 47 -29.5t21 -54.5q0 -16 -18 -20q-30 -6 -55.5 -60t-55.5 -150.5t-30 -111.5q0 -10 6 -10t15 12q58 78 184 197.5t192 148.5q22 11 36 36q17 30 38 30q16 0 36.5 -20.5t20.5 -41.5q0 -28 -36 -86q-49 -79 -95 -216
t-46 -205q0 -99 68 -99q109 0 380 344q10 14 19 14q13 0 13 -18q0 -50 -160.5 -244t-297.5 -194q-56 0 -89.5 48.5t-33.5 133.5q0 98 73 318q10 29 10 42q0 11 -6 11q-25 0 -155.5 -138.5t-228.5 -308.5q-34 -58 -60 -58q-15 0 -30 17t-15 38zM382 856q0 45 44 98.5t90 53.5
q36 0 88 -56q47 -54 66 -54q30 0 50 78q9 30 34 30q37 0 37 -51q0 -58 -42 -106.5t-87 -48.5q-18 0 -37.5 9.5t-64.5 54.5q-45 42 -56 42q-33 0 -52 -82q-6 -22 -32 -22q-38 0 -38 54z" />
    <glyph glyph-name="oacute" unicode="&#xf3;" horiz-adv-x="622" 
d="M214 -22q-38 0 -74 41.5t-36 92.5q0 64 34 165t150 259q24 30 24 62q0 28 23 51t55 23q29 0 46 22q23 32 62 32q54 0 54 -52q0 -24 10 -30q98 -64 98 -208q0 -65 -53 -175t-171 -196.5t-222 -86.5zM478 580q-52 0 -152 -161t-100 -271q0 -31 14.5 -49.5t37.5 -18.5
q92 0 184 137t92 231q0 132 -76 132zM438 783q-18 0 -18 12q0 18 20 36q84 76 190 208q31 40 60 40q24 0 45.5 -17.5t21.5 -35.5q0 -12 -11.5 -29t-82 -75t-117.5 -88t-72 -40.5t-36 -10.5z" />
    <glyph glyph-name="ograve" unicode="&#xf2;" horiz-adv-x="622" 
d="M214 -22q-38 0 -74 41.5t-36 92.5q0 64 34 165t150 259q24 30 24 62q0 28 23 51t55 23q29 0 46 22q23 32 62 32q54 0 54 -52q0 -24 10 -30q98 -64 98 -208q0 -65 -53 -175t-171 -196.5t-222 -86.5zM478 580q-52 0 -152 -161t-100 -271q0 -31 14.5 -49.5t37.5 -18.5
q92 0 184 137t92 231q0 132 -76 132zM324 1005q0 25 20 44t40 19q37 0 58.5 -52t64.5 -129t43 -94q0 -16 -16 -16q-28 0 -119 94t-91 134z" />
    <glyph glyph-name="ocircumflex" unicode="&#xf4;" horiz-adv-x="622" 
d="M214 -22q-38 0 -74 41.5t-36 92.5q0 64 34 165t150 259q24 30 24 62q0 28 23 51t55 23q29 0 46 22q23 32 62 32q54 0 54 -52q0 -24 10 -30q98 -64 98 -208q0 -65 -53 -175t-171 -196.5t-222 -86.5zM478 580q-52 0 -152 -161t-100 -271q0 -31 14.5 -49.5t37.5 -18.5
q92 0 184 137t92 231q0 132 -76 132zM313 800q0 16 20 34q138 133 182 200q18 26 48 26q26 0 34 -38q8 -37 32.5 -96.5t39.5 -77.5q10 -12 10 -26q0 -38 -50 -38q-18 0 -33 16t-51 112q-4 11 -10 11t-16 -13q-60 -73 -99.5 -104.5t-72.5 -31.5q-8 0 -21 6t-13 20z" />
    <glyph glyph-name="odieresis" unicode="&#xf6;" horiz-adv-x="622" 
d="M214 -22q-38 0 -74 41.5t-36 92.5q0 64 34 165t150 259q24 30 24 62q0 28 23 51t55 23q29 0 46 22q23 32 62 32q54 0 54 -52q0 -24 10 -30q98 -64 98 -208q0 -65 -53 -175t-171 -196.5t-222 -86.5zM478 580q-52 0 -152 -161t-100 -271q0 -31 14.5 -49.5t37.5 -18.5
q92 0 184 137t92 231q0 132 -76 132zM326 887q0 36 23.5 56t60.5 20q70 0 70 -72q0 -28 -29 -57t-55 -29q-25 0 -47.5 26t-22.5 56zM564 869q0 33 26 60.5t62 27.5q25 0 49.5 -23t24.5 -47q0 -32 -33 -57t-69 -25q-20 0 -40 19t-20 45z" />
    <glyph glyph-name="otilde" unicode="&#xf5;" horiz-adv-x="622" 
d="M214 -22q-38 0 -74 41.5t-36 92.5q0 64 34 165t150 259q24 30 24 62q0 28 23 51t55 23q29 0 46 22q23 32 62 32q54 0 54 -52q0 -24 10 -30q98 -64 98 -208q0 -65 -53 -175t-171 -196.5t-222 -86.5zM478 580q-52 0 -152 -161t-100 -271q0 -31 14.5 -49.5t37.5 -18.5
q92 0 184 137t92 231q0 132 -76 132zM322 856q0 45 44 98.5t90 53.5q36 0 88 -56q47 -54 66 -54q30 0 50 78q9 30 34 30q37 0 37 -51q0 -58 -42 -106.5t-87 -48.5q-18 0 -37.5 9.5t-64.5 54.5q-45 42 -56 42q-33 0 -52 -82q-6 -22 -32 -22q-38 0 -38 54z" />
    <glyph glyph-name="uacute" unicode="&#xfa;" horiz-adv-x="884" 
d="M683 150q0 -48 31 -48q48 0 165.5 98.5t244.5 237.5q10 12 19 12q15 0 15 -23q0 -50 -139.5 -192t-233 -197.5t-145.5 -55.5q-65 0 -65 108q0 55 19 132l32 123q0 9 -6 9t-16 -12q-74 -101 -217.5 -227.5t-214.5 -126.5q-23 0 -42.5 33.5t-19.5 80.5q0 81 79.5 281
t112 248.5t58.5 48.5q27 0 51.5 -18.5t24.5 -41.5q0 -12 -32.5 -67.5t-51.5 -73.5q-24 -22 -29 -34l-46 -117q-41 -106 -41 -149t30 -43q57 0 191 150t261 360q39 64 68 64q18 0 35.5 -20t17.5 -42t-33 -84q-47 -99 -85 -232.5t-38 -181.5zM518 748q-18 0 -18 12q0 18 20 36
q84 76 190 208q31 40 60 40q24 0 45.5 -17.5t21.5 -35.5q0 -12 -11.5 -29t-82 -75t-117.5 -88t-72 -40.5t-36 -10.5z" />
    <glyph glyph-name="ugrave" unicode="&#xf9;" horiz-adv-x="884" 
d="M683 150q0 -48 31 -48q48 0 165.5 98.5t244.5 237.5q10 12 19 12q15 0 15 -23q0 -50 -139.5 -192t-233 -197.5t-145.5 -55.5q-65 0 -65 108q0 55 19 132l32 123q0 9 -6 9t-16 -12q-74 -101 -217.5 -227.5t-214.5 -126.5q-23 0 -42.5 33.5t-19.5 80.5q0 81 79.5 281
t112 248.5t58.5 48.5q27 0 51.5 -18.5t24.5 -41.5q0 -12 -32.5 -67.5t-51.5 -73.5q-24 -22 -29 -34l-46 -117q-41 -106 -41 -149t30 -43q57 0 191 150t261 360q39 64 68 64q18 0 35.5 -20t17.5 -42t-33 -84q-47 -99 -85 -232.5t-38 -181.5zM389 982q0 25 20 44t40 19
q37 0 58.5 -52t64.5 -129t43 -94q0 -16 -16 -16q-28 0 -119 94t-91 134z" />
    <glyph glyph-name="ucircumflex" unicode="&#xfb;" horiz-adv-x="884" 
d="M683 150q0 -48 31 -48q48 0 165.5 98.5t244.5 237.5q10 12 19 12q15 0 15 -23q0 -50 -139.5 -192t-233 -197.5t-145.5 -55.5q-65 0 -65 108q0 55 19 132l32 123q0 9 -6 9t-16 -12q-74 -101 -217.5 -227.5t-214.5 -126.5q-23 0 -42.5 33.5t-19.5 80.5q0 81 79.5 281
t112 248.5t58.5 48.5q27 0 51.5 -18.5t24.5 -41.5q0 -12 -32.5 -67.5t-51.5 -73.5q-24 -22 -29 -34l-46 -117q-41 -106 -41 -149t30 -43q57 0 191 150t261 360q39 64 68 64q18 0 35.5 -20t17.5 -42t-33 -84q-47 -99 -85 -232.5t-38 -181.5zM392 798q0 16 20 34
q138 133 182 200q18 26 48 26q26 0 34 -38q8 -37 32.5 -96.5t39.5 -77.5q10 -12 10 -26q0 -38 -50 -38q-18 0 -33 16t-51 112q-4 11 -10 11t-16 -13q-60 -73 -99.5 -104.5t-72.5 -31.5q-8 0 -21 6t-13 20z" />
    <glyph glyph-name="udieresis" unicode="&#xfc;" horiz-adv-x="884" 
d="M683 150q0 -48 31 -48q48 0 165.5 98.5t244.5 237.5q10 12 19 12q15 0 15 -23q0 -50 -139.5 -192t-233 -197.5t-145.5 -55.5q-65 0 -65 108q0 55 19 132l32 123q0 9 -6 9t-16 -12q-74 -101 -217.5 -227.5t-214.5 -126.5q-23 0 -42.5 33.5t-19.5 80.5q0 81 79.5 281
t112 248.5t58.5 48.5q27 0 51.5 -18.5t24.5 -41.5q0 -12 -32.5 -67.5t-51.5 -73.5q-24 -22 -29 -34l-46 -117q-41 -106 -41 -149t30 -43q57 0 191 150t261 360q39 64 68 64q18 0 35.5 -20t17.5 -42t-33 -84q-47 -99 -85 -232.5t-38 -181.5zM408 885q0 36 23.5 56t60.5 20
q70 0 70 -72q0 -28 -29 -57t-55 -29q-25 0 -47.5 26t-22.5 56zM646 867q0 33 26 60.5t62 27.5q25 0 49.5 -23t24.5 -47q0 -32 -33 -57t-69 -25q-20 0 -40 19t-20 45z" />
    <glyph glyph-name="dagger" unicode="&#x2020;" horiz-adv-x="862" 
d="M337 564q-19 0 -48 -7q-22 -5 -26 -5q-19 0 -35 20t-16 39q0 24 23.5 35.5t49.5 11.5l218 -4q15 0 22 20q68 223 90 264.5t52 41.5q20 0 43.5 -22.5t23.5 -49.5q0 -17 -9 -34q-22 -40 -54 -122.5t-32 -88.5q0 -9 16 -9h256q38 0 38 -35q0 -16 -21.5 -46.5t-42.5 -30.5
q-6 0 -12 2q-70 20 -246 20q-31 0 -38 -29l-90 -263q-81 -234 -81 -269q0 -18 11 -29q18 -15 18 -32q0 -32 -36 -68q-11 -12 -46 -73q-34 -59 -51 -59q-14 0 -28 20t-14 47q0 46 82.5 319t128.5 412q2 7 2 12q0 12 -24 12h-124z" />
    <glyph glyph-name="degree" unicode="&#xb0;" horiz-adv-x="568" 
d="M286 688q0 88 77 172t165 84q89 0 144.5 -46.5t55.5 -131.5q0 -98 -84.5 -180t-185.5 -82q-67 0 -119.5 54.5t-52.5 129.5zM384 712q0 -45 27.5 -83.5t64.5 -38.5q54 0 106 52t52 100q0 53 -29 83.5t-83 30.5q-55 0 -96.5 -42.5t-41.5 -101.5z" />
    <glyph glyph-name="cent" unicode="&#xa2;" horiz-adv-x="752" 
d="M389 113q0 9 -17 9q-92 0 -141 48.5t-49 139.5q0 115 129.5 274.5t312.5 197.5q15 3 22 24q64 177 80.5 206.5t43.5 29.5q11 0 27 -19t16 -41q0 -10 -5 -20q-74 -163 -74 -176q0 -6 8 -8q34 -7 71 -26t37 -36q0 -18 -29.5 -31t-57.5 -13q-16 0 -38.5 7t-25.5 7
q-6 0 -10.5 -6.5t-46.5 -112t-83.5 -217t-41.5 -117.5q0 -4 4 -4q31 0 130.5 48.5t196.5 154.5q13 14 21 14t8 -11q0 -44 -73.5 -120.5t-153.5 -119t-152 -59.5q-24 -6 -29.5 -16t-28.5 -75.5t-34 -108.5q-7 -37 -35 -68.5t-49 -31.5q-8 0 -15.5 12.5t-7.5 31.5q0 24 13 50
q15 30 46 104t31 79zM593 689q-68 0 -180.5 -130t-112.5 -229q0 -110 112 -110q12 0 17 7t46 116l83 224q43 114 43 116q0 6 -8 6z" />
    <glyph glyph-name="sterling" unicode="&#xa3;" horiz-adv-x="922" 
d="M338 524h50q18 0 26 18q72 206 154 291t158 85q56 0 103 -35t47 -81q0 -48 -28 -48q-11 0 -16 8q-13 21 -42.5 36.5t-59.5 15.5q-40 0 -82.5 -40.5t-83.5 -139t-41 -111.5q0 -5 4.5 -7t73.5 -10t121 -8l79 5q18 0 18 -11q0 -19 -41 -47.5t-100 -28.5q-57 0 -128 10
q-33 4 -46 4q-15 0 -20 -16q-70 -193 -106 -254q-4 -7 -4 -12q0 -7 15 -16.5t119.5 -40.5t175.5 -31q156 0 242 108q12 14 21 14q11 0 11 -18q0 -50 -90 -127t-224 -77q-59 0 -150 25t-170 61q-6 3 -11 3q-10 0 -31 -21q-55 -50 -86 -50q-33 0 -62.5 21t-29.5 45
q0 31 47.5 65t90.5 37q16 2 32 27.5t57 134.5t41 117q0 7 -8.5 10t-45.5 3q-53 0 -88 -30q-4 -4 -11 -4q-12 0 -25.5 12t-13.5 28q0 31 44.5 55.5t113.5 24.5z" />
    <glyph glyph-name="section" unicode="&#xa7;" horiz-adv-x="772" 
d="M676 868q-53 0 -119.5 -46t-66.5 -90q0 -46 38 -84q171 -171 202.5 -237t31.5 -111q0 -55 -48.5 -128.5t-119.5 -139.5q-20 -18 -20 -30l3 -43q0 -105 -121 -203.5t-220 -98.5q-17 0 -32 5q-22 7 -41 7q-12 0 -23 -3q-10 -2 -20 -2q-74 0 -74 89q0 26 27.5 48t52.5 22
t58.5 -17.5t33.5 -41.5q0 -12 30 -12q71 0 144.5 66.5t73.5 115.5q0 66 -88 154q-116 119 -145 180t-29 116q0 54 26.5 118t128.5 149q19 16 19 25q-2 8 -2 28q0 33 23.5 77t61.5 78t86 55t85 27t77.5 19.5t62.5 13.5q38 0 63.5 -23t25.5 -49q0 -21 -19 -36q-3 -2 -10 -8
q-36 -27 -63 -27q-17 0 -33 11q-37 26 -60 26zM411 577q-25 0 -65 -51t-40 -90q0 -44 17 -81.5t98 -130.5t94.5 -105t23.5 -12q20 0 66.5 51t46.5 98q0 70 -111 195.5t-130 125.5z" />
    <glyph glyph-name="bullet" unicode="&#x2022;" horiz-adv-x="416" 
d="M204 354q0 48 47.5 106t94.5 58q44 0 83 -40t39 -78q0 -46 -55.5 -92t-118.5 -46q-28 0 -59 29.5t-31 62.5z" />
    <glyph glyph-name="paragraph" unicode="&#xb6;" horiz-adv-x="878" 
d="M533 178q0 10 -15 10q-129 0 -215.5 65.5t-86.5 180.5q0 89 74.5 171.5t194.5 125.5t221 43q15 0 20 16q40 110 91.5 174t102.5 64q20 0 34 -13t14 -31q0 -32 -28 -46q-27 -13 -66 -78.5t-39 -81.5q0 -8 11 -10q113 -13 113 -47q0 -13 -16.5 -26.5t-26 -16t-38.5 -2.5
q-58 13 -66 13q-6 0 -9.5 -4.5t-31.5 -80.5t-66.5 -191t-38.5 -128q0 -7 10 -7q19 0 71.5 6.5t82.5 15.5q8 2 15 2q13 0 13 -9q0 -11 -24.5 -31.5t-79 -39t-90.5 -22.5q-24 -2 -30.5 -11t-36 -95.5t-29.5 -98.5q0 -20 18 -31q23 -13 23 -29q0 -32 -49.5 -89.5t-85.5 -57.5
q-30 0 -30 56q0 35 86 320q3 9 3 14zM680 698q-88 0 -155 -71t-67 -183q0 -67 31 -111.5t65 -44.5q6 0 8.5 3.5t16.5 49.5l88 276q23 69 23 74q0 7 -10 7z" />
    <glyph glyph-name="germandbls" unicode="&#xdf;" horiz-adv-x="870" 
d="M-168 -643q0 14 6.5 35.5t56.5 87t62 78.5q44 55 70.5 142.5t91.5 395.5q48 226 105 400t154 331.5t210 233t147 75.5q11 0 22 18q25 40 82 40q70 0 115 -38t45 -94q0 -90 -130 -182q-97 -68 -144.5 -116t-47.5 -100q0 -43 25.5 -107t58 -126t38 -67.5t12.5 -5.5
q11 0 131 38t181 76q22 13 32 13q8 0 8 -7q0 -27 -79 -81.5t-249 -114.5q-12 -4 -12 -22q-9 -139 -136.5 -208.5t-205.5 -69.5q-70 0 -70 62q0 64 75 136t187 126q11 6 11 12q0 3 -3 10q-118 230 -118 302q0 68 54 142t208 180q62 41 62 78q0 56 -74 56q-81 0 -241.5 -167.5
t-299 -664t-138.5 -532.5l3 -35q0 -57 -56 -121q-92 -111 -156 -228q-22 -42 -48 -42q-16 0 -30.5 20t-14.5 41zM716 234q-22 0 -101.5 -49t-79.5 -87q0 -24 26 -24q35 0 98.5 45.5t63.5 102.5q0 12 -7 12z" />
    <glyph glyph-name="registered" unicode="&#xae;" horiz-adv-x="732" 
d="M278 646q0 110 94.5 204t197.5 94q146 0 228 -74t82 -208q0 -119 -102.5 -211.5t-223.5 -92.5q-111 0 -193.5 84.5t-82.5 203.5zM812 668q0 102 -72.5 157t-173.5 55q-72 0 -143 -69.5t-71 -150.5q0 -95 59.5 -165.5t150.5 -70.5q100 0 175 71t75 173zM566 802
q46 4 87 -16.5t41 -59.5q0 -23 -52 -68q-6 -2 -6 -6q0 -3 25.5 -36.5t66.5 -57.5q7 -4 7 -7q0 -6 -16.5 -12.5t-38.5 -6.5q-51 0 -98 64q-25 34 -42 34q-13 0 -16 -18q-13 -75 -23.5 -86.5t-30.5 -11.5q-27 0 -27 37q0 10 3 21q27 104 27 141q0 18 -4 32.5t-4 15.5
q0 9 22.5 22.5t34.5 14.5zM618 722q0 9 -11.5 20.5t-28.5 11.5q-26 0 -33 -19.5t-7 -52.5q0 -12 12 -12q23 0 45.5 14.5t22.5 37.5z" />
    <glyph glyph-name="copyright" unicode="&#xa9;" horiz-adv-x="1158" 
d="M232 470q0 171 146.5 311.5t331.5 140.5q194 0 338 -129.5t144 -328.5q0 -170 -157 -317t-355 -147q-179 0 -313.5 140.5t-134.5 329.5zM1102 440q0 176 -113 288t-291 112q-157 0 -265.5 -114.5t-108.5 -275.5q0 -133 114 -247.5t252 -114.5q164 0 288 103.5t124 248.5z
M504 420q0 52 33 112.5t78 100t76 54.5t75 15q53 0 78.5 -21.5t25.5 -50.5q0 -15 -16 -31t-32 -16q-9 0 -20 5q-47 20 -68 20q-32 0 -80 -64t-48 -114q0 -38 24 -65t60 -27q48 0 116 32q41 20 50 20q26 0 26 -26q0 -37 -73.5 -77.5t-146.5 -40.5q-56 0 -107 48.5t-51 125.5z
" />
    <glyph glyph-name="trademark" unicode="&#x2122;" horiz-adv-x="1070" 
d="M543 620q0 -16 -49 -30t-82 -14q-14 0 -32.5 7.5t-18.5 20.5q0 9 7 23.5t26 14.5q7 0 16 34q20 80 40 140q2 6 2 9q0 9 -12 9q-54 0 -92 -28q-19 -16 -32 -16q-22 0 -22 23q0 34 52.5 59.5t133.5 25.5l150 -4q23 0 46 20q10 8 20 8q12 0 26.5 -12.5t14.5 -25.5
q0 -19 -21 -47t-39 -28q-7 0 -13 7q-14 18 -36 18l-72 2q-15 0 -24 -17t-32.5 -86t-23.5 -84q0 -8 17.5 -13.5t30.5 -5.5q19 0 19 -10zM668 604q0 22 52 82q9 11 38.5 78t37.5 90q15 45 24.5 54.5t29.5 9.5q27 0 39 -20.5t29 -111.5q13 -64 16 -71.5t7 -7.5q3 0 16 14l59 63
q45 49 63.5 67.5t20.5 28.5q3 12 19 26t29 14q17 0 31 -12t14 -26q0 -17 -7 -30q-11 -19 -11 -25l-7 -81q-6 -75 -6 -84q0 -15 10 -15t72 45q10 7 15 7t5 -17t-57.5 -68.5t-96.5 -51.5q-26 0 -26 41q0 11 2 23q3 16 8 76l8 79q0 7 -4 7q-6 0 -82 -90q-49 -58 -62.5 -80
t-26 -34t-23.5 -12q-23 0 -28 54l-20 121q-7 48 -12 48t-10 -13q-9 -21 -28 -57q-32 -61 -32 -93q0 -24 -31 -44t-45 -20q-13 0 -21.5 11t-8.5 25z" />
    <glyph glyph-name="acute" unicode="&#xb4;" 
d="M508 770q-18 0 -18 12q0 18 20 36q84 76 190 208q31 40 60 40q24 0 45.5 -17.5t21.5 -35.5q0 -12 -11.5 -29t-82 -75t-117.5 -88t-72 -40.5t-36 -10.5z" />
    <glyph glyph-name="dieresis" unicode="&#xa8;" 
d="M426 896q0 36 23.5 56t60.5 20q70 0 70 -72q0 -28 -29 -57t-55 -29q-25 0 -47.5 26t-22.5 56zM664 878q0 33 26 60.5t62 27.5q25 0 49.5 -23t24.5 -47q0 -32 -33 -57t-69 -25q-20 0 -40 19t-20 45z" />
    <glyph glyph-name="notequal" unicode="&#x2260;" horiz-adv-x="992" 
d="M684 272q81 -6 146 -6h2q117 0 162 12q10 2 19 2q25 0 48.5 -20.5t23.5 -41.5q0 -48 -129 -48q-150 0 -326 8q-43 -75 -50.5 -96t-7.5 -44q0 -36 -60 -36q-56 0 -56 44q0 42 60 134q-48 2 -84 2q-31 0 -50 -14q-8 -7 -18 -7q-22 0 -40 28.5t-18 46.5q0 47 112 47
q54 0 160 -7q48 72 112 184q-159 6 -198 6q-36 0 -60 -4l-39 -6q-21 0 -40 25t-19 43q0 46 96 46h2l312 -12q37 66 48 110q7 28 32 41t44 13q38 0 38 -38q0 -30 -25.5 -76.5t-28.5 -53.5q25 -2 54 -2q71 0 98 8q9 3 17 3q23 0 40 -20.5t17 -40.5q0 -48 -96 -48l-186 4
q-61 -106 -102 -168q-4 -6 -10 -18z" />
    <glyph glyph-name="AE" unicode="&#xc6;" horiz-adv-x="1298" 
d="M939 490h296q108 0 108 -23q0 -13 -68 -35t-358 -36q-16 0 -23 -6t-38 -113t-31 -139q0 -24 14 -37.5t77 -22t127 -8.5q173 0 244 26q36 13 44 13t8 -7q0 -32 -102.5 -77t-293.5 -45q-74 0 -160.5 11t-96.5 34t-10 45q0 23 51 175q42 128 42 137q0 6 -16 6
q-75 -10 -136 -10q-37 0 -78 22q-5 2 -9 2q-12 0 -52 -40l-114 -112q-73 -72 -82 -86.5t-9 -37.5q4 -17 4 -31q0 -50 -62 -84.5t-92 -34.5q-23 0 -37 10.5t-14 40.5q0 54 104 147q34 31 61 60q142 161 397 418.5t293.5 290.5t55.5 33q19 0 33.5 -19t14.5 -57q0 -13 27 -14.5
t307 -1.5q40 0 40 -28q0 -23 -35.5 -54.5t-60.5 -31.5q-15 0 -26 8q-27 20 -58 20q-133 0 -172.5 -2.5t-43.5 -9.5t-10 -28l-43 -135q-36 -114 -36 -123q0 -10 19 -10zM613 501q0 -21 68 -21q49 0 82 3.5t40 10.5t24 61l38 122q21 69 21 82q0 12 -7 12q-21 0 -143.5 -129
t-122.5 -141z" />
    <glyph glyph-name="Oslash" unicode="&#xd8;" horiz-adv-x="936" 
d="M184 282q0 127 81 270.5t231.5 267.5t249.5 124q33 0 54 -14q8 -6 28 -6l68 -7q13 0 22 13q198 250 214 268t38 18q18 0 32.5 -15.5t14.5 -33.5q0 -20 -17 -39q-222 -246 -222 -253q0 -5 8 -11q62 -62 62 -168q0 -124 -107.5 -306.5t-257.5 -297t-273 -114.5
q-50 0 -92 30q-6 5 -10 5q-7 0 -35 -40l-67 -95q-39 -56 -39 -89l3 -27q0 -29 -35.5 -67.5t-62.5 -38.5q-16 0 -29 18.5t-13 45.5q0 53 38 86q22 17 71 90q64 97 101 150q4 6 4 11q0 6 -6 15q-54 75 -54 210zM798 856q-12 0 -20 -4q-13 -10 -38 -10q-86 0 -265 -205
t-179 -385q0 -34 7.5 -64.5t17.5 -30.5q5 0 9 7l250 337q168 221 260 333q4 4 4 8q0 14 -46 14zM366 96q0 -8 15.5 -18t40.5 -10q93 0 201.5 86.5t210.5 273.5t102 284q0 30 -8 54t-16 24q-12 0 -279 -339.5t-267 -354.5z" />
    <glyph glyph-name="infinity" unicode="&#x221e;" horiz-adv-x="1460" 
d="M653 668q71 169 159 222.5t212 53.5q161 0 272 -116.5t111 -301.5q0 -186 -111.5 -303t-238.5 -117q-95 0 -170.5 63t-165.5 224q-117 -233 -324 -233q-149 0 -246.5 104.5t-97.5 263.5q0 157 89 262t218 105q80 0 149 -42t144 -185zM750 465q64 -138 134.5 -201
t176.5 -63q126 0 207.5 91t81.5 234q0 140 -84 240t-199 100q-55 0 -97.5 -21.5t-74.5 -62t-64 -116.5zM614 557l11 33q-96 215 -267 215q-110 0 -179.5 -76.5t-69.5 -198.5q0 -123 66.5 -207.5t162.5 -84.5q82 0 149.5 65t126.5 254z" />
    <glyph glyph-name="plusminus" unicode="&#xb1;" horiz-adv-x="1104" 
d="M356 460q-31 0 -49.5 12t-18.5 28q0 22 22.5 41t109.5 19l156 -6q15 0 19.5 5.5t4.5 24.5l-2 76q0 118 9.5 151t40.5 33q67 0 67 -57q0 -9 -3 -21q-16 -59 -16 -186q0 -18 3 -22t17 -4h258q24 0 42 -15.5t18 -36.5q0 -20 -21.5 -34t-40.5 -14l-260 8q-16 0 -16 -20
l8 -210q0 -70 -62 -70q-22 0 -37 16t-15 42l5 95q3 61 3 123q0 14 -3 18t-17 4h-222zM1080 34q0 -20 -31.5 -34t-76.5 -14q-14 0 -171 7t-395 7q-18 0 -52 -6q-26 -4 -33 -4q-23 0 -41 21.5t-18 46.5q0 44 90 44q99 0 231.5 -6t312.5 -6q72 0 100 6q11 3 22 3q26 0 44 -19.5
t18 -45.5z" />
    <glyph glyph-name="lessequal" unicode="&#x2264;" horiz-adv-x="992" 
d="M839 188q-11 0 -25 12q-79 66 -224.5 145.5t-247.5 114.5q-15 4 -27.5 19.5t-12.5 28.5q0 37 64 60q49 18 381 213q121 71 146.5 84t44.5 13q32 0 32 -46q0 -50 -54 -74q-107 -48 -237.5 -116.5t-157.5 -87t-27 -28.5q0 -18 60 -48q135 -69 225 -122.5t111.5 -74
t21.5 -37.5q0 -19 -29 -37.5t-44 -18.5zM274 58q0 46 96 46l476 -18q71 0 98 8q9 3 17 3q23 0 40 -20.5t17 -40.5q0 -48 -96 -48l-490 12q-36 0 -60 -4l-39 -6q-21 0 -40 25t-19 43z" />
    <glyph glyph-name="greaterequal" unicode="&#x2265;" horiz-adv-x="992" 
d="M416 878q28 0 92 -44q30 -21 157 -95.5t227 -121.5q32 -14 40 -26.5t8 -34.5q0 -28 -52 -73t-302.5 -172t-293.5 -127q-18 0 -37 11t-19 25q0 21 26 44t60 36q95 34 252 108.5t186.5 96.5t29.5 33t-25 30.5t-163 98t-244 113.5q-34 10 -34 34q0 16 36.5 40t55.5 24z
M214 58q0 46 96 46l476 -18q71 0 98 8q9 3 17 3q23 0 40 -20.5t17 -40.5q0 -48 -96 -48l-490 12q-36 0 -60 -4l-39 -6q-21 0 -40 25t-19 43z" />
    <glyph glyph-name="yen" unicode="&#xa5;" horiz-adv-x="826" 
d="M542 316h90q64 0 88 5l39 9q27 0 27 -42q0 -17 -7.5 -27t-15.5 -13t-89 -4h-158q-14 0 -22.5 -14.5t-23 -66t-14.5 -71.5q0 -24 22 -24q91 0 111.5 -4t20.5 -16q0 -26 -139 -49t-213 -23q-29 0 -51.5 9.5t-22.5 22.5q0 28 126 50q12 2 17 10t31 83.5t26 79.5q0 7 -14 7
q-27 0 -93 -10.5t-97 -25.5q-10 -6 -21 -6q-21 0 -21 30q0 42 53 65t205 23q15 0 18.5 4.5t18.5 48t15 50.5t-11 7t-86.5 -10t-100.5 -20q-14 -6 -25 -6q-13 0 -27 9t-14 27q0 39 85 57.5t173 18.5q19 0 20 9l3 51q2 43 2 70q0 94 -14 133t-45 39q-7 0 -74 -24q-5 -2 -12 -2
q-19 0 -35.5 16t-16.5 38q0 28 58 48t114 20q47 0 79 -26t37.5 -90t5.5 -202q0 -16 6 -16q4 0 10 8q37 53 181.5 200.5t240.5 147.5q27 0 53.5 -17.5t26.5 -38.5q0 -15 -21 -31.5t-37.5 -19.5t-65.5 -3q-39 0 -81.5 -38.5t-137 -142t-94.5 -115.5q0 -4 15 -4q104 0 216 24
q5 2 9 2q12 0 20.5 -11.5t8.5 -23.5q0 -19 -15 -36t-43 -17l-240 -12q-26 0 -35.5 -11.5t-29.5 -53t-20 -48.5t11 -7z" />
    <glyph glyph-name="mu" unicode="&#xb5;" horiz-adv-x="918" 
d="M302 118q42 0 130 83t268 365q62 96 77.5 112t38.5 16q10 0 28.5 -18t18.5 -32q0 -18 -19 -50q-63 -116 -100.5 -253.5t-37.5 -188.5q0 -54 34 -54q86 0 408 322q8 8 16 8q16 0 16 -24q0 -37 -116 -164.5t-231.5 -197.5t-186.5 -70q-24 0 -39.5 29t-15.5 79q0 44 13 98
q31 115 31 132q0 11 -6 11q-8 0 -19 -15q-83 -110 -189 -219t-173 -109q-58 0 -64 104q-2 13 -6 13q-2 0 -5.5 -4.5t-31 -63t-51 -112t-42.5 -105.5l-104 -284q-19 -57 -57 -57q-18 0 -36.5 21.5t-18.5 53.5q0 21 11 55.5t94 206.5l187 388q12 24 54 132q28 78 83 210
t72 152t33 20q23 0 40 -23.5t17 -55.5q0 -18 -7 -29q-13 -21 -69 -130.5t-71.5 -169t-15.5 -114.5q0 -68 42 -68z" />
    <glyph glyph-name="partialdiff" unicode="&#x2202;" horiz-adv-x="952" 
d="M210 1282l-76 96q136 56 260 56q104 0 185.5 -35.5t155.5 -119t104 -165t45.5 -190t15.5 -168.5q0 -304 -76 -477t-177 -247t-223 -74q-156 0 -264 105t-108 275q0 150 105.5 294t284.5 144q80 0 138.5 -25t167.5 -99q16 135 16 212q0 92 -39 217.5t-114.5 198
t-182.5 72.5q-115 0 -218 -70zM734 574q-155 122 -228 122q-149 0 -225.5 -131t-76.5 -281q0 -94 52.5 -177t138.5 -83q121 0 209 148.5t130 401.5z" />
    <glyph glyph-name="summation" unicode="&#x2211;" horiz-adv-x="1200" 
d="M30 0l586 662l-582 750h1008l10 -266h-34q-30 107 -84 139.5t-164 32.5h-478l480 -616l-510 -578h644q81 0 128 44.5t100 187.5h38q-52 -199 -72 -376q-80 20 -132 20h-938z" />
    <glyph glyph-name="product" unicode="&#x220f;" horiz-adv-x="1686" 
d="M1645 -213h-629v47q120 0 159.5 41t39.5 125v1419h-734v-1419q0 -84 39.5 -125t159.5 -41v-47h-629v47q122 0 160.5 41t38.5 125v1282q0 101 -48.5 152t-146.5 51v47h1586v-47q-98 0 -146.5 -51t-48.5 -152v-1282q0 -84 38.5 -125t160.5 -41v-47z" />
    <glyph glyph-name="integral" unicode="&#x222b;" horiz-adv-x="561" 
d="M602 1416q0 -39 -29.5 -64t-75.5 -25q-37 0 -60 25t-44 25q-18 0 -27.5 -14.5t-9.5 -43.5q0 -34 19.5 -256t19.5 -551q0 -505 -30 -709.5t-79 -282.5q-26 -41 -67.5 -62t-85.5 -21q-49 0 -86 35t-37 85q0 38 25.5 65t64.5 27q34 0 65.5 -33t44.5 -33q25 0 39.5 44.5
t14.5 153.5q0 37 -6 197t-6 562q0 481 17 638.5t41 215.5q29 70 69 104t84 34q57 0 98 -32.5t41 -83.5z" />
    <glyph glyph-name="ordfeminine" unicode="&#xaa;" horiz-adv-x="594" 
d="M206 480q0 63 62 171.5t159 200.5t163 92q18 0 46 -32q5 -6 11 -6t13 4q10 10 20 10q9 0 21.5 -11.5t12.5 -23.5q0 -8 -6 -21q-79 -165 -79 -281q0 -79 35 -79q33 0 90 50q7 6 13 6q15 0 15 -18q0 -29 -66.5 -83.5t-109.5 -54.5q-15 0 -40.5 27t-25.5 163q0 8 -4 8
t-10 -6q-17 -20 -94 -91t-106.5 -86t-53.5 -15q-21 0 -43.5 20.5t-22.5 55.5zM588 812q0 20 -12.5 34t-25.5 14q-18 0 -75 -58.5t-100.5 -145t-43.5 -114.5q0 -20 15 -20q37 0 139.5 116t102.5 174z" />
    <glyph glyph-name="ordmasculine" unicode="&#xba;" horiz-adv-x="518" 
d="M224 528q0 49 45 158t137 183.5t152 74.5q29 0 46.5 -13.5t17.5 -31.5q0 -5 -2 -11q-2 -3 -2 -6q0 -7 10 -14q58 -43 58 -110q0 -129 -109.5 -242.5t-218.5 -113.5q-51 0 -92.5 38.5t-41.5 87.5zM582 748q0 36 -18.5 58t-43.5 22q-63 0 -125.5 -105t-62.5 -187
q0 -52 36 -52q62 0 138 87.5t76 176.5z" />
    <glyph glyph-name="Ohm" unicode="&#x2126;" horiz-adv-x="1573" 
d="M1506 0h-604l33 311q161 59 226 200t65 313q0 227 -107 373t-331 146t-331 -146t-107 -373q0 -172 65 -313t226 -200l33 -311h-604v332h30q16 -66 40 -95.5t96 -29.5h323l-4 57q-238 65 -341 221t-103 332q0 259 192 425.5t485 166.5t485 -166.5t192 -425.5
q0 -176 -103 -332t-341 -221l-4 -57h323q72 0 96 29.5t40 95.5h30v-332z" />
    <glyph glyph-name="ae" unicode="&#xe6;" horiz-adv-x="1018" 
d="M66 94q0 102 115.5 256.5t238 222t190.5 67.5q23 0 37 -8l22 -13q5 0 26 30q41 59 83 59q28 0 28 -20q0 -13 -11 -37l-21 -45q0 -2 2 -2q8 0 26 16q21 19 79.5 47.5t90.5 28.5q27 0 46.5 -21.5t19.5 -55.5q0 -39 -34.5 -90.5t-75.5 -80.5q-7 -5 -7 -9q0 -5 11 -5
q6 0 166 51.5t222 80.5q8 4 13 4q10 0 10 -11q0 -55 -266.5 -159t-357.5 -104q-39 0 -59 20q-3 2 -5 2q-10 0 -26.5 -52t-16.5 -106q0 -31 22.5 -50.5t57.5 -19.5q67 0 183 57.5t167 108.5q10 10 17 10q9 0 9 -17q0 -64 -167 -165.5t-279 -101.5q-49 0 -84.5 44t-35.5 94
q0 27 5 53l8 44q0 6 -3 6q-5 0 -20 -15q-90 -90 -191.5 -158t-142.5 -68q-32 0 -62 31t-30 81zM684 401q0 -15 30 -15q61 0 131.5 67.5t70.5 106.5q0 28 -34 28q-57 0 -127.5 -75.5t-70.5 -111.5zM572 548q-39 0 -129 -65.5t-164.5 -173t-74.5 -155.5q0 -44 34 -44
q54 0 222.5 166.5t168.5 233.5q0 15 -15 26.5t-42 11.5z" />
    <glyph glyph-name="oslash" unicode="&#xf8;" horiz-adv-x="664" 
d="M132 206q0 80 53 183.5t157.5 210t173.5 106.5q28 0 70 -28q4 -2 7 -2q6 0 13 10q159 243 214 243q29 0 29 -30q0 -16 -19 -37q-28 -28 -91 -108.5t-63 -85.5q0 -4 6 -8q44 -42 44 -140q0 -132 -87 -268t-192 -205t-165 -69q-18 0 -38 10q-6 3 -9 3q-7 0 -13 -8t-45 -73
l-127 -214q-17 -27 -35 -27q-11 0 -24 10.5t-13 26.5q0 20 10 38l182 280q8 11 8 19q0 6 -4 11q-42 54 -42 152zM544 600q-2 0 -4 -2q-8 -4 -46 -4q-49 0 -159.5 -155t-110.5 -245q0 -25 4 -43t9 -18t61 86l153 231q96 145 96 146q0 4 -3 4zM288 75q0 -7 12 -7
q92 0 213.5 177t121.5 282q0 51 -15 51q-5 0 -44 -53.5t-163.5 -248t-124.5 -201.5z" />
    <glyph glyph-name="questiondown" unicode="&#xbf;" horiz-adv-x="502" 
d="M372 -172q0 -34 -68.5 -57t-123.5 -23q-67 0 -127.5 38.5t-60.5 93.5q0 35 30 73t68.5 67t237.5 144q56 32 56 67q0 33 -24.5 58t-43.5 25q-7 0 -38 -20q-57 -36 -78 -36t-39.5 15t-18.5 31q0 29 55 60t100 31q85 0 148 -50.5t63 -116.5q0 -28 -32 -70.5t-64.5 -65.5
t-237.5 -132q-66 -36 -66 -74q0 -20 19.5 -34t40.5 -14q14 0 40 22q20 26 46 26q37 0 77.5 -17t40.5 -41zM326 606q0 33 31 63.5t61 30.5q28 0 54 -30t26 -76q0 -33 -26.5 -60.5t-55.5 -27.5q-34 0 -62 30.5t-28 69.5z" />
    <glyph glyph-name="exclamdown" unicode="&#xa1;" horiz-adv-x="316" 
d="M297 347q0 -46 -26 -133l-74 -240q-49 -154 -56 -173t-22 -30t-34 -11q-35 0 -57 41.5t-22 71.5q0 34 31 60.5t81 143.5t78 196t45.5 96t35.5 17q20 0 20 -39zM421 608q0 -31 -29 -62.5t-57 -31.5q-34 0 -56 34.5t-22 67.5q0 34 27.5 59t62.5 25q33 0 53.5 -29t20.5 -63z
" />
    <glyph glyph-name="logicalnot" unicode="&#xac;" horiz-adv-x="1104" 
d="M366 557q10 0 20 -3q36 -12 180 -12q168 0 268 3l161 5q23 0 40.5 -17.5t17.5 -47.5q0 -17 -3 -55q-14 -168 -14 -208q0 -47 2.5 -60t2.5 -20q0 -27 -25 -47.5t-56 -20.5q-35 0 -35 65q0 50 11 137q7 63 7 91q0 55 -20.5 69t-80.5 14l-410 -10q-136 0 -136 58
q0 19 22.5 39t47.5 20z" />
    <glyph glyph-name="radical" unicode="&#x221a;" horiz-adv-x="906" 
d="M632 -110l-418 864l-160 -78l-30 64l250 124l310 -640l206 1270l94 -18z" />
    <glyph glyph-name="florin" unicode="&#x192;" horiz-adv-x="660" 
d="M168 480q0 19 34.5 36.5t171.5 17.5q20 0 28 24q72 235 190 342.5t190 107.5q25 0 52.5 -33.5t27.5 -58.5q0 -23 -25 -44.5t-37 -21.5q-11 0 -40 22q-17 14 -36 14q-44 0 -92.5 -72.5t-82 -164t-33.5 -105.5q0 -8 22 -8l152 -4q41 0 62.5 -12.5t21.5 -26.5q0 -20 -27 -37
t-43 -17q-6 0 -12 3q-36 14 -180 14q-21 0 -28 -24q-125 -468 -223 -641t-181 -173q-41 0 -75.5 27.5t-34.5 62.5q0 27 26 49.5t40 22.5q18 0 32 -12q19 -14 40 -14q34 0 73 74.5t111 336.5t72 276q0 9 -16 9l-114 -2q-66 0 -66 32z" />
    <glyph glyph-name="approxequal" unicode="&#x2248;" horiz-adv-x="1124" 
d="M1022 874h51q-21 -155 -95.5 -238t-186.5 -83q-97 0 -304 117q-139 78 -211 78q-149 0 -178 -187h-47q20 154 93.5 238t181.5 84q47 0 107 -19.5t224 -107.5q118 -62 193 -62q144 0 172 180zM1022 487h51q-21 -155 -95.5 -238t-186.5 -83q-96 0 -268.5 97t-246.5 97
q-149 0 -178 -186h-47q20 153 93.5 236.5t181.5 83.5q47 0 112 -21.5t219 -103.5q118 -62 193 -62q144 0 172 180z" />
    <glyph glyph-name="Delta" unicode="&#x2206;" horiz-adv-x="1224" 
d="M652 1376l564 -1376h-1204zM580 1034l-436 -936h824z" />
    <glyph glyph-name="guillemotleft" unicode="&#xab;" horiz-adv-x="942" 
d="M319 256q-35 0 -35 38q0 32 62 80q24 18 179 153q93 80 110 93.5t31 13.5q16 0 16 -33q0 -41 -41.5 -82.5t-190.5 -164.5q-17 -14 -17 -25t17 -23q15 -10 70.5 -73.5t68 -90.5t12.5 -49q0 -25 -14.5 -38t-27.5 -13q-16 0 -25 20q-22 46 -84 110t-85 74t-46 10zM857 70
q-12 0 -18.5 6t-27.5 33q-70 92 -111 119.5t-52 27.5q-52 0 -52 52q0 27 69 86.5t141 127.5t104 68q29 0 29 -48q0 -31 -29 -42q-17 -5 -66 -48.5t-83 -75.5t-34 -44q0 -8 9 -16q48 -37 102 -98.5t54 -103.5q0 -16 -10 -30t-25 -14z" />
    <glyph glyph-name="guillemotright" unicode="&#xbb;" horiz-adv-x="816" 
d="M588 620q33 0 64 -58q42 -80 85.5 -126t58.5 -46q13 0 22.5 -15t9.5 -31q0 -26 -30 -44q-41 -24 -95.5 -65t-99 -76t-49.5 -49q-9 -17 -48.5 -45t-58.5 -28q-13 0 -28 12t-15 31q0 34 58 72q81 54 152.5 116t71.5 81q0 7 -30 46q-68 86 -96 124t-28 63q0 14 18.5 26
t37.5 12zM290 604q17 0 62 -62q49 -67 73 -91.5t81 -70.5q28 -15 28 -44q0 -23 -70 -54q-148 -70 -166 -124q-6 -21 -37 -48.5t-57 -27.5q-15 0 -30.5 13.5t-15.5 28.5q0 14 16 34t107 95t99 81t8 14q0 7 -12 22l-43 51q-75 90 -87 101q-14 12 -14 28q0 18 22 36t36 18z" />
    <glyph glyph-name="ellipsis" unicode="&#x2026;" horiz-adv-x="1944" 
d="M1048 68q0 -35 -39 -62.5t-81 -27.5q-22 0 -42 21.5t-20 48.5q0 31 33 68.5t67 37.5q29 0 55.5 -29t26.5 -57zM220 44q0 35 32 70.5t64 35.5q29 0 55.5 -25t26.5 -49q0 -33 -39 -65.5t-79 -32.5q-21 0 -40.5 21.5t-19.5 44.5zM1694 74q0 -36 -35.5 -66t-80.5 -30
q-20 0 -41 21t-21 41q0 34 31.5 72t64.5 38q29 0 55.5 -26.5t26.5 -49.5z" />
    <glyph glyph-name="space" unicode="&#xa0;" horiz-adv-x="394" 
 />
    <glyph glyph-name="Agrave" unicode="&#xc0;" horiz-adv-x="970" 
d="M72 16q0 32 37.5 90.5t178.5 229.5q10 12 10 30q0 21 21 47t45 31q17 3 27.5 13t80.5 100l138 176q127 163 152.5 189t51.5 26q14 0 31.5 -21.5t17.5 -38.5q0 -15 -13 -28q-27 -25 -36 -37.5t-9 -41.5q0 -60 6.5 -175.5t9 -124.5t13.5 -9q199 0 199 -26
q0 -14 -47.5 -29.5t-143.5 -24.5q-17 -2 -17 -13q0 -30 13 -120.5t22.5 -108.5t28.5 -18l35 5q20 0 20 -33q0 -37 -32.5 -73.5t-81.5 -36.5q-55 0 -77.5 93.5t-32.5 282.5q0 12 -24 12q-86 0 -183 -16t-120 -39.5t-81 -101.5t-58 -140l2 -31q0 -35 -54.5 -64.5t-83.5 -29.5
q-19 0 -32.5 17t-13.5 39zM539 463q4 0 9 1q42 6 144 6q14 0 17 3t3 15l-8 178q0 21 -7 21q-10 0 -90 -104.5t-80 -111.5q0 -8 12 -8zM649 1220q0 22 15 41t46 19q33 0 54 -36q33 -57 76 -114q51 -71 51 -84q0 -17 -21 -17q-22 0 -121.5 75t-99.5 116z" />
    <glyph glyph-name="Atilde" unicode="&#xc3;" horiz-adv-x="970" 
d="M72 16q0 32 37.5 90.5t178.5 229.5q10 12 10 30q0 21 21 47t45 31q17 3 27.5 13t80.5 100l138 176q127 163 152.5 189t51.5 26q14 0 31.5 -21.5t17.5 -38.5q0 -15 -13 -28q-27 -25 -36 -37.5t-9 -41.5q0 -60 6.5 -175.5t9 -124.5t13.5 -9q199 0 199 -26
q0 -14 -47.5 -29.5t-143.5 -24.5q-17 -2 -17 -13q0 -30 13 -120.5t22.5 -108.5t28.5 -18l35 5q20 0 20 -33q0 -37 -32.5 -73.5t-81.5 -36.5q-55 0 -77.5 93.5t-32.5 282.5q0 12 -24 12q-86 0 -183 -16t-120 -39.5t-81 -101.5t-58 -140l2 -31q0 -35 -54.5 -64.5t-83.5 -29.5
q-19 0 -32.5 17t-13.5 39zM539 463q4 0 9 1q42 6 144 6q14 0 17 3t3 15l-8 178q0 21 -7 21q-10 0 -90 -104.5t-80 -111.5q0 -8 12 -8zM624 1088q0 47 45 100t90 53q36 0 88 -56q49 -52 68 -52q27 0 48 76q9 30 34 30q37 0 37 -51q0 -56 -41.5 -104.5t-85.5 -48.5
q-27 0 -48 14.5t-56 49.5q-45 42 -56 42q-16 0 -30.5 -25.5t-21.5 -56.5q-4 -22 -28 -22q-43 0 -43 51z" />
    <glyph glyph-name="Otilde" unicode="&#xd5;" horiz-adv-x="910" 
d="M174 240q0 102 60.5 239t157 240t182.5 141t112 38q10 0 30 20q26 26 60 26q86 0 160 -64t74 -210q0 -160 -105.5 -334.5t-244 -264t-252.5 -89.5q-85 0 -159.5 63t-74.5 195zM756 756q-23 0 -30 22q-9 28 -44 28q-48 0 -138.5 -86.5t-166 -230.5t-75.5 -263
q0 -69 30.5 -110.5t85.5 -41.5q69 0 183.5 77t212.5 253.5t98 323.5q0 50 -29.5 83.5t-47.5 32.5q-8 0 -8 -7l2 -20q0 -26 -25.5 -43.5t-47.5 -17.5zM599 1096q0 47 45 100t90 53q36 0 88 -56q49 -52 68 -52q27 0 48 76q9 30 34 30q37 0 37 -51q0 -56 -41.5 -104.5
t-85.5 -48.5q-27 0 -48 14.5t-56 49.5q-45 42 -56 42q-16 0 -30.5 -25.5t-21.5 -56.5q-4 -22 -28 -22q-43 0 -43 51z" />
    <glyph glyph-name="OE" unicode="&#x152;" horiz-adv-x="1430" 
d="M170 220q0 107 61.5 259t138 242t184.5 155.5t208 65.5q4 0 81.5 -32.5t104.5 -79.5q12 -20 22 -20q7 0 10 10q38 128 90 128q19 0 34.5 -9t18.5 -18t3 -35q0 -32 200 -32q116 0 172 4q20 2 30 2q29 0 29 -15q0 -24 -81.5 -52.5t-205.5 -28.5l-150 6q-24 0 -39.5 -20.5
t-51.5 -120.5t-36 -116q0 -15 38 -18.5t217 -3.5q91 0 123 2l52 4q20 0 20 -14q0 -11 -14 -23.5t-83.5 -34t-202.5 -28.5t-155 -7q-25 0 -37 -14.5t-29.5 -78t-17.5 -109.5q0 -45 28.5 -64t99 -32.5t148.5 -13.5q140 0 286 52q15 5 25 5q13 0 13 -9q0 -35 -133.5 -89.5
t-284.5 -54.5q-93 0 -174.5 17.5t-102.5 48.5t-21 77l2 38q0 10 -5 10t-15 -9q-76 -70 -194 -137t-196 -67q-61 0 -135.5 75t-74.5 185zM757 802q-14 0 -27 10q-17 26 -44 26q-82 0 -231 -189.5t-149 -422.5q0 -72 34.5 -116t95.5 -44q75 0 222 108t206 276.5t59 219.5
q0 61 -40.5 107.5t-69.5 46.5q-8 0 -23 -10q-18 -12 -33 -12z" />
    <glyph glyph-name="oe" unicode="&#x153;" horiz-adv-x="976" 
d="M958 694q39 0 68.5 -38t29.5 -78q0 -71 -97.5 -155.5t-288.5 -144.5q-50 -17 -50 -102q0 -36 23 -58t51 -22q67 0 157 50t173 124q13 12 22 12q10 0 10 -14q0 -66 -149.5 -176t-258.5 -110q-89 0 -130 126q-6 17 -18 17q-6 0 -12 -5q-198 -150 -288 -150q-38 0 -70 41
t-32 97q0 103 74.5 244t192 239.5t185.5 98.5q20 0 32 -16q4 -22 14 -26q22 -10 37.5 -30t26.5 -74q3 -15 10 -15q6 0 18 13q56 62 112.5 94t95.5 32q12 0 28 12q11 14 34 14zM700 375q28 0 137 56t109 119q0 42 -38 42q-69 0 -142 -86t-73 -124q0 -7 7 -7zM222 160
q0 -31 15.5 -52.5t38.5 -21.5q68 0 187 114t119 272q0 84 -32 84l-38 -11q-5 0 -16 2q-11 3 -16 3q-62 0 -160 -145t-98 -245z" />
    <glyph glyph-name="endash" unicode="&#x2013;" horiz-adv-x="972" 
d="M184 340q0 18 19.5 34t63.5 16l510 -4q105 0 133.5 -13t28.5 -45q0 -17 -14.5 -28.5t-35.5 -11.5l-167 5q-104 3 -375 3q-40 0 -58 -4t-44 -4q-21 0 -41 17t-20 35z" />
    <glyph glyph-name="emdash" unicode="&#x2014;" horiz-adv-x="1944" 
d="M210 344q0 16 22 32t60 16l1542 -10q25 0 42.5 -17t17.5 -35q0 -17 -18 -30.5t-36 -13.5q-11 0 -43 3q-81 7 -1431 7q-40 0 -58 -4t-40 -4q-18 0 -38 20t-20 36z" />
    <glyph glyph-name="quotedblleft" unicode="&#x201c;" horiz-adv-x="486" 
d="M438 792q0 -32 -29.5 -62t-64.5 -30q-32 0 -53 31t-21 73q0 57 40.5 115.5t99 91.5t86.5 33q32 0 32 -20q0 -19 -38 -36q-48 -23 -87.5 -65t-39.5 -68q0 -11 19 -11q25 0 40.5 -14.5t15.5 -37.5zM674 792q0 -31 -27.5 -61.5t-60.5 -30.5q-35 0 -56.5 31t-21.5 71
q0 99 87.5 169.5t134.5 70.5q36 0 36 -20q0 -16 -40 -36q-41 -18 -82.5 -61t-41.5 -66q0 -15 22 -17q50 -4 50 -50z" />
    <glyph glyph-name="quotedblright" unicode="&#x201d;" horiz-adv-x="492" 
d="M352 944q0 30 28.5 62t61.5 32q34 0 54 -29t20 -71q0 -102 -82.5 -174t-141.5 -72q-40 0 -40 22q0 23 48 40q55 19 91.5 65t36.5 60q0 9 -14 9q-23 0 -42.5 16.5t-19.5 39.5zM594 948q0 33 28 61.5t64 28.5q34 0 56 -32.5t22 -75.5q0 -51 -41 -109t-100 -90.5t-83 -32.5
q-28 0 -28 18q0 17 30 34q34 17 80 61t46 69q0 16 -28 20q-46 6 -46 48z" />
    <glyph glyph-name="quoteleft" unicode="&#x2018;" horiz-adv-x="250" 
d="M438 792q0 -32 -29.5 -62t-64.5 -30q-32 0 -53 31t-21 73q0 54 37.5 112.5t100.5 93t88 34.5q32 0 32 -20q0 -19 -38 -36q-48 -23 -87.5 -65t-39.5 -68q0 -11 19 -11q25 0 40.5 -14.5t15.5 -37.5z" />
    <glyph glyph-name="quoteright" unicode="&#x2019;" horiz-adv-x="250" 
d="M352 944q0 30 28.5 62t61.5 32q34 0 54 -29t20 -71q0 -104 -85.5 -175t-138.5 -71q-40 0 -40 22q0 23 48 40q55 19 91.5 65t36.5 60q0 9 -14 9q-23 0 -42.5 16.5t-19.5 39.5z" />
    <glyph glyph-name="divide" unicode="&#xf7;" horiz-adv-x="1104" 
d="M631 632q0 32 32.5 60t69.5 28q23 0 43.5 -30.5t20.5 -53.5q0 -40 -19.5 -65t-50.5 -25q-30 0 -63 28t-33 58zM328 376q0 60 157 60q109 0 274.5 -6t169.5 -6q75 0 105.5 4t42.5 4q18 0 35 -16.5t17 -39.5q0 -54 -128 -54l-438 12q-133 0 -172 -14q-10 -3 -19 -3
q-18 0 -31 18t-13 41zM639 120q0 32 23.5 57t54.5 25t59.5 -38t28.5 -72q0 -26 -32.5 -47t-59.5 -21q-26 0 -50 30.5t-24 65.5z" />
    <glyph glyph-name="lozenge" unicode="&#x25ca;" horiz-adv-x="942" 
d="M412 0l-376 722l376 706h120l376 -706l-376 -722h-120zM180 722l292 -574l292 574l-292 558z" />
    <glyph glyph-name="ydieresis" unicode="&#xff;" horiz-adv-x="576" 
d="M154 168l14 333l-9 72q0 36 37 86.5t53 50.5q39 0 39 -126q0 -43 -16 -197q-16 -150 -16 -178q0 -79 37 -79q21 0 56 35.5t85.5 110.5t82.5 135t35 74t3 43q-2 9 -2 18q0 22 34.5 86t44.5 76t31 12q15 0 32.5 -26t17.5 -52q0 -73 -102 -256.5t-180 -279.5
q-176 -217 -281.5 -356.5t-115 -155t-9.5 -19.5t6 -5q32 -10 32 -32q0 -23 -43.5 -55.5t-98.5 -58.5q-41 -19 -62 -52q-46 -72 -86 -72q-45 0 -45 38t51.5 107.5t91.5 84.5q23 10 32 28q10 22 50.5 82.5t83.5 113.5l163 213q30 39 46 59l9 12q1 2 0 3l-1 1l-7 -2
q-24 -8 -42 -8q-51 0 -51 136zM271 889q0 36 23.5 56t60.5 20q70 0 70 -72q0 -28 -29 -57t-55 -29q-25 0 -47.5 26t-22.5 56zM509 871q0 33 26 60.5t62 27.5q25 0 49.5 -23t24.5 -47q0 -32 -33 -57t-69 -25q-20 0 -40 19t-20 45z" />
    <glyph glyph-name="Ydieresis" unicode="&#x178;" horiz-adv-x="862" 
d="M981 948q32 0 60 -29.5t28 -62.5q0 -47 -74 -102q-88 -63 -198.5 -153.5t-158 -141t-68.5 -92.5t-39.5 -134t-18.5 -109q0 -16 19 -20q140 -24 140 -54q0 -28 -102 -32q-116 -5 -144 -36q-16 -16 -40 -16q-27 0 -55 16t-28 40q0 36 53 62q28 14 34 33l31 122
q25 103 25 155q0 32 -9.5 68.5t-54.5 164.5q-45 130 -57 168t-12 63q0 44 33 70t78 26q26 0 26 -30l-4 -46q0 -75 38 -219t56 -144q5 0 16 9q35 32 180 138q99 72 131.5 98.5t51 59t21.5 82.5q2 20 14 33t28 13zM533 1102q0 74 84 74q70 0 70 -70q0 -28 -29 -57t-55 -29
q-25 0 -47.5 26t-22.5 56zM771 1084q0 33 26 61.5t62 28.5q25 0 49.5 -24.5t24.5 -49.5q0 -32 -33 -56t-69 -24q-20 0 -40 19t-20 45z" />
    <glyph glyph-name="fraction" unicode="&#x2044;" horiz-adv-x="722" 
d="M58 22q0 19 18 39l309 323q174 183 324.5 347t171 180.5t40.5 16.5q21 0 38.5 -23.5t17.5 -46.5q0 -22 -24 -32q-38 -16 -101 -78l-421 -423q-132 -134 -143 -151t-17 -48q-4 -18 -63 -92t-101 -74q-22 0 -35.5 23.5t-13.5 38.5z" />
    <glyph glyph-name="currency" unicode="&#xa4;" horiz-adv-x="858" 
d="M447 703q4 0 11 5q82 52 150 52q65 0 132 -52q15 -12 25 -12q11 0 60 42.5t73 73.5q12 18 28 18q23 0 38 -14t15 -33q0 -27 -24 -48l-117 -101q-18 -16 -18 -31q0 -5 2 -11q6 -18 6 -64q0 -32 -22 -88.5t-54 -93.5q-12 -15 -12 -26q0 -14 17.5 -39t108.5 -139
q7 -13 7 -26q0 -16 -11.5 -29t-27.5 -13q-18 0 -70 40.5t-112 115.5q-6 8 -14 8q-6 0 -20 -6q-126 -56 -176 -56q-22 0 -58 12q-6 2 -12 2q-17 0 -77.5 -47t-82.5 -69q-9 -9 -23 -9q-20 0 -30.5 17.5t-10.5 29.5q0 20 11 34t69 64q61 53 61 62q0 8 -11 24q-26 35 -26 104
q0 102 88 212q11 13 11 21q0 10 -32 57q-41 59 -41 85q0 19 12 36t25 17t71.5 -62.5t60.5 -62.5zM714 516q0 59 -35 98.5t-89 39.5q-91 0 -157.5 -72t-66.5 -166q0 -67 40.5 -99.5t83.5 -32.5q92 0 158 77t66 155z" />
    <glyph glyph-name="guilsinglleft" unicode="&#x2039;" horiz-adv-x="688" 
d="M319 256q-35 0 -35 38q0 32 62 80q24 18 179 153q93 80 110 93.5t31 13.5q16 0 16 -33q0 -41 -41.5 -82.5t-190.5 -164.5q-17 -14 -17 -25t17 -23q15 -10 70.5 -73.5t68 -90.5t12.5 -49q0 -25 -14.5 -38t-27.5 -13q-16 0 -25 20q-22 46 -84 110t-85 74t-46 10z" />
    <glyph glyph-name="guilsinglright" unicode="&#x203a;" horiz-adv-x="548" 
d="M320 620q33 0 64 -58q42 -80 85.5 -126t58.5 -46q13 0 22.5 -15t9.5 -31q0 -26 -30 -44q-41 -24 -95.5 -65t-99 -76t-49.5 -49q-9 -17 -48.5 -45t-58.5 -28q-13 0 -28 12t-15 31q0 34 58 72q81 54 152.5 116t71.5 81q0 7 -30 46q-68 86 -96 124t-28 63q0 14 18.5 26
t37.5 12z" />
    <glyph glyph-name="fi" unicode="&#xf001;" horiz-adv-x="856" 
d="M122 552q0 24 41 45t71 21q14 0 20 22q109 310 259.5 424t248.5 114q52 0 78 -20.5t26 -43.5q0 -26 -25 -45.5t-44 -19.5q-13 0 -41 7q-29 8 -58 8q-58 0 -138 -75.5t-135.5 -210t-55.5 -152.5q0 -8 21 -8q93 0 166.5 7.5t87.5 16t34 32.5q21 28 54 28q22 0 46 -22
t24 -49q0 -23 -12 -35q-66 -66 -129 -254.5t-63 -215.5q0 -22 14 -22q34 0 81.5 24.5t154.5 102t214 185.5q14 15 24 15q14 0 14 -19q0 -51 -147.5 -183t-255 -189.5t-161.5 -57.5q-31 0 -54 20.5t-23 52.5q0 12 22 77l143 418q0 4 -1.5 5.5t-4.5 2t-7 -0.5l-9 -1
q-92 -22 -246 -22q-20 0 -26 -20l-96 -341q-87 -306 -139.5 -455t-138 -282t-104.5 -142.5t-38 -9.5t-46.5 36t-27.5 66q0 26 35.5 60t64.5 34l20 -3q19 0 51.5 44t81.5 181t111 381l113 433q0 12 -17 12q-78 0 -78 24z" />
    <glyph glyph-name="fl" unicode="&#xf002;" horiz-adv-x="870" 
d="M254 618q13 0 22 26q103 285 244.5 408.5t245.5 123.5q61 0 96 -30q5 -5 9 -5q6 0 15 13q15 22 30 22t37.5 -21t22.5 -46q0 -13 -6 -25q-109 -218 -226.5 -563.5t-117.5 -376.5q0 -28 32 -28t165 86.5t239 193.5q16 16 29 16t13 -23q0 -21 -16 -44.5t-93 -97.5
t-164.5 -136t-166 -95.5t-134.5 -33.5q-29 0 -45.5 24.5t-16.5 42.5q0 15 10 33q29 54 48 122l118 344q3 8 3 12q0 8 -10 8q-5 0 -13 -2q-37 -9 -127 -20.5t-119 -11.5q-28 0 -36 -29l-74 -255q-146 -504 -198.5 -675t-109.5 -227t-114 -56q-23 0 -58 25.5t-60 54.5
q-18 22 -48 36q-32 14 -32 60q0 27 16.5 47.5t41.5 20.5q21 0 42 -14t54 -84q24 -54 56 -54q31 0 70.5 95t66.5 198l130 463q104 360 104 373t-17 13q-86 0 -86 28q0 17 24 41.5t56 24.5zM819 1042q0 44 -65 44q-68 0 -156 -87t-145 -214.5t-57 -154.5q0 -10 20 -10
q92 0 164.5 8.5t82.5 12t16 10.5t45 114l67 187q28 79 28 90z" />
    <glyph glyph-name="daggerdbl" unicode="&#x2021;" horiz-adv-x="892" 
d="M736 264q101 0 123.5 -13t22.5 -35q0 -18 -24.5 -37t-43.5 -19q-6 0 -22 3q-81 13 -272 13q-18 0 -23.5 -5t-38 -114.5t-38.5 -146t-6 -96.5q0 -29 -32.5 -50.5t-53.5 -21.5t-36.5 19.5t-15.5 46.5q0 13 4 26q106 296 106 326q0 12 -20 16t-114 4l-73 -7q-19 0 -40 15
t-21 32q0 19 27 41.5t52 22.5q7 0 15 -2q66 -18 186 -18q19 0 25.5 9.5t51 148.5t44.5 150q0 10 -17 10q-110 0 -141 -3l-50 -6q-20 0 -54.5 22t-34.5 51q0 15 22 29.5t40 14.5q3 0 116 -18q36 -6 128 -6q19 0 25.5 10.5t30 84t23.5 86.5q0 11 -5 21q-6 12 -6 22
q0 29 42.5 60.5t69.5 31.5q15 0 26.5 -15t11.5 -35q0 -15 -6 -30l-38 -110q-38 -109 -38 -116q0 -10 24 -10h228q19 0 30.5 -17t11.5 -35q0 -23 -33 -41.5t-53 -18.5q-8 0 -25 9q-21 12 -46 14.5t-133 2.5q-30 0 -36 -8.5t-54.5 -147.5t-48.5 -149q0 -11 21 -11h186z" />
    <glyph glyph-name="periodcentered" unicode="&#x2219;" horiz-adv-x="304" 
d="M180 320q0 34 34 73t68 39q30 0 58 -28.5t28 -55.5q0 -34 -41 -66t-83 -32q-22 0 -43 23t-21 47z" />
    <glyph glyph-name="quotesinglbase" unicode="&#x201a;" horiz-adv-x="290" 
d="M78 56q0 32 29.5 63t60.5 31q34 0 54 -29t20 -69q0 -97 -78.5 -171.5t-145.5 -74.5q-40 0 -40 20q0 23 48 40q57 22 92.5 66.5t35.5 59.5q0 8 -14 8q-23 0 -42.5 16.5t-19.5 39.5z" />
    <glyph glyph-name="quotedblbase" unicode="&#x201e;" horiz-adv-x="520" 
d="M78 56q0 32 29.5 63t60.5 31q34 0 54 -29t20 -69q0 -100 -76.5 -173t-147.5 -73q-40 0 -40 20q0 23 48 40q57 22 92.5 66.5t35.5 59.5q0 8 -14 8q-23 0 -42.5 16.5t-19.5 39.5zM320 58q0 36 28 64t64 28q34 0 56 -32t22 -74q0 -52 -42.5 -112t-99 -91t-80.5 -31
q-30 0 -30 20q0 16 32 32q31 15 77.5 58t46.5 72q0 16 -28 20q-46 6 -46 46z" />
    <glyph glyph-name="perthousand" unicode="&#x2030;" horiz-adv-x="1812" 
d="M304 -46q0 33 46 83l366 404q320 356 390 431.5t100 75.5q28 0 45.5 -17t17.5 -35q0 -26 -29 -42q-93 -57 -397.5 -386.5t-334.5 -365t-30 -82.5q0 -28 -54 -77t-82 -49q-10 0 -24 20t-14 40zM258 588q0 58 63.5 158.5t162.5 133.5q22 8 42 26q28 38 50 38
q70 0 122 -66.5t52 -143.5q0 -129 -123 -207.5t-231 -78.5q-64 0 -101 37t-37 103zM650 720q0 104 -64 104q-74 0 -145 -78t-71 -150q0 -25 18.5 -42.5t47.5 -17.5q73 0 143.5 56.5t70.5 127.5zM826 142q0 100 97.5 213t192.5 113q80 0 148 -40.5t68 -123.5
q0 -44 -59.5 -133t-151.5 -141t-141 -52q-52 0 -103 44t-51 120zM1228 300q0 25 -25 53.5t-49 28.5q-86 0 -156 -88.5t-70 -135.5q0 -33 17.5 -55.5t46.5 -22.5q84 0 160 82t76 138zM1354 110q0 71 54 161.5t138.5 142.5t145.5 52q70 0 90 -60q4 -14 28 -42q20 -23 20 -68
q0 -61 -39 -134.5t-129.5 -128.5t-177.5 -55q-47 0 -88.5 33.5t-41.5 98.5zM1464 126q0 -54 56 -54q84 0 150 68t66 142q0 37 -21 63.5t-53 26.5q-59 0 -128.5 -85t-69.5 -161z" />
    <glyph glyph-name="Acircumflex" unicode="&#xc2;" horiz-adv-x="970" 
d="M72 16q0 32 37.5 90.5t178.5 229.5q10 12 10 30q0 21 21 47t45 31q17 3 27.5 13t80.5 100l138 176q127 163 152.5 189t51.5 26q14 0 31.5 -21.5t17.5 -38.5q0 -15 -13 -28q-27 -25 -36 -37.5t-9 -41.5q0 -60 6.5 -175.5t9 -124.5t13.5 -9q199 0 199 -26
q0 -14 -47.5 -29.5t-143.5 -24.5q-17 -2 -17 -13q0 -30 13 -120.5t22.5 -108.5t28.5 -18l35 5q20 0 20 -33q0 -37 -32.5 -73.5t-81.5 -36.5q-55 0 -77.5 93.5t-32.5 282.5q0 12 -24 12q-86 0 -183 -16t-120 -39.5t-81 -101.5t-58 -140l2 -31q0 -35 -54.5 -64.5t-83.5 -29.5
q-19 0 -32.5 17t-13.5 39zM539 463q4 0 9 1q42 6 144 6q14 0 17 3t3 15l-8 178q0 21 -7 21q-10 0 -90 -104.5t-80 -111.5q0 -8 12 -8zM611 1044q0 16 19 28q141 100 196 168q21 26 58 26q25 0 34 -34q9 -32 35 -80t49 -74q6 -6 6 -16q0 -14 -15 -27t-39 -13q-42 0 -94 108
q-4 7 -9 7q-6 0 -17 -11q-112 -112 -184 -112q-15 0 -27 9t-12 21z" />
    <glyph glyph-name="Ecircumflex" unicode="&#xca;" horiz-adv-x="824" 
d="M584 898h182q88 0 136 -24.5t48 -51.5q0 -15 -27 -15q-12 0 -29 3q-30 4 -144 4q-60 0 -130.5 -7.5t-80 -19t-46 -134t-36.5 -127.5q0 -7 7 -10t49.5 -6.5t130.5 -3.5q52 0 102 6l76 11q12 0 12 -8q0 -22 -67.5 -62.5t-320.5 -40.5q-20 0 -25.5 -9.5t-55.5 -145
t-50 -143.5q0 -10 9.5 -13.5t74 -8t139.5 -4.5q100 0 166.5 9t155.5 43q9 3 15 3q12 0 12 -9q0 -23 -118.5 -83.5t-356.5 -60.5q-294 0 -294 48q0 15 24.5 37.5t38.5 28t29 40.5t50.5 145t35.5 119q0 11 -14 20q-24 17 -24 44q0 13 22 22q44 18 51.5 28.5t39.5 117.5t32 118
q0 12 -15 24q-38 29 -38 43q0 11 24.5 23.5t39.5 17.5q16 4 24.5 16.5t21.5 49.5q9 28 26 28q25 0 54 -46q10 -16 44 -16zM530 1072q0 16 19 28q141 100 196 168q21 26 58 26q25 0 34 -34q9 -32 35 -80t49 -74q6 -6 6 -16q0 -14 -15 -27t-39 -13q-42 0 -94 108q-4 7 -9 7
q-6 0 -17 -11q-112 -112 -184 -112q-15 0 -27 9t-12 21z" />
    <glyph glyph-name="Aacute" unicode="&#xc1;" horiz-adv-x="970" 
d="M72 16q0 32 37.5 90.5t178.5 229.5q10 12 10 30q0 21 21 47t45 31q17 3 27.5 13t80.5 100l138 176q127 163 152.5 189t51.5 26q14 0 31.5 -21.5t17.5 -38.5q0 -15 -13 -28q-27 -25 -36 -37.5t-9 -41.5q0 -60 6.5 -175.5t9 -124.5t13.5 -9q199 0 199 -26
q0 -14 -47.5 -29.5t-143.5 -24.5q-17 -2 -17 -13q0 -30 13 -120.5t22.5 -108.5t28.5 -18l35 5q20 0 20 -33q0 -37 -32.5 -73.5t-81.5 -36.5q-55 0 -77.5 93.5t-32.5 282.5q0 12 -24 12q-86 0 -183 -16t-120 -39.5t-81 -101.5t-58 -140l2 -31q0 -35 -54.5 -64.5t-83.5 -29.5
q-19 0 -32.5 17t-13.5 39zM539 463q4 0 9 1q42 6 144 6q14 0 17 3t3 15l-8 178q0 21 -7 21q-10 0 -90 -104.5t-80 -111.5q0 -8 12 -8zM764 1030q-22 0 -22 12q0 20 24 44q90 85 146 154q34 40 60 40q27 0 49 -18.5t22 -40.5q0 -40 -119 -115.5t-160 -75.5z" />
    <glyph glyph-name="Edieresis" unicode="&#xcb;" horiz-adv-x="824" 
d="M584 898h182q88 0 136 -24.5t48 -51.5q0 -15 -27 -15q-12 0 -29 3q-30 4 -144 4q-60 0 -130.5 -7.5t-80 -19t-46 -134t-36.5 -127.5q0 -7 7 -10t49.5 -6.5t130.5 -3.5q52 0 102 6l76 11q12 0 12 -8q0 -22 -67.5 -62.5t-320.5 -40.5q-20 0 -25.5 -9.5t-55.5 -145
t-50 -143.5q0 -10 9.5 -13.5t74 -8t139.5 -4.5q100 0 166.5 9t155.5 43q9 3 15 3q12 0 12 -9q0 -23 -118.5 -83.5t-356.5 -60.5q-294 0 -294 48q0 15 24.5 37.5t38.5 28t29 40.5t50.5 145t35.5 119q0 11 -14 20q-24 17 -24 44q0 13 22 22q44 18 51.5 28.5t39.5 117.5t32 118
q0 12 -15 24q-38 29 -38 43q0 11 24.5 23.5t39.5 17.5q16 4 24.5 16.5t21.5 49.5q9 28 26 28q25 0 54 -46q10 -16 44 -16zM521 1106q0 74 84 74q70 0 70 -70q0 -28 -29 -57t-55 -29q-25 0 -47.5 26t-22.5 56zM759 1088q0 33 26 61.5t62 28.5q25 0 49.5 -24.5t24.5 -49.5
q0 -32 -33 -56t-69 -24q-20 0 -40 19t-20 45z" />
    <glyph glyph-name="Egrave" unicode="&#xc8;" horiz-adv-x="824" 
d="M584 898h182q88 0 136 -24.5t48 -51.5q0 -15 -27 -15q-12 0 -29 3q-30 4 -144 4q-60 0 -130.5 -7.5t-80 -19t-46 -134t-36.5 -127.5q0 -7 7 -10t49.5 -6.5t130.5 -3.5q52 0 102 6l76 11q12 0 12 -8q0 -22 -67.5 -62.5t-320.5 -40.5q-20 0 -25.5 -9.5t-55.5 -145
t-50 -143.5q0 -10 9.5 -13.5t74 -8t139.5 -4.5q100 0 166.5 9t155.5 43q9 3 15 3q12 0 12 -9q0 -23 -118.5 -83.5t-356.5 -60.5q-294 0 -294 48q0 15 24.5 37.5t38.5 28t29 40.5t50.5 145t35.5 119q0 11 -14 20q-24 17 -24 44q0 13 22 22q44 18 51.5 28.5t39.5 117.5t32 118
q0 12 -15 24q-38 29 -38 43q0 11 24.5 23.5t39.5 17.5q16 4 24.5 16.5t21.5 49.5q9 28 26 28q25 0 54 -46q10 -16 44 -16zM534 1211q0 22 15 41t46 19q33 0 54 -36q33 -57 76 -114q51 -71 51 -84q0 -17 -21 -17q-22 0 -121.5 75t-99.5 116z" />
    <glyph glyph-name="Iacute" unicode="&#xcd;" horiz-adv-x="572" 
d="M641 814q-15 0 -25 -14.5t-85 -186t-127.5 -315.5t-52.5 -181q0 -11 14 -11l146 4q74 0 74 -18q0 -22 -86 -47t-154 -25q-8 0 -25 -14q-27 -22 -49 -22q-14 0 -30 22q-12 14 -30 14q-24 0 -74 -20q-6 -3 -11 -3q-11 0 -24.5 14t-13.5 29q0 26 32.5 49t104.5 23
q13 0 18 18q38 182 228 654q4 9 4 13q0 9 -20 9q-30 0 -62 -4.5t-33 -4.5q-17 0 -26 13.5t-9 26.5q0 30 35.5 45.5t140.5 15.5q25 0 28 10q23 50 62 50q20 0 37.5 -16.5t20.5 -35.5q3 -17 18 -20q28 -3 81 -12.5t56 -15.5t3 -10q0 -14 -26 -24t-46 -10h-94zM585 1037
q-22 0 -22 12q0 20 24 44q90 85 146 154q34 40 60 40q27 0 49 -18.5t22 -40.5q0 -40 -119 -115.5t-160 -75.5z" />
    <glyph glyph-name="Icircumflex" unicode="&#xce;" horiz-adv-x="572" 
d="M641 814q-15 0 -25 -14.5t-85 -186t-127.5 -315.5t-52.5 -181q0 -11 14 -11l146 4q74 0 74 -18q0 -22 -86 -47t-154 -25q-8 0 -25 -14q-27 -22 -49 -22q-14 0 -30 22q-12 14 -30 14q-24 0 -74 -20q-6 -3 -11 -3q-11 0 -24.5 14t-13.5 29q0 26 32.5 49t104.5 23
q13 0 18 18q38 182 228 654q4 9 4 13q0 9 -20 9q-30 0 -62 -4.5t-33 -4.5q-17 0 -26 13.5t-9 26.5q0 30 35.5 45.5t140.5 15.5q25 0 28 10q23 50 62 50q20 0 37.5 -16.5t20.5 -35.5q3 -17 18 -20q28 -3 81 -12.5t56 -15.5t3 -10q0 -14 -26 -24t-46 -10h-94zM434 1047
q0 16 19 28q141 100 196 168q21 26 58 26q25 0 34 -34q9 -32 35 -80t49 -74q6 -6 6 -16q0 -14 -15 -27t-39 -13q-42 0 -94 108q-4 7 -9 7q-6 0 -17 -11q-112 -112 -184 -112q-15 0 -27 9t-12 21z" />
    <glyph glyph-name="Idieresis" unicode="&#xcf;" horiz-adv-x="572" 
d="M641 814q-15 0 -25 -14.5t-85 -186t-127.5 -315.5t-52.5 -181q0 -11 14 -11l146 4q74 0 74 -18q0 -22 -86 -47t-154 -25q-8 0 -25 -14q-27 -22 -49 -22q-14 0 -30 22q-12 14 -30 14q-24 0 -74 -20q-6 -3 -11 -3q-11 0 -24.5 14t-13.5 29q0 26 32.5 49t104.5 23
q13 0 18 18q38 182 228 654q4 9 4 13q0 9 -20 9q-30 0 -62 -4.5t-33 -4.5q-17 0 -26 13.5t-9 26.5q0 30 35.5 45.5t140.5 15.5q25 0 28 10q23 50 62 50q20 0 37.5 -16.5t20.5 -35.5q3 -17 18 -20q28 -3 81 -12.5t56 -15.5t3 -10q0 -14 -26 -24t-46 -10h-94zM464 1126
q0 74 84 74q70 0 70 -70q0 -28 -29 -57t-55 -29q-25 0 -47.5 26t-22.5 56zM702 1108q0 33 26 61.5t62 28.5q25 0 49.5 -24.5t24.5 -49.5q0 -32 -33 -56t-69 -24q-20 0 -40 19t-20 45z" />
    <glyph glyph-name="Igrave" unicode="&#xcc;" horiz-adv-x="572" 
d="M641 814q-15 0 -25 -14.5t-85 -186t-127.5 -315.5t-52.5 -181q0 -11 14 -11l146 4q74 0 74 -18q0 -22 -86 -47t-154 -25q-8 0 -25 -14q-27 -22 -49 -22q-14 0 -30 22q-12 14 -30 14q-24 0 -74 -20q-6 -3 -11 -3q-11 0 -24.5 14t-13.5 29q0 26 32.5 49t104.5 23
q13 0 18 18q38 182 228 654q4 9 4 13q0 9 -20 9q-30 0 -62 -4.5t-33 -4.5q-17 0 -26 13.5t-9 26.5q0 30 35.5 45.5t140.5 15.5q25 0 28 10q23 50 62 50q20 0 37.5 -16.5t20.5 -35.5q3 -17 18 -20q28 -3 81 -12.5t56 -15.5t3 -10q0 -14 -26 -24t-46 -10h-94zM458 1215
q0 22 15 41t46 19q33 0 54 -36q33 -57 76 -114q51 -71 51 -84q0 -17 -21 -17q-22 0 -121.5 75t-99.5 116z" />
    <glyph glyph-name="Oacute" unicode="&#xd3;" horiz-adv-x="910" 
d="M174 240q0 102 60.5 239t157 240t182.5 141t112 38q10 0 30 20q26 26 60 26q86 0 160 -64t74 -210q0 -160 -105.5 -334.5t-244 -264t-252.5 -89.5q-85 0 -159.5 63t-74.5 195zM756 756q-23 0 -30 22q-9 28 -44 28q-48 0 -138.5 -86.5t-166 -230.5t-75.5 -263
q0 -69 30.5 -110.5t85.5 -41.5q69 0 183.5 77t212.5 253.5t98 323.5q0 50 -29.5 83.5t-47.5 32.5q-8 0 -8 -7l2 -20q0 -26 -25.5 -43.5t-47.5 -17.5zM755 1030q-22 0 -22 12q0 20 24 44q90 85 146 154q34 40 60 40q27 0 49 -18.5t22 -40.5q0 -40 -119 -115.5t-160 -75.5z
" />
    <glyph glyph-name="Ocircumflex" unicode="&#xd4;" horiz-adv-x="910" 
d="M174 240q0 102 60.5 239t157 240t182.5 141t112 38q10 0 30 20q26 26 60 26q86 0 160 -64t74 -210q0 -160 -105.5 -334.5t-244 -264t-252.5 -89.5q-85 0 -159.5 63t-74.5 195zM756 756q-23 0 -30 22q-9 28 -44 28q-48 0 -138.5 -86.5t-166 -230.5t-75.5 -263
q0 -69 30.5 -110.5t85.5 -41.5q69 0 183.5 77t212.5 253.5t98 323.5q0 50 -29.5 83.5t-47.5 32.5q-8 0 -8 -7l2 -20q0 -26 -25.5 -43.5t-47.5 -17.5zM596 1048q0 16 19 28q141 100 196 168q21 26 58 26q25 0 34 -34q9 -32 35 -80t49 -74q6 -6 6 -16q0 -14 -15 -27t-39 -13
q-42 0 -94 108q-4 7 -9 7q-6 0 -17 -11q-112 -112 -184 -112q-15 0 -27 9t-12 21z" />
    <glyph glyph-name="apple" unicode="&#xf000;" horiz-adv-x="394" 
 />
    <glyph glyph-name="Ograve" unicode="&#xd2;" horiz-adv-x="910" 
d="M174 240q0 102 60.5 239t157 240t182.5 141t112 38q10 0 30 20q26 26 60 26q86 0 160 -64t74 -210q0 -160 -105.5 -334.5t-244 -264t-252.5 -89.5q-85 0 -159.5 63t-74.5 195zM756 756q-23 0 -30 22q-9 28 -44 28q-48 0 -138.5 -86.5t-166 -230.5t-75.5 -263
q0 -69 30.5 -110.5t85.5 -41.5q69 0 183.5 77t212.5 253.5t98 323.5q0 50 -29.5 83.5t-47.5 32.5q-8 0 -8 -7l2 -20q0 -26 -25.5 -43.5t-47.5 -17.5zM624 1224q0 22 15 41t46 19q33 0 54 -36q33 -57 76 -114q51 -71 51 -84q0 -17 -21 -17q-22 0 -121.5 75t-99.5 116z" />
    <glyph glyph-name="Uacute" unicode="&#xda;" horiz-adv-x="1068" 
d="M372 146q93 0 328.5 248.5t283.5 367.5q44 111 62.5 136.5t45.5 25.5q18 0 41.5 -29t23.5 -49q0 -23 -21 -56q-95 -159 -144 -354.5t-49 -261.5q0 -16 9 -16q8 0 24 10q46 29 98 48.5t69 19.5q14 0 14 -10q0 -13 -21 -26q-55 -36 -132 -108.5t-102 -105.5
q-17 -20 -32 -20q-71 0 -71 75q0 47 40 201l63 242q0 6 -5 6q-6 0 -17 -12q-418 -478 -598 -478q-80 0 -80 68q0 63 41 220t155 444q18 46 18 89l-3 36q0 16 12.5 28t50.5 35.5t58 23.5q15 0 28 -16t13 -39q0 -22 -11 -45q-89 -190 -155.5 -379t-66.5 -263q0 -56 30 -56z
M748 984q-22 0 -22 12q0 20 24 44q90 85 146 154q34 40 60 40q27 0 49 -18.5t22 -40.5q0 -40 -119 -115.5t-160 -75.5z" />
    <glyph glyph-name="Ucircumflex" unicode="&#xdb;" horiz-adv-x="1068" 
d="M372 146q93 0 328.5 248.5t283.5 367.5q44 111 62.5 136.5t45.5 25.5q18 0 41.5 -29t23.5 -49q0 -23 -21 -56q-95 -159 -144 -354.5t-49 -261.5q0 -16 9 -16q8 0 24 10q46 29 98 48.5t69 19.5q14 0 14 -10q0 -13 -21 -26q-55 -36 -132 -108.5t-102 -105.5
q-17 -20 -32 -20q-71 0 -71 75q0 47 40 201l63 242q0 6 -5 6q-6 0 -17 -12q-418 -478 -598 -478q-80 0 -80 68q0 63 41 220t155 444q18 46 18 89l-3 36q0 16 12.5 28t50.5 35.5t58 23.5q15 0 28 -16t13 -39q0 -22 -11 -45q-89 -190 -155.5 -379t-66.5 -263q0 -56 30 -56z
M632 1044q0 16 19 28q141 100 196 168q21 26 58 26q25 0 34 -34q9 -32 35 -80t49 -74q6 -6 6 -16q0 -14 -15 -27t-39 -13q-42 0 -94 108q-4 7 -9 7q-6 0 -17 -11q-112 -112 -184 -112q-15 0 -27 9t-12 21z" />
    <glyph glyph-name="Ugrave" unicode="&#xd9;" horiz-adv-x="1068" 
d="M372 146q93 0 328.5 248.5t283.5 367.5q44 111 62.5 136.5t45.5 25.5q18 0 41.5 -29t23.5 -49q0 -23 -21 -56q-95 -159 -144 -354.5t-49 -261.5q0 -16 9 -16q8 0 24 10q46 29 98 48.5t69 19.5q14 0 14 -10q0 -13 -21 -26q-55 -36 -132 -108.5t-102 -105.5
q-17 -20 -32 -20q-71 0 -71 75q0 47 40 201l63 242q0 6 -5 6q-6 0 -17 -12q-418 -478 -598 -478q-80 0 -80 68q0 63 41 220t155 444q18 46 18 89l-3 36q0 16 12.5 28t50.5 35.5t58 23.5q15 0 28 -16t13 -39q0 -22 -11 -45q-89 -190 -155.5 -379t-66.5 -263q0 -56 30 -56z
M642 1184q0 22 15 41t46 19q33 0 54 -36q33 -57 76 -114q51 -71 51 -84q0 -17 -21 -17q-22 0 -121.5 75t-99.5 116z" />
    <glyph glyph-name="dotlessi" unicode="&#x131;" horiz-adv-x="468" 
d="M763 442q0 -51 -124 -185t-243.5 -207.5t-174.5 -73.5q-41 0 -73 45t-32 92q0 26 9 53q83 248 83 269q0 8 -3 17q-3 12 -3 22q0 51 78 140.5t112 89.5q14 0 25 -17.5t11 -38.5q0 -20 -11 -38q-66 -108 -127 -266.5t-61 -208.5q0 -45 38 -45q71 0 210 112.5t246 245.5
q14 17 25 17q15 0 15 -23z" />
    <glyph glyph-name="circumflex" unicode="&#x2c6;" 
d="M418 800q0 16 20 34q138 133 182 200q18 26 48 26q26 0 34 -38q8 -37 32.5 -96.5t39.5 -77.5q10 -12 10 -26q0 -38 -50 -38q-18 0 -33 16t-51 112q-4 11 -10 11t-16 -13q-60 -73 -99.5 -104.5t-72.5 -31.5q-8 0 -21 6t-13 20z" />
    <glyph glyph-name="tilde" unicode="&#x2dc;" 
d="M432 866q0 45 44 98.5t90 53.5q36 0 88 -56q47 -54 66 -54q30 0 50 78q9 30 34 30q37 0 37 -51q0 -58 -42 -106.5t-87 -48.5q-18 0 -37.5 9.5t-64.5 54.5q-45 42 -56 42q-33 0 -52 -82q-6 -22 -32 -22q-38 0 -38 54z" />
    <glyph glyph-name="macron" unicode="&#x2c9;" 
d="M736 860h-192q-28 0 -40 -4t-28 -4q-13 0 -25.5 12.5t-12.5 23.5q0 33 24.5 48.5t77.5 15.5l154 -4q32 0 62 6q12 4 28 4q13 0 27.5 -15t14.5 -29q0 -20 -11 -35t-27 -21h-27q-16 2 -25 2z" />
    <glyph glyph-name="breve" unicode="&#x2d8;" 
d="M824 995q0 -48 -60.5 -113.5t-156.5 -65.5q-90 0 -114.5 58.5t-24.5 95.5q0 24 15 41t38 17q44 0 44 -52q-4 -28 -4 -36q0 -16 21.5 -29t46.5 -13q38 0 71 29t51 69q16 32 48 32q25 0 25 -33z" />
    <glyph glyph-name="dotaccent" unicode="&#x2d9;" horiz-adv-x="558" 
d="M604 904q0 -36 -25.5 -64t-60.5 -28q-27 0 -49.5 28.5t-22.5 55.5q0 32 24.5 55t59.5 23q36 0 55 -22t19 -48z" />
    <glyph glyph-name="ring" unicode="&#x2da;" 
d="M488 932q0 59 55 113.5t113 54.5q70 0 109 -37t39 -105q0 -58 -65 -112t-125 -54q-48 0 -87 45t-39 95zM728 952q0 32 -23 51t-59 19q-25 0 -51.5 -21.5t-26.5 -52.5t18 -54.5t48 -23.5q37 0 65.5 26t28.5 56z" />
    <glyph glyph-name="cedilla" unicode="&#xb8;" 
d="M268 -162q0 43 56 112.5t96 69.5q16 0 16 -14t-16 -34q-50 -61 -50 -88q0 -25 56 -70q30 -23 30 -76q0 -42 -43 -84t-81.5 -48.5t-97.5 -6.5l-43 -6q-20 0 -39.5 16t-19.5 39q0 22 31.5 48t52.5 26q25 0 44 -34q8 -14 34 -14q17 0 39.5 12.5t22.5 31.5q0 22 -50 62
q-38 31 -38 58z" />
    <glyph glyph-name="hungarumlaut" unicode="&#x2dd;" 
d="M390 806q0 11 77.5 111.5t97.5 127.5t51 27q20 0 39.5 -11.5t19.5 -22.5q0 -29 -113 -137.5t-156 -108.5q-16 0 -16 14zM588 780q0 10 65 87q106 126 121 153q7 14 34.5 26t53.5 12q37 0 37 -28q0 -36 -126 -149t-171 -113q-14 0 -14 12z" />
    <glyph glyph-name="ogonek" unicode="&#x2db;" 
d="M108 -296q0 60 64 140.5t137 134t91 53.5q6 0 15.5 -7t9.5 -15q0 -10 -23 -22q-25 -14 -105.5 -108.5t-80.5 -149.5q0 -42 32 -42q58 0 78 40q10 23 38.5 45.5t53.5 22.5q16 0 28 -14t12 -34q0 -40 -84 -90t-142 -50q-49 0 -86.5 25.5t-37.5 70.5z" />
    <glyph glyph-name="caron" unicode="&#x2c7;" 
d="M833 1039q0 -22 -25 -47q-117 -113 -160 -174q-22 -32 -54 -32q-28 0 -38 44q-30 115 -68 166q-10 14 -10 26q0 9 18 23.5t32 14.5q23 0 41 -22t45 -104q5 -18 13 -18q4 0 41 42q69 78 90.5 96.5t41.5 18.5q33 0 33 -34z" />
    <glyph glyph-name="Lslash" unicode="&#x141;" horiz-adv-x="874" 
d="M377 842q0 31 62 40q64 14 88 44q19 22 44 22q27 0 50 -27t23 -46q0 -16 -19 -41q-22 -31 -35 -73l-40 -120q-27 -80 -27 -86q0 -4 3 -4q4 0 13 5l107 56q41 21 55 21t30 -7.5t16 -19.5q0 -14 -15.5 -32t-34.5 -26q-132 -56 -199 -95q-15 -8 -21 -24l-100 -240
q-20 -49 -20 -55q0 -13 27 -25.5t112.5 -29.5t154.5 -17q134 0 246 70q16 10 24 10q7 0 7 -7q0 -36 -97 -101.5t-240 -65.5q-113 0 -228 28q-17 4 -31 4q-31 0 -59 -18q-14 -8 -27 -8q-27 0 -35 32q-7 30 -20 46q-8 10 -8 24q0 23 18.5 43.5t35.5 20.5q13 0 25 18.5
t49 116.5t37 108q0 6 -4 6q-9 0 -60 -34t-65 -53q-11 -16 -26 -16q-39 0 -39 42q0 22 24 44.5t103 65.5q95 51 105 62t46 138t36 146q0 12 -13 14q-78 15 -78 44z" />
    <glyph glyph-name="lslash" unicode="&#x142;" horiz-adv-x="524" 
d="M273 146q0 -56 36 -56q47 0 197.5 121.5t200.5 176.5q13 13 22 13q11 0 11 -17q0 -58 -195.5 -230t-309.5 -172q-32 0 -53 35.5t-21 86.5q0 87 108 386q2 5 2 9t-4 4t-12 -5q-46 -24 -84 -24q-25 0 -41 8.5t-16 16.5q0 15 104 68q77 40 87.5 47.5t17.5 23.5
q40 105 93 220t96.5 190.5t55 85.5t25.5 10q18 0 34.5 -23.5t16.5 -44.5q0 -23 -29 -74q-147 -262 -147 -290q0 -4 3 -4q2 0 6 2q164 82 200 82q17 0 28.5 -6.5t11.5 -13.5q0 -15 -15.5 -25.5t-119.5 -67.5q-149 -80 -160 -88.5t-13 -12.5l-49 -128q-48 -124 -67.5 -193.5
t-19.5 -110.5z" />
    <glyph glyph-name="Scaron" unicode="&#x160;" horiz-adv-x="592" 
d="M328 578q0 84 68.5 166.5t190 140t177.5 57.5q58 0 58 -53q0 -26 -25.5 -53.5t-64.5 -27.5l-79 3q-77 0 -140 -54.5t-63 -134.5q0 -72 46 -198q48 -131 48 -216q0 -61 -40 -116t-119.5 -82.5t-158.5 -27.5q-164 0 -164 72q0 31 23.5 49t45.5 18q15 0 27 -9
q68 -44 124 -44q57 0 99.5 38t42.5 100q0 68 -52 200q-44 111 -44 172zM910 1237q0 -9 -17 -31q-145 -111 -186 -154q-28 -28 -58 -28t-44 38q-30 93 -76 142q-9 12 -9 20q0 10 19.5 25t35.5 15q27 0 48.5 -25t47.5 -77q7 -16 14 -16q4 0 12 8q139 119 183 119q30 0 30 -36z
" />
    <glyph glyph-name="scaron" unicode="&#x161;" horiz-adv-x="472" 
d="M194 416q0 61 56 136t129 111.5t131 36.5q55 0 81.5 -19.5t26.5 -40.5q0 -38 -64 -38q-86 0 -167 -55t-81 -113q0 -51 50 -120q74 -99 74 -170q0 -78 -100 -134t-154 -56q-31 0 -57.5 17t-26.5 35q0 26 39 57t59 31q7 0 24 -6q22 -10 43 -10q30 0 47.5 14.5t17.5 29.5
q0 39 -38 98q-90 132 -90 196zM692 1028q0 -22 -25 -47q-117 -113 -160 -174q-22 -32 -54 -32q-28 0 -38 44q-30 115 -68 166q-10 14 -10 26q0 9 18 23.5t32 14.5q23 0 41 -22t45 -104q5 -18 13 -18q4 0 41 42q69 78 90.5 96.5t41.5 18.5q33 0 33 -34z" />
    <glyph glyph-name="Zcaron" unicode="&#x17d;" horiz-adv-x="1082" 
d="M243 690q0 80 65.5 155t155.5 75q92 0 182 -16q226 -42 290 -42q39 0 60 24q48 52 62 52q42 0 42 -66q0 -37 -19 -70.5t-37 -33.5q-19 0 -48 -36q-259 -289 -564 -560q-17 -14 -17 -24q0 -8 11 -10q66 -10 218 -52q154 -42 236 -42q112 0 124 96q2 24 22 40.5t38 16.5
q25 0 45.5 -25.5t20.5 -45.5q0 -51 -107 -113.5t-213 -62.5q-77 0 -300 56q-177 44 -201 44q-42 0 -75 -48q-11 -16 -32 -16q-13 0 -31.5 20.5t-18.5 46.5q0 33 34 62t54 31q46 6 345 301t299 320q0 4 -3.5 6t-53 6t-172 20.5t-193.5 16.5q-48 0 -89 -19t-89 -87
q-27 -38 -32 -38q-9 0 -9 18zM960 1223q0 -9 -17 -31q-145 -111 -186 -154q-28 -28 -58 -28t-44 38q-30 93 -76 142q-9 12 -9 20q0 10 19.5 25t35.5 15q27 0 48.5 -25t47.5 -77q7 -16 14 -16q4 0 12 8q139 119 183 119q30 0 30 -36z" />
    <glyph glyph-name="zcaron" unicode="&#x17e;" horiz-adv-x="820" 
d="M415 206q0 -21 96 -72.5t163 -51.5q165 0 286 194q10 15 20 15q12 0 12 -15q0 -25 -53 -106t-128.5 -132.5t-158.5 -51.5q-46 0 -103.5 18.5t-210.5 107.5q-11 6 -19 6q-11 0 -27 -16q-88 -88 -106.5 -101.5t-32.5 -13.5q-17 0 -25 14t-8 23q0 40 82 130q10 10 10 40
q0 35 19.5 59.5t40.5 24.5q19 0 40 -18q5 -4 10 -4q7 0 43 39l196 209q40 42 40 48q0 5 -6 7t-107.5 10.5t-109.5 8.5q-57 0 -57 -72q0 -31 15 -68q3 -7 3 -13q0 -10 -11 -10q-24 0 -63.5 52t-39.5 86t46 76.5t91 42.5q24 0 172 -18q70 -10 126 -10q33 0 52 14q24 16 44 16
q27 0 58.5 -19.5t31.5 -46.5q0 -15 -11.5 -37.5t-30.5 -22.5l-36 2q-41 0 -115 -79l-156 -163q-82 -85 -82 -102zM762 979q0 -22 -25 -47q-117 -113 -160 -174q-22 -32 -54 -32q-28 0 -38 44q-30 115 -68 166q-10 14 -10 26q0 9 18 23.5t32 14.5q23 0 41 -22t45 -104
q5 -18 13 -18q4 0 41 42q69 78 90.5 96.5t41.5 18.5q33 0 33 -34z" />
    <glyph glyph-name="brokenbar" unicode="&#xa6;" horiz-adv-x="364" 
d="M252 1350h98v-700h-98v700zM252 -350v700h98v-700h-98z" />
    <glyph glyph-name="Eth" unicode="&#xd0;" horiz-adv-x="1028" 
d="M693 908q0 -4 11 -4q180 -7 292 -96t112 -210q0 -154 -134.5 -317.5t-275 -231t-266.5 -67.5q-46 0 -86 52.5t-40 105.5q0 41 82 280q4 13 4 18q0 8 -12 8q-57 0 -79 -4l-40 -7q-16 0 -32.5 18.5t-16.5 32.5q0 21 20 37.5t42 16.5q12 0 37 -4q49 -8 93 -8q15 0 19.5 4.5
t28.5 72.5l47 131q22 63 22 67q0 9 -13 9q-58 0 -166 -62q-4 -2 -9 -2q-11 0 -21 12.5t-10 27.5q0 54 99.5 85t142.5 31q13 0 24 20q44 84 90 84q22 0 37 -14t15 -33q0 -20 -14 -45q-3 -6 -3 -8zM526 444q-10 0 -14.5 -4.5t-28 -75t-34.5 -121t-11 -81.5q0 -41 24.5 -66.5
t65.5 -25.5q68 0 187 84.5t200 207t81 238.5q0 70 -40 118.5t-115.5 73t-170.5 24.5q-21 0 -27.5 -9.5t-52.5 -133.5t-46 -139q0 -10 18 -10q159 0 195.5 -10.5t36.5 -31.5q0 -24 -51.5 -43t-80.5 -19q-19 0 -34 10q-21 14 -52 14h-50z" />
    <glyph glyph-name="eth" unicode="&#xf0;" horiz-adv-x="658" 
d="M282 1196q0 16 28.5 40t55.5 24q77 0 154 -52.5t128 -131.5q5 -8 12 -8q4 0 130 68q41 24 60 24q30 0 30 -28q0 -20 -17.5 -45t-39.5 -36l-47 -22q-59 -27 -66.5 -33t-7.5 -15q0 -4 2 -9q42 -130 42 -294q0 -112 -52.5 -270t-181.5 -292t-250 -134q-54 0 -94 52t-40 122
q0 62 40 166t115 188.5t165.5 133t129.5 48.5q24 0 42 -18q12 -12 17 -12q9 0 9 60q0 58 -15.5 138t-31.5 80q-6 0 -84 -43t-135 -85q-16 -12 -28 -12q-19 0 -19 24q0 48 37.5 82t181.5 106q8 4 8 10q0 23 -69.5 92t-150.5 69l-40 -4q-18 0 -18 17zM240 150q0 -33 14 -57.5
t36 -24.5q27 0 79.5 31.5t117 124.5t104.5 205t40 139q0 8 -7 8t-32 10q-14 6 -31 6q-64 0 -144 -83.5t-128.5 -190.5t-48.5 -168z" />
    <glyph glyph-name="Yacute" unicode="&#xdd;" horiz-adv-x="862" 
d="M981 948q32 0 60 -29.5t28 -62.5q0 -47 -74 -102q-88 -63 -198.5 -153.5t-158 -141t-68.5 -92.5t-39.5 -134t-18.5 -109q0 -16 19 -20q140 -24 140 -54q0 -28 -102 -32q-116 -5 -144 -36q-16 -16 -40 -16q-27 0 -55 16t-28 40q0 36 53 62q28 14 34 33l31 122
q25 103 25 155q0 32 -9.5 68.5t-54.5 164.5q-45 130 -57 168t-12 63q0 44 33 70t78 26q26 0 26 -30l-4 -46q0 -75 38 -219t56 -144q5 0 16 9q35 32 180 138q99 72 131.5 98.5t51 59t21.5 82.5q2 20 14 33t28 13zM635 968q-22 0 -22 12q0 20 24 44q90 85 146 154q34 40 60 40
q27 0 49 -18.5t22 -40.5q0 -40 -119 -115.5t-160 -75.5z" />
    <glyph glyph-name="yacute" unicode="&#xfd;" horiz-adv-x="576" 
d="M154 168l14 333l-9 72q0 36 37 86.5t53 50.5q39 0 39 -126q0 -43 -16 -197q-16 -150 -16 -178q0 -79 37 -79q21 0 56 35.5t85.5 110.5t82.5 135t35 74t3 43q-2 9 -2 18q0 22 34.5 86t44.5 76t31 12q15 0 32.5 -26t17.5 -52q0 -73 -102 -256.5t-180 -279.5
q-176 -217 -281.5 -356.5t-115 -155t-9.5 -19.5t6 -5q32 -10 32 -32q0 -23 -43.5 -55.5t-98.5 -58.5q-41 -19 -62 -52q-46 -72 -86 -72q-45 0 -45 38t51.5 107.5t91.5 84.5q23 10 32 28q10 22 50.5 82.5t83.5 113.5l163 213q30 39 46 59l9 12q1 2 0 3l-1 1l-7 -2
q-24 -8 -42 -8q-51 0 -51 136zM382 741q-18 0 -18 12q0 18 20 36q84 76 190 208q31 40 60 40q24 0 45.5 -17.5t21.5 -35.5q0 -12 -11.5 -29t-82 -75t-117.5 -88t-72 -40.5t-36 -10.5z" />
    <glyph glyph-name="Thorn" unicode="&#xde;" horiz-adv-x="784" 
d="M591 755q0 -5 15 -5q128 0 201 -48t73 -162q0 -64 -69 -144t-151.5 -113t-115.5 -33q-93 0 -122 50q-5 9 -10 9t-38.5 -88.5t-33.5 -108.5q0 -30 50 -30q84 0 132 12q10 3 18 3q15 0 15 -11q0 -33 -89.5 -70.5t-169.5 -37.5q-42 0 -78 22.5t-36 49.5q0 14 52 40
q13 7 16 32q15 101 84 290q89 230 89 237q0 5 -4 5q-8 0 -43.5 -17t-57.5 -43q-14 -16 -28 -16t-29 12.5t-15 29.5q0 22 17.5 40t78 44t106.5 34q17 2 21.5 10.5t23 58.5t18.5 54q0 9 -15 9q-22 0 -53 9.5t-31 24.5q0 20 38 26q92 16 130 42q21 14 32 14q21 0 36.5 -24
t15.5 -42q0 -13 -10 -26q-16 -19 -39.5 -75t-23.5 -64zM562 336q60 0 130 62.5t70 149.5q0 49 -40 82.5t-106 33.5q-58 0 -71 -20.5t-59 -137t-46 -125.5q0 -3 6 -3q16 4 26 4q7 0 22 -14q37 -32 68 -32z" />
    <glyph glyph-name="thorn" unicode="&#xfe;" horiz-adv-x="774" 
d="M321 477q3 0 9 7q59 64 159.5 137t142.5 73q34 0 58 -50.5t24 -91.5q0 -105 -76 -228q-9 -14 -9 -20q0 -7 9 -7q36 0 206.5 83t219.5 128q10 8 16 8q9 0 9 -12q0 -39 -122 -122t-355 -179q-143 -59 -312 -181q-46 -34 -61 -40.5t-34 -6.5q-16 0 -25 7q-5 4 -8 4
q-9 0 -17 -22l-77 -208q-70 -186 -70 -213t32 -27q74 0 138 40q8 5 14 5q11 0 11 -12q0 -22 -53 -71t-124.5 -73.5t-99.5 -24.5q-20 0 -35 23.5t-15 51.5q0 15 33 105q101 273 180 520l280 870q34 105 34 110q0 7 -6 7q-10 0 -49.5 -23.5t-51.5 -35.5q-8 -5 -16 -5
q-14 0 -31 15.5t-17 34.5q0 20 18.5 43.5t41.5 25.5q13 1 79.5 23.5t74.5 32t14 26.5q13 38 42 38q27 0 49.5 -22t22.5 -49q0 -21 -16 -35q-35 -32 -42.5 -45t-66.5 -196l-95 -293q-36 -111 -36 -119q0 -6 3 -6zM606 496q0 78 -34 78q-46 0 -151 -106.5t-160 -226
t-55 -146.5q0 -13 8 -13q6 0 14 8q22 20 154 98q98 57 161 145t63 163z" />
    <glyph glyph-name="minus" unicode="&#x2212;" horiz-adv-x="1104" 
d="M939 338h-435q-28 0 -58 -4q-16 -2 -24 -2l-46 -2q-24 0 -44 18.5t-20 45.5q0 44 134 44l404 -8q91 0 134 8q51 8 56 8q28 0 49 -13.5t21 -34.5q0 -29 -24.5 -46.5t-63.5 -17.5z" />
    <glyph glyph-name="multiply" unicode="&#xd7;" horiz-adv-x="1104" 
d="M691 418q13 0 177 144q90 79 107.5 91.5t36.5 12.5q18 0 39 -17t21 -33q0 -24 -70 -72l-148 -116q-78 -62 -85.5 -70t-7.5 -16q0 -7 6 -13l86 -88q79 -81 139 -135q30 -30 30 -50q0 -14 -23 -32t-39 -18q-28 0 -72 54q-33 39 -111.5 121.5t-82.5 86t-12 3.5
q-19 0 -157 -141q-121 -124 -139 -124q-21 0 -40.5 15t-19.5 33t26 42l210 195q38 35 41.5 39.5t3.5 10.5q0 9 -39 52.5t-115 124.5q-54 57 -64 71.5t-10 32.5q0 17 13.5 35.5t35.5 18.5t47.5 -24t63.5 -70q134 -164 152 -164z" />
    <glyph glyph-name="middot" unicode="&#xb7;" horiz-adv-x="304" 
d="M180 320q0 34 34 73t68 39q30 0 58 -28.5t28 -55.5q0 -34 -41 -66t-83 -32q-22 0 -43 23t-21 47z" />
    <glyph glyph-name="onesuperior" unicode="&#xb9;" horiz-adv-x="578" 
d="M326 773q0 10 19 19q250 115 266 126q41 26 52 26q20 0 36.5 -17.5t16.5 -35.5q0 -15 -11 -35q-126 -240 -126 -324l6 -46q0 -32 -37.5 -56t-66.5 -24q-30 0 -30 43q0 31 42 154t74 189q3 6 3 10q0 6 -7 6q-5 0 -14 -4q-70 -30 -100.5 -40t-67.5 -10q-55 0 -55 19z" />
    <glyph glyph-name="twosuperior" unicode="&#xb2;" horiz-adv-x="578" 
d="M558 500h78q76 0 76 -36q0 -18 -37.5 -45.5t-61.5 -27.5q-16 0 -25 9q-20 20 -176 20l-165 -6q-33 0 -33 24q0 25 86 82q47 22 152.5 123t105.5 149q0 21 -14.5 36.5t-33.5 15.5q-44 0 -110 -76q-29 -32 -48 -32q-15 0 -24.5 12.5t-9.5 26.5q1 29 22 55.5t61.5 48
t75 42.5t67.5 21q46 0 89 -44.5t43 -93.5q0 -67 -206 -254q-21 -21 -21 -31q0 -19 109 -19z" />
    <glyph glyph-name="threesuperior" unicode="&#xb3;" horiz-adv-x="578" 
d="M501 919q11 0 23 3q40 8 64 8q56 0 89 -31.5t33 -66.5q0 -58 -116 -116q-14 -8 -14 -14q0 -3 4 -6q98 -58 98 -128q0 -79 -85 -127.5t-175 -48.5q-48 0 -96.5 19.5t-64 37.5t-15.5 45q0 13 14.5 31.5t28.5 18.5q15 0 31 -16q18 -17 58.5 -31.5t75.5 -14.5q48 0 82 24
t34 50q0 29 -33 55t-75 27q-26 0 -48 13t-22 26q0 26 104 69q92 41 92 72q0 16 -15.5 28t-40.5 12q-23 0 -50 -18q-33 -26 -62 -26q-19 0 -35.5 16.5t-16.5 31.5q0 16 29 43.5t54 27.5q12 0 23 -7q9 -7 27 -7z" />
    <glyph glyph-name="onehalf" unicode="&#xbd;" horiz-adv-x="1440" 
d="M304 773q0 10 19 19q250 115 266 126q41 26 52 26q20 0 36.5 -17.5t16.5 -35.5q0 -15 -11 -35q-126 -240 -126 -324l6 -46q0 -32 -37.5 -56t-66.5 -24q-30 0 -30 43q0 31 42 154t74 189q3 6 3 10q0 6 -7 6q-5 0 -14 -4q-70 -30 -100.5 -40t-67.5 -10q-55 0 -55 19z
M286 12q0 58 192 224q92 77 291 263t411 417q29 32 50 32q15 0 42.5 -16t27.5 -32q0 -23 -24 -42l-266 -251q-125 -118 -303 -275t-204.5 -191.5t-28.5 -54.5q-5 -49 -18 -63.5t-36 -14.5q-5 0 -58 -46q-7 -7 -17 -7q-16 0 -37.5 15.5t-21.5 41.5zM1192 76h78q76 0 76 -36
q0 -18 -37.5 -45.5t-61.5 -27.5q-16 0 -25 9q-20 20 -176 20l-165 -6q-33 0 -33 24q0 25 86 82q47 22 152.5 123t105.5 149q0 21 -14.5 36.5t-33.5 15.5q-44 0 -110 -76q-29 -32 -48 -32q-15 0 -24.5 12.5t-9.5 26.5q1 29 22 55.5t61.5 48t75 42.5t67.5 21q46 0 89 -44.5
t43 -93.5q0 -67 -206 -254q-21 -21 -21 -31q0 -19 109 -19z" />
    <glyph glyph-name="onequarter" unicode="&#xbc;" horiz-adv-x="1440" 
d="M318 773q0 10 19 19q250 115 266 126q41 26 52 26q20 0 36.5 -17.5t16.5 -35.5q0 -15 -11 -35q-126 -240 -126 -324l6 -46q0 -32 -37.5 -56t-66.5 -24q-30 0 -30 43q0 31 42 154t74 189q3 6 3 10q0 6 -7 6q-5 0 -14 -4q-70 -30 -100.5 -40t-67.5 -10q-55 0 -55 19z
M373 21q0 20 22 45l430 452l360 386q25 24 52 24q17 0 33.5 -24t16.5 -46q0 -25 -20 -32q-37 -16 -100 -77l-175 -173l-246 -249q-135 -135 -146 -152t-17 -47q-4 -20 -61.5 -94t-100.5 -74q-21 0 -34.5 23t-13.5 38zM1233 3q0 -17 -40 -60t-72 -43q-28 0 -28 48
q0 31 32 142q3 9 3 14q0 12 -15 12q-28 0 -115.5 9t-107.5 40t-20 47q0 26 53 54l179 107q85 51 101.5 63.5t19.5 31.5q4 26 23 26q7 0 15 -4q14 -12 30 -12q15 0 30 10q8 6 15 6q11 0 19 -13t8 -27q0 -22 -18 -36q-30 -24 -38.5 -40t-30.5 -92.5t-22 -81.5q0 -12 23 -12
q85 0 98 20q5 9 13 9q10 0 31 -16t21 -36q0 -26 -29 -39.5t-162 -13.5q-24 0 -32 -31.5t-8 -34.5q0 -16 20 -36q4 -5 4 -11zM995 218q0 -13 44.5 -19.5t79.5 -6.5q22 0 29.5 7.5t28 69.5t20.5 71q0 7 -6 7q-9 0 -102.5 -58t-93.5 -71z" />
    <glyph glyph-name="threequarters" unicode="&#xbe;" horiz-adv-x="1440" 
d="M473 919q11 0 23 3q40 8 64 8q56 0 89 -31.5t33 -66.5q0 -58 -116 -116q-14 -8 -14 -14q0 -3 4 -6q98 -58 98 -128q0 -79 -85 -127.5t-175 -48.5q-48 0 -96.5 19.5t-64 37.5t-15.5 45q0 13 14.5 31.5t28.5 18.5q15 0 31 -16q18 -17 58.5 -31.5t75.5 -14.5q48 0 82 24
t34 50q0 29 -33 55t-75 27q-26 0 -48 13t-22 26q0 26 104 69q92 41 92 72q0 16 -15.5 28t-40.5 12q-23 0 -50 -18q-33 -26 -62 -26q-19 0 -35.5 16.5t-16.5 31.5q0 16 29 43.5t54 27.5q12 0 23 -7q9 -7 27 -7zM392 -18q0 40 70 127t112.5 143.5t297.5 321t311.5 315.5
t94.5 51q5 0 30.5 -29.5t25.5 -53.5t-17.5 -40.5t-35.5 -16.5q-6 0 -11 2q-7 3 -14 3q-24 0 -78 -46t-293.5 -292t-256.5 -269t-17 -43q0 -14 7 -21q8 -9 8 -20q0 -16 -16 -28q-46 -34 -94 -80q-65 -60 -100 -60q-24 0 -24 36zM1225 3q0 -17 -40 -60t-72 -43q-28 0 -28 48
q0 31 32 142q3 9 3 14q0 12 -15 12q-28 0 -115.5 9t-107.5 40t-20 47q0 26 53 54l179 107q85 51 101.5 63.5t19.5 31.5q4 26 23 26q7 0 15 -4q14 -12 30 -12q15 0 30 10q8 6 15 6q11 0 19 -13t8 -27q0 -22 -18 -36q-30 -24 -38.5 -40t-30.5 -92.5t-22 -81.5q0 -12 23 -12
q85 0 98 20q5 9 13 9q10 0 31 -16t21 -36q0 -26 -29 -39.5t-162 -13.5q-24 0 -32 -31.5t-8 -34.5q0 -16 20 -36q4 -5 4 -11zM987 218q0 -13 44.5 -19.5t79.5 -6.5q22 0 29.5 7.5t28 69.5t20.5 71q0 7 -6 7q-9 0 -102.5 -58t-93.5 -71z" />
    <glyph glyph-name="hyphen" unicode="&#xad;" horiz-adv-x="528" 
d="M548 432q28 0 28 -18q0 -26 -26.5 -53.5t-93.5 -46.5l-164 -46q-96 -27 -102 -27q-24 0 -24 19q0 21 20 48t51 41t163.5 48.5t147.5 34.5z" />
    <glyph glyph-name="overscore" unicode="&#xaf;" horiz-adv-x="1000" 
d="M1486 1192v-100h-1000v100h1000z" />
    <glyph glyph-name="foursuperior" unicode="&#xf003;" horiz-adv-x="578" 
d="M653 487q0 -17 -40 -60t-72 -43q-28 0 -28 48q0 31 32 142q3 9 3 14q0 12 -15 12q-28 0 -115.5 9t-107.5 40t-20 47q0 26 53 54l179 107q85 51 101.5 63.5t19.5 31.5q4 26 23 26q7 0 15 -4q14 -12 30 -12q15 0 30 10q8 6 15 6q11 0 19 -13t8 -27q0 -22 -18 -36
q-30 -24 -38.5 -40t-30.5 -92.5t-22 -81.5q0 -12 23 -12q85 0 98 20q5 9 13 9q10 0 31 -16t21 -36q0 -26 -29 -39.5t-162 -13.5q-24 0 -32 -31.5t-8 -34.5q0 -16 20 -36q4 -5 4 -11zM415 702q0 -13 44.5 -19.5t79.5 -6.5q22 0 29.5 7.5t28 69.5t20.5 71q0 7 -6 7
q-9 0 -102.5 -58t-93.5 -71z" />
    <glyph glyph-name="pi1" unicode="&#xf006;" horiz-adv-x="1124" 
d="M1085 309q-5 -155 -75.5 -248.5t-167.5 -93.5q-79 0 -138.5 91.5t-59.5 281.5q0 42 2 80t5 72l35 329h-231q-60 -624 -98.5 -742.5t-130.5 -118.5q-39 0 -74 31t-35 82q0 46 72.5 128.5t80.5 150.5l60 469h-97q-40 0 -78.5 -19.5t-56.5 -45.5l-43 -64h-35
q49 152 120.5 228.5t164.5 76.5h764v-176h-258q-12 -120 -18.5 -240t-6.5 -241q0 -82 38 -133t95 -51q35 0 73.5 28.5t43.5 74.5q3 22 4.5 34.5t1.5 15.5h43z" />
    <glyph glyph-name="fi1" unicode="&#xfb01;" horiz-adv-x="856" 
d="M122 552q0 24 41 45t71 21q14 0 20 22q109 310 259.5 424t248.5 114q52 0 78 -20.5t26 -43.5q0 -26 -25 -45.5t-44 -19.5q-13 0 -41 7q-29 8 -58 8q-58 0 -138 -75.5t-135.5 -210t-55.5 -152.5q0 -8 21 -8q93 0 166.5 7.5t87.5 16t34 32.5q21 28 54 28q22 0 46 -22
t24 -49q0 -23 -12 -35q-66 -66 -129 -254.5t-63 -215.5q0 -22 14 -22q34 0 81.5 24.5t154.5 102t214 185.5q14 15 24 15q14 0 14 -19q0 -51 -147.5 -183t-255 -189.5t-161.5 -57.5q-31 0 -54 20.5t-23 52.5q0 12 22 77l143 418q0 4 -1.5 5.5t-4.5 2t-7 -0.5l-9 -1
q-92 -22 -246 -22q-20 0 -26 -20l-96 -341q-87 -306 -139.5 -455t-138 -282t-104.5 -142.5t-38 -9.5t-46.5 36t-27.5 66q0 26 35.5 60t64.5 34l20 -3q19 0 51.5 44t81.5 181t111 381l113 433q0 12 -17 12q-78 0 -78 24z" />
    <glyph glyph-name="fl1" unicode="&#xfb02;" horiz-adv-x="870" 
d="M254 618q13 0 22 26q103 285 244.5 408.5t245.5 123.5q61 0 96 -30q5 -5 9 -5q6 0 15 13q15 22 30 22t37.5 -21t22.5 -46q0 -13 -6 -25q-109 -218 -226.5 -563.5t-117.5 -376.5q0 -28 32 -28t165 86.5t239 193.5q16 16 29 16t13 -23q0 -21 -16 -44.5t-93 -97.5
t-164.5 -136t-166 -95.5t-134.5 -33.5q-29 0 -45.5 24.5t-16.5 42.5q0 15 10 33q29 54 48 122l118 344q3 8 3 12q0 8 -10 8q-5 0 -13 -2q-37 -9 -127 -20.5t-119 -11.5q-28 0 -36 -29l-74 -255q-146 -504 -198.5 -675t-109.5 -227t-114 -56q-23 0 -58 25.5t-60 54.5
q-18 22 -48 36q-32 14 -32 60q0 27 16.5 47.5t41.5 20.5q21 0 42 -14t54 -84q24 -54 56 -54q31 0 70.5 95t66.5 198l130 463q104 360 104 373t-17 13q-86 0 -86 28q0 17 24 41.5t56 24.5zM819 1042q0 44 -65 44q-68 0 -156 -87t-145 -214.5t-57 -154.5q0 -10 20 -10
q92 0 164.5 8.5t82.5 12t16 10.5t45 114l67 187q28 79 28 90z" />
    <glyph glyph-name="Gbreve" unicode="&#x11e;" horiz-adv-x="900" 
d="M330 -20q-51 0 -105.5 69.5t-54.5 164.5q0 162 95.5 322.5t264.5 278t316 117.5q44 0 81 -21t37 -48q0 -16 -36.5 -41.5t-72.5 -25.5q-26 0 -49 12q-36 18 -58 18q-57 0 -183.5 -106.5t-197.5 -241t-71 -246.5q0 -73 22.5 -108.5t55.5 -35.5q85 0 241.5 115.5
t164.5 236.5q3 42 57.5 82t84.5 40q23 0 39.5 -16t16.5 -29q0 -11 -16 -25q-64 -55 -102 -208q-21 -93 -58 -225.5t-54.5 -172t-51 -83t-75 -79t-84 -54t-75.5 -18.5q-40 0 -133 33t-93 73q0 21 26 43.5t56 22.5q28 0 88 -42q34 -34 64 -34q44 0 94.5 46t96.5 191.5
t46 162.5q0 11 -6 11q-4 0 -11 -5q-56 -47 -162.5 -110.5t-197.5 -63.5zM994 1199q0 -44 -57.5 -112.5t-156.5 -68.5q-138 0 -138 166q0 13 15 28.5t35 15.5q16 0 28.5 -10.5t12.5 -26.5l-4 -40q0 -18 19 -36.5t52 -18.5q46 0 78 30.5t44 71.5q10 30 48 30q24 0 24 -29z" />
    <glyph glyph-name="gbreve" unicode="&#x11f;" horiz-adv-x="670" 
d="M84 102q0 123 106.5 281.5t242 241.5t201.5 83q55 0 85.5 -35t30.5 -75q0 -56 -62 -98q-12 -9 -12 -15q0 -2 2 -7q4 -6 4 -18q0 -13 -53 -264.5t-84 -352.5t-87.5 -203.5t-125.5 -175t-156 -112.5t-142 -40q-58 0 -78 6q-37 10 -66 10q-35 0 -69.5 22t-34.5 48
q0 25 33.5 52.5t62.5 27.5q26 0 64 -38q47 -42 110 -42q113 0 236 152.5t179 409t56 311.5q0 7 -3 7q-4 0 -22 -18l-119 -123q-59 -60 -126.5 -105.5t-98.5 -45.5q-32 0 -53 34.5t-21 81.5zM588 594q-69 0 -164.5 -71t-150.5 -180.5t-55 -174.5q0 -42 20 -42
q25 0 121.5 85.5t183.5 215.5q42 62 75 71q16 0 30 16t14 32q0 21 -21 34.5t-53 13.5zM787 995q0 -48 -60.5 -113.5t-156.5 -65.5q-90 0 -114.5 58.5t-24.5 95.5q0 24 15 41t38 17q44 0 44 -52q-4 -28 -4 -36q0 -16 21.5 -29t46.5 -13q38 0 71 29t51 69q16 32 48 32
q25 0 25 -33z" />
    <glyph glyph-name="Scedilla" unicode="&#x1e9e;" horiz-adv-x="592" 
d="M298 -12q-36 -6 -72 -6q-164 0 -164 72q0 31 23.5 49t45.5 18q15 0 27 -9q68 -44 124 -44q57 0 99.5 38t42.5 100q0 68 -52 200q-44 111 -44 172q0 84 68.5 166.5t190 140t177.5 57.5q58 0 58 -53q0 -26 -25.5 -53.5t-64.5 -27.5l-79 3q-77 0 -140 -54.5t-63 -134.5
q0 -72 46 -198q48 -131 48 -216q0 -64 -44 -121t-128 -81q0 -15 -16 -34q-50 -67 -50 -90q0 -16 56 -72q30 -33 30 -74q0 -43 -49 -93t-150 -50l-30 2q-9 0 -25 -5q-7 -2 -14 -2q-21 0 -39.5 17t-18.5 39t31.5 48t52.5 26q25 0 44 -34q8 -14 34 -14q18 0 41 12.5t23 31.5
q0 22 -50 62q-40 30 -40 58q0 34 33 81.5t63 72.5z" />
    <glyph glyph-name="Scedilla" unicode="&#xf00e;" horiz-adv-x="592" 
d="M298 -12q-36 -6 -72 -6q-164 0 -164 72q0 31 23.5 49t45.5 18q15 0 27 -9q68 -44 124 -44q57 0 99.5 38t42.5 100q0 68 -52 200q-44 111 -44 172q0 84 68.5 166.5t190 140t177.5 57.5q58 0 58 -53q0 -26 -25.5 -53.5t-64.5 -27.5l-79 3q-77 0 -140 -54.5t-63 -134.5
q0 -72 46 -198q48 -131 48 -216q0 -64 -44 -121t-128 -81q0 -15 -16 -34q-50 -67 -50 -90q0 -16 56 -72q30 -33 30 -74q0 -43 -49 -93t-150 -50l-30 2q-9 0 -25 -5q-7 -2 -14 -2q-21 0 -39.5 17t-18.5 39t31.5 48t52.5 26q25 0 44 -34q8 -14 34 -14q18 0 41 12.5t23 31.5
q0 22 -50 62q-40 30 -40 58q0 34 33 81.5t63 72.5z" />
    <glyph glyph-name="scedilla" unicode="&#x1e9f;" horiz-adv-x="472" 
d="M218 -40q-24 -6 -42 -6q-31 0 -57.5 17t-26.5 35q0 26 39 57t59 31q7 0 24 -6q22 -10 43 -10q30 0 47.5 14.5t17.5 29.5q0 39 -38 98q-90 132 -90 196q0 61 56 136t129 111.5t131 36.5q55 0 81.5 -19.5t26.5 -40.5q0 -38 -64 -38q-86 0 -167 -55t-81 -113q0 -51 50 -120
q74 -99 74 -170q0 -85 -110 -138q-4 -19 -16 -34q-50 -61 -50 -88q0 -25 56 -70q30 -23 30 -76q0 -42 -43 -84t-81.5 -48.5t-97.5 -6.5l-43 -6q-20 0 -39.5 16t-19.5 39q0 22 31.5 48t52.5 26q25 0 44 -34q8 -14 34 -14q17 0 39.5 12.5t22.5 31.5q0 22 -50 62q-38 31 -38 58
q0 47 66 122z" />
    <glyph glyph-name="scedilla" unicode="&#xf00f;" horiz-adv-x="472" 
d="M218 -40q-24 -6 -42 -6q-31 0 -57.5 17t-26.5 35q0 26 39 57t59 31q7 0 24 -6q22 -10 43 -10q30 0 47.5 14.5t17.5 29.5q0 39 -38 98q-90 132 -90 196q0 61 56 136t129 111.5t131 36.5q55 0 81.5 -19.5t26.5 -40.5q0 -38 -64 -38q-86 0 -167 -55t-81 -113q0 -51 50 -120
q74 -99 74 -170q0 -85 -110 -138q-4 -19 -16 -34q-50 -61 -50 -88q0 -25 56 -70q30 -23 30 -76q0 -42 -43 -84t-81.5 -48.5t-97.5 -6.5l-43 -6q-20 0 -39.5 16t-19.5 39q0 22 31.5 48t52.5 26q25 0 44 -34q8 -14 34 -14q17 0 39.5 12.5t22.5 31.5q0 22 -50 62q-38 31 -38 58
q0 47 66 122z" />
    <glyph glyph-name="Cacute" unicode="&#x106;" horiz-adv-x="788" 
d="M170 222q0 148 90.5 320.5t238 286t273.5 113.5q46 0 77 -23.5t31 -64.5q0 -42 -35 -69.5t-59 -27.5q-14 0 -14 12q0 4 2 9q8 19 8 30q0 10 -11.5 19t-30.5 9q-73 0 -173.5 -79t-186.5 -238.5t-86 -294.5q0 -140 122 -140q191 0 454 210q14 11 24 11q13 0 13 -15
q0 -58 -189.5 -187t-357.5 -129q-90 0 -140 68t-50 180zM650 1022q-22 0 -22 12q0 20 24 44q90 85 146 154q34 40 60 40q27 0 49 -18.5t22 -40.5q0 -40 -119 -115.5t-160 -75.5z" />
    <glyph glyph-name="cacute" unicode="&#x107;" horiz-adv-x="628" 
d="M116 176q0 107 65.5 236.5t178.5 210.5t194 81q42 0 67 -23t25 -53q0 -39 -33.5 -70.5t-58.5 -31.5q-30 0 -30 31l3 21q0 26 -29 26q-62 0 -159 -128t-97 -276q0 -57 26.5 -88.5t69.5 -31.5q96 0 236 87t244 199q14 14 24 14q14 0 14 -22q0 -47 -115 -152.5t-238 -164.5
t-215 -59q-78 0 -125 49.5t-47 144.5zM450 770q-18 0 -18 12q0 18 20 36q84 76 190 208q31 40 60 40q24 0 45.5 -17.5t21.5 -35.5q0 -12 -11.5 -29t-82 -75t-117.5 -88t-72 -40.5t-36 -10.5z" />
    <glyph glyph-name="Ccaron" unicode="&#x10c;" horiz-adv-x="788" 
d="M170 222q0 148 90.5 320.5t238 286t273.5 113.5q46 0 77 -23.5t31 -64.5q0 -42 -35 -69.5t-59 -27.5q-14 0 -14 12q0 4 2 9q8 19 8 30q0 10 -11.5 19t-30.5 9q-73 0 -173.5 -79t-186.5 -238.5t-86 -294.5q0 -140 122 -140q191 0 454 210q14 11 24 11q13 0 13 -15
q0 -58 -189.5 -187t-357.5 -129q-90 0 -140 68t-50 180zM1001 1239q0 -9 -17 -31q-145 -111 -186 -154q-28 -28 -58 -28t-44 38q-30 93 -76 142q-9 12 -9 20q0 10 19.5 25t35.5 15q27 0 48.5 -25t47.5 -77q7 -16 14 -16q4 0 12 8q139 119 183 119q30 0 30 -36z" />
    <glyph glyph-name="ccaron" unicode="&#x10d;" horiz-adv-x="628" 
d="M116 176q0 107 65.5 236.5t178.5 210.5t194 81q42 0 67 -23t25 -53q0 -39 -33.5 -70.5t-58.5 -31.5q-30 0 -30 31l3 21q0 26 -29 26q-62 0 -159 -128t-97 -276q0 -57 26.5 -88.5t69.5 -31.5q96 0 236 87t244 199q14 14 24 14q14 0 14 -22q0 -47 -115 -152.5t-238 -164.5
t-215 -59q-78 0 -125 49.5t-47 144.5zM775 1039q0 -22 -25 -47q-117 -113 -160 -174q-22 -32 -54 -32q-28 0 -38 44q-30 115 -68 166q-10 14 -10 26q0 9 18 23.5t32 14.5q23 0 41 -22t45 -104q5 -18 13 -18q4 0 41 42q69 78 90.5 96.5t41.5 18.5q33 0 33 -34z" />
    <glyph glyph-name="Amacron" unicode="&#x100;" horiz-adv-x="970" 
d="M72 16q0 32 37.5 90.5t178.5 229.5q10 12 10 30q0 21 21 47t45 31q17 3 27.5 13t80.5 100l138 176q127 163 152.5 189t51.5 26q14 0 31.5 -21.5t17.5 -38.5q0 -15 -13 -28q-27 -25 -36 -37.5t-9 -41.5q0 -60 6.5 -175.5t9 -124.5t13.5 -9q199 0 199 -26
q0 -14 -47.5 -29.5t-143.5 -24.5q-17 -2 -17 -13q0 -30 13 -120.5t22.5 -108.5t28.5 -18l35 5q20 0 20 -33q0 -37 -32.5 -73.5t-81.5 -36.5q-55 0 -77.5 93.5t-32.5 282.5q0 12 -24 12q-86 0 -183 -16t-120 -39.5t-81 -101.5t-58 -140l2 -31q0 -35 -54.5 -64.5t-83.5 -29.5
q-19 0 -32.5 17t-13.5 39zM539 463q4 0 9 1q42 6 144 6q14 0 17 3t3 15l-8 178q0 21 -7 21q-10 0 -90 -104.5t-80 -111.5q0 -8 12 -8zM750 1080q-28 0 -40 -4q-8 -4 -28 -4q-13 0 -25.5 12.5t-12.5 23.5q0 33 24.5 48.5t77.5 15.5l162 -4q22 0 58 6q12 4 26 4q12 0 26 -15.5
t14 -28.5q0 -17 -11 -32.5t-19.5 -20t-24.5 -4.5q-13 3 -21 3h-206z" />
    <glyph glyph-name="amacron" unicode="&#x101;" horiz-adv-x="772" 
d="M68 82q0 83 89 245.5t204 269.5t189 107q26 0 56 -40q2 -8 11 -8q5 0 9 4q10 9 20 9q11 0 27.5 -13.5t16.5 -28.5q0 -9 -6 -23q-98 -216 -98 -362q0 -152 60 -152q48 0 137 85t189 219q12 15 22 15q16 0 16 -22q0 -38 -69 -138t-172 -183.5t-165 -83.5q-38 0 -81 46.5
t-43 213.5q0 12 -4 12t-12 -10q-39 -50 -144.5 -156t-167.5 -106q-23 0 -53.5 27t-30.5 73zM542 530q0 22 -11.5 42t-34.5 20q-37 0 -113 -85t-131 -201t-55 -159q0 -35 27 -35q33 0 116.5 91t142.5 187.5t59 139.5zM670 860h-192q-28 0 -40 -4t-28 -4q-13 0 -25.5 12.5
t-12.5 23.5q0 33 24.5 48.5t77.5 15.5l154 -4q32 0 62 6q12 4 28 4q13 0 27.5 -15t14.5 -29q0 -20 -11 -35t-27 -21h-27q-16 2 -25 2z" />
    <glyph glyph-name="Abreve" unicode="&#x102;" horiz-adv-x="970" 
d="M72 16q0 32 37.5 90.5t178.5 229.5q10 12 10 30q0 21 21 47t45 31q17 3 27.5 13t80.5 100l138 176q127 163 152.5 189t51.5 26q14 0 31.5 -21.5t17.5 -38.5q0 -15 -13 -28q-27 -25 -36 -37.5t-9 -41.5q0 -60 6.5 -175.5t9 -124.5t13.5 -9q199 0 199 -26
q0 -14 -47.5 -29.5t-143.5 -24.5q-17 -2 -17 -13q0 -30 13 -120.5t22.5 -108.5t28.5 -18l35 5q20 0 20 -33q0 -37 -32.5 -73.5t-81.5 -36.5q-55 0 -77.5 93.5t-32.5 282.5q0 12 -24 12q-86 0 -183 -16t-120 -39.5t-81 -101.5t-58 -140l2 -31q0 -35 -54.5 -64.5t-83.5 -29.5
q-19 0 -32.5 17t-13.5 39zM539 463q4 0 9 1q42 6 144 6q14 0 17 3t3 15l-8 178q0 21 -7 21q-10 0 -90 -104.5t-80 -111.5q0 -8 12 -8zM1030 1239q0 -44 -57.5 -112.5t-156.5 -68.5q-138 0 -138 166q0 13 15 28.5t35 15.5q16 0 28.5 -10.5t12.5 -26.5l-4 -40q0 -18 19 -36.5
t52 -18.5q46 0 78 30.5t44 71.5q10 30 48 30q24 0 24 -29z" />
    <glyph glyph-name="abreve" unicode="&#x103;" horiz-adv-x="772" 
d="M68 82q0 83 89 245.5t204 269.5t189 107q26 0 56 -40q2 -8 11 -8q5 0 9 4q10 9 20 9q11 0 27.5 -13.5t16.5 -28.5q0 -9 -6 -23q-98 -216 -98 -362q0 -152 60 -152q48 0 137 85t189 219q12 15 22 15q16 0 16 -22q0 -38 -69 -138t-172 -183.5t-165 -83.5q-38 0 -81 46.5
t-43 213.5q0 12 -4 12t-12 -10q-39 -50 -144.5 -156t-167.5 -106q-23 0 -53.5 27t-30.5 73zM542 530q0 22 -11.5 42t-34.5 20q-37 0 -113 -85t-131 -201t-55 -159q0 -35 27 -35q33 0 116.5 91t142.5 187.5t59 139.5zM767 995q0 -48 -60.5 -113.5t-156.5 -65.5
q-90 0 -114.5 58.5t-24.5 95.5q0 24 15 41t38 17q44 0 44 -52q-4 -28 -4 -36q0 -16 21.5 -29t46.5 -13q38 0 71 29t51 69q16 32 48 32q25 0 25 -33z" />
    <glyph glyph-name="Aogonek" unicode="&#x104;" horiz-adv-x="970" 
d="M798 4q-59 23 -78 366q0 12 -24 12q-86 0 -183 -16t-120 -39.5t-81 -101.5t-58 -140l2 -31q0 -35 -54.5 -64.5t-83.5 -29.5q-19 0 -32.5 17t-13.5 39q0 32 37.5 90.5t178.5 229.5q10 12 10 30q0 21 21 47t45 31q17 3 27.5 13t80.5 100l138 176q127 163 152.5 189t51.5 26
q14 0 31.5 -21.5t17.5 -38.5q0 -15 -13 -28q-27 -25 -36 -37.5t-9 -41.5q0 -60 6.5 -175.5t9 -124.5t13.5 -9q199 0 199 -26q0 -14 -47.5 -29.5t-143.5 -24.5q-17 -2 -17 -13q0 -30 13 -120.5t22.5 -108.5t28.5 -18l35 5q20 0 20 -33q0 -27 -9.5 -44t-49.5 -60
q-133 -147 -133 -210q0 -42 32 -42q58 0 78 40q9 23 37 45.5t55 22.5q16 0 28 -14t12 -34q0 -41 -85 -90.5t-141 -49.5q-49 0 -86.5 25.5t-37.5 70.5q0 96 154 240zM539 463q4 0 9 1q42 6 144 6q14 0 17 3t3 15l-8 178q0 21 -7 21q-10 0 -90 -104.5t-80 -111.5q0 -8 12 -8z
M830 -6z" />
    <glyph glyph-name="aogonek" unicode="&#x105;" horiz-adv-x="772" 
d="M580 -14q-49 18 -74.5 71t-25.5 185q0 12 -4 12t-12 -10q-39 -50 -144.5 -156t-167.5 -106q-23 0 -53.5 27t-30.5 73q0 83 89 245.5t204 269.5t189 107q26 0 56 -40q2 -8 11 -8q5 0 9 4q10 9 20 9q11 0 27.5 -13.5t16.5 -28.5q0 -9 -6 -23q-98 -216 -98 -362
q0 -152 60 -152q48 0 137 85t189 219q12 15 22 15q16 0 16 -22q0 -49 -93 -171.5t-211 -195.5q-67 -42 -121.5 -128t-54.5 -122q0 -42 32 -42q58 0 78 40q10 23 38.5 45.5t53.5 22.5q16 0 28 -14t12 -34q0 -41 -85 -90.5t-141 -49.5q-49 0 -86.5 25.5t-37.5 70.5
q0 49 46 117t112 125zM542 530q0 22 -11.5 42t-34.5 20q-37 0 -113 -85t-131 -201t-55 -159q0 -35 27 -35q33 0 116.5 91t142.5 187.5t59 139.5zM604 -18z" />
    <glyph glyph-name="Dcaron" unicode="&#x10e;" horiz-adv-x="960" 
d="M621 915q0 -9 16 -9q180 -12 293 -101t113 -207q0 -157 -138 -322t-277.5 -229.5t-262.5 -64.5q-39 0 -81 46.5t-42 107.5q0 58 41 186.5t164 465.5q2 7 2 12q0 8 -9 8q-45 0 -127 -44q-5 -3 -10 -3q-11 0 -19.5 14t-8.5 31q0 51 70 73.5t128 22.5q14 0 24 16
q34 60 68 60q16 0 36 -13.5t20 -49.5zM447 72q68 0 189.5 87t205 209.5t83.5 231.5q0 107 -106.5 160.5t-215.5 53.5q-15 0 -22.5 -7.5t-39.5 -82.5t-73.5 -199.5t-69.5 -219.5t-28 -146q0 -48 28 -67.5t49 -19.5zM1028 1239q0 -9 -17 -31q-145 -111 -186 -154
q-28 -28 -58 -28t-44 38q-30 93 -76 142q-9 12 -9 20q0 10 19.5 25t35.5 15q27 0 48.5 -25t47.5 -77q7 -16 14 -16q4 0 12 8q139 119 183 119q30 0 30 -36z" />
    <glyph glyph-name="dcaron" unicode="&#x10f;" horiz-adv-x="932" 
d="M80 88q0 100 80.5 253.5t196.5 243t215 89.5q37 0 68 -14q9 -4 13 -4t6.5 4t37.5 90l74 185q80 202 95.5 233.5t33.5 31.5q22 0 40 -24.5t18 -47.5q0 -21 -43 -119q-164 -373 -203.5 -558.5t-39.5 -264.5q0 -90 54 -90q56 0 175 103t185 185q13 17 26 17q18 0 18 -15
q0 -39 -85 -141t-196 -179.5t-189 -77.5q-43 0 -67 39t-24 102q0 47 9 104l15 89q0 5 -3 5q-4 0 -12 -11q-53 -73 -142 -164t-170 -133.5t-112 -42.5q-74 0 -74 112zM607 536q0 20 -18 35t-53 15q-83 0 -209.5 -173.5t-126.5 -266.5q0 -42 30 -42q37 0 110 60t170 189.5
t97 182.5zM1218 1200q35 0 56.5 -22t21.5 -60q0 -63 -58 -127t-148.5 -111.5t-117.5 -47.5q-10 0 -10 12q0 9 24 24q77 45 131.5 107.5t54.5 108.5q0 24 -20 48q-7 9 -7 18q0 18 25 34t48 16z" />
    <glyph glyph-name="Dcroat" unicode="&#x110;" horiz-adv-x="1028" 
d="M693 908q0 -4 11 -4q180 -7 292 -96t112 -210q0 -154 -134.5 -317.5t-275 -231t-266.5 -67.5q-46 0 -86 52.5t-40 105.5q0 41 82 280q4 13 4 18q0 8 -12 8q-57 0 -79 -4l-40 -7q-16 0 -32.5 18.5t-16.5 32.5q0 21 20 37.5t42 16.5q12 0 37 -4q49 -8 93 -8q15 0 19.5 4.5
t28.5 72.5l47 131q22 63 22 67q0 9 -13 9q-58 0 -166 -62q-4 -2 -9 -2q-11 0 -21 12.5t-10 27.5q0 54 99.5 85t142.5 31q13 0 24 20q44 84 90 84q22 0 37 -14t15 -33q0 -20 -14 -45q-3 -6 -3 -8zM526 444q-10 0 -14.5 -4.5t-28 -75t-34.5 -121t-11 -81.5q0 -41 24.5 -66.5
t65.5 -25.5q68 0 187 84.5t200 207t81 238.5q0 70 -40 118.5t-115.5 73t-170.5 24.5q-21 0 -27.5 -9.5t-52.5 -133.5t-46 -139q0 -10 18 -10q159 0 195.5 -10.5t36.5 -31.5q0 -24 -51.5 -43t-80.5 -19q-19 0 -34 10q-21 14 -52 14h-50z" />
    <glyph glyph-name="dcroat" unicode="&#x111;" horiz-adv-x="852" 
d="M866 890q-87 -184 -140.5 -389t-53.5 -316q0 -89 46 -89q53 0 158.5 105t181.5 211q15 19 28 19q15 0 15 -17q0 -44 -83 -156.5t-183.5 -191t-174.5 -78.5q-43 0 -67 39t-24 102q0 47 9 104l15 89q0 5 -3 5q-4 0 -12 -11q-53 -73 -142 -164t-170 -133.5t-112 -42.5
q-74 0 -74 112q0 100 80.5 253.5t196.5 243t215 89.5q37 0 68 -14q9 -4 13 -4q6 0 10 8l89 226h-124q-32 0 -44 -4q-16 -4 -32 -4q-14 0 -28 12.5t-14 23.5q0 28 24 46t58 18l196 -2q70 175 83 197.5t29 22.5q22 0 40 -24.5t18 -47.5q0 -19 -10 -43l-46 -105q78 0 90 4t32 4
q14 0 30 -15.5t16 -28.5q0 -8 -2.5 -21t-8.5 -20t-28 -14q-3 -1 -32 -1q-19 2 -29 2h-104zM607 536q0 20 -18 35t-53 15q-83 0 -209.5 -173.5t-126.5 -266.5q0 -42 30 -42q37 0 110 60t170 189.5t97 182.5z" />
    <glyph glyph-name="Emacron" unicode="&#x112;" horiz-adv-x="824" 
d="M584 898h182q88 0 136 -24.5t48 -51.5q0 -15 -27 -15q-12 0 -29 3q-30 4 -144 4q-60 0 -130.5 -7.5t-80 -19t-46 -134t-36.5 -127.5q0 -7 7 -10t49.5 -6.5t130.5 -3.5q52 0 102 6l76 11q12 0 12 -8q0 -22 -67.5 -62.5t-320.5 -40.5q-20 0 -25.5 -9.5t-55.5 -145
t-50 -143.5q0 -10 9.5 -13.5t74 -8t139.5 -4.5q100 0 166.5 9t155.5 43q9 3 15 3q12 0 12 -9q0 -23 -118.5 -83.5t-356.5 -60.5q-294 0 -294 48q0 15 24.5 37.5t38.5 28t29 40.5t50.5 145t35.5 119q0 11 -14 20q-24 17 -24 44q0 13 22 22q44 18 51.5 28.5t39.5 117.5t32 118
q0 12 -15 24q-38 29 -38 43q0 11 24.5 23.5t39.5 17.5q16 4 24.5 16.5t21.5 49.5q9 28 26 28q25 0 54 -46q10 -16 44 -16zM646 1040q-28 0 -40 -4q-8 -4 -28 -4q-13 0 -25.5 12.5t-12.5 23.5q0 33 24.5 48.5t77.5 15.5l162 -4q22 0 58 6q12 4 26 4q12 0 26 -15.5t14 -28.5
q0 -17 -11 -32.5t-19.5 -20t-24.5 -4.5q-13 3 -21 3h-206z" />
    <glyph glyph-name="emacron" unicode="&#x113;" horiz-adv-x="634" 
d="M276 -20q-62 0 -107 50t-45 130q0 79 56 210t147.5 235.5t144.5 104.5q42 0 46 -36q0 -18 24 -18q37 -2 60.5 -29t23.5 -71q0 -106 -89.5 -194t-206.5 -88q-26 0 -48 18q-5 4 -8 4q-9 0 -21.5 -44.5t-12.5 -73.5q0 -92 88 -92q97 0 229 78.5t275 231.5q12 13 22 13
q16 0 16 -21q0 -48 -124.5 -168t-249.5 -180t-220 -60zM302 379q0 -11 26 -11q73 0 131.5 51t58.5 105q0 33 -16 52.5t-38 19.5q-41 0 -101.5 -97.5t-60.5 -119.5zM602 860h-192q-28 0 -40 -4t-28 -4q-13 0 -25.5 12.5t-12.5 23.5q0 33 24.5 48.5t77.5 15.5l154 -4
q32 0 62 6q12 4 28 4q13 0 27.5 -15t14.5 -29q0 -20 -11 -35t-27 -21h-27q-16 2 -25 2z" />
    <glyph glyph-name="Edotaccent" unicode="&#x116;" horiz-adv-x="824" 
d="M584 898h182q88 0 136 -24.5t48 -51.5q0 -15 -27 -15q-12 0 -29 3q-30 4 -144 4q-60 0 -130.5 -7.5t-80 -19t-46 -134t-36.5 -127.5q0 -7 7 -10t49.5 -6.5t130.5 -3.5q52 0 102 6l76 11q12 0 12 -8q0 -22 -67.5 -62.5t-320.5 -40.5q-20 0 -25.5 -9.5t-55.5 -145
t-50 -143.5q0 -10 9.5 -13.5t74 -8t139.5 -4.5q100 0 166.5 9t155.5 43q9 3 15 3q12 0 12 -9q0 -23 -118.5 -83.5t-356.5 -60.5q-294 0 -294 48q0 15 24.5 37.5t38.5 28t29 40.5t50.5 145t35.5 119q0 11 -14 20q-24 17 -24 44q0 13 22 22q44 18 51.5 28.5t39.5 117.5t32 118
q0 12 -15 24q-38 29 -38 43q0 11 24.5 23.5t39.5 17.5q16 4 24.5 16.5t21.5 49.5q9 28 26 28q25 0 54 -46q10 -16 44 -16zM796 1116q0 -36 -25.5 -64t-60.5 -28q-27 0 -49.5 28.5t-22.5 55.5q0 33 24.5 55.5t59.5 22.5q36 0 55 -22t19 -48z" />
    <glyph glyph-name="edotaccent" unicode="&#x117;" horiz-adv-x="634" 
d="M276 -20q-62 0 -107 50t-45 130q0 79 56 210t147.5 235.5t144.5 104.5q42 0 46 -36q0 -18 24 -18q37 -2 60.5 -29t23.5 -71q0 -106 -89.5 -194t-206.5 -88q-26 0 -48 18q-5 4 -8 4q-9 0 -21.5 -44.5t-12.5 -73.5q0 -92 88 -92q97 0 229 78.5t275 231.5q12 13 22 13
q16 0 16 -21q0 -48 -124.5 -168t-249.5 -180t-220 -60zM302 379q0 -11 26 -11q73 0 131.5 51t58.5 105q0 33 -16 52.5t-38 19.5q-41 0 -101.5 -97.5t-60.5 -119.5zM574 904q0 -36 -25.5 -64t-60.5 -28q-27 0 -49.5 28.5t-22.5 55.5q0 32 24.5 55t59.5 23q36 0 55 -22t19 -48
z" />
    <glyph glyph-name="Eogonek" unicode="&#x118;" horiz-adv-x="824" 
d="M584 898h182q88 0 136 -24.5t48 -51.5q0 -15 -27 -15q-12 0 -29 3q-30 4 -144 4q-60 0 -130.5 -7.5t-80 -19t-46 -134t-36.5 -127.5q0 -7 7 -10t49.5 -6.5t130.5 -3.5q52 0 102 6l76 11q12 0 12 -8q0 -22 -67.5 -62.5t-320.5 -40.5q-20 0 -25.5 -9.5t-55.5 -145
t-50 -143.5q0 -10 9.5 -13.5t74 -8t139.5 -4.5q100 0 166.5 9t155.5 43q10 4 16 4q11 0 11 -8q0 -11 -19 -26l-12 -9q-20 -15 -30 -19q-22 -10 -100 -107.5t-78 -154.5q0 -42 32 -42q58 0 78 40q9 23 37 45.5t55 22.5q16 0 28 -14t12 -34q0 -41 -85 -90.5t-141 -49.5
q-49 0 -86.5 25.5t-37.5 70.5q0 53 52 125.5t92 100.5q-109 -30 -272 -30q-294 0 -294 48q0 15 24.5 37.5t38.5 28t29 40.5t50.5 145t35.5 119q0 11 -14 20q-24 17 -24 44q0 13 22 22q44 18 51.5 28.5t39.5 117.5t32 118q0 12 -15 24q-38 29 -38 43q0 11 24.5 23.5
t39.5 17.5q16 4 24.5 16.5t21.5 49.5q9 28 26 28q25 0 54 -46q10 -16 44 -16z" />
    <glyph glyph-name="eogonek" unicode="&#x119;" horiz-adv-x="634" 
d="M382 -4q-61 -16 -106 -16q-62 0 -107 50t-45 130q0 79 56 210t147.5 235.5t144.5 104.5q42 0 46 -36q0 -18 24 -18q37 -2 60.5 -29t23.5 -71q0 -106 -89.5 -194t-206.5 -88q-26 0 -48 18q-5 4 -8 4q-9 0 -21.5 -44.5t-12.5 -73.5q0 -92 88 -92q97 0 229 78.5t275 231.5
q12 13 22 13q16 0 16 -21q0 -43 -108 -152t-238 -182q-21 -14 -101.5 -115t-80.5 -149q0 -42 32 -42q58 0 78 40q10 23 38.5 45.5t53.5 22.5q16 0 28 -14t12 -34q0 -41 -85 -90.5t-141 -49.5q-49 0 -86.5 25.5t-37.5 70.5q0 49 44.5 115t103.5 117zM302 379q0 -11 26 -11
q73 0 131.5 51t58.5 105q0 33 -16 52.5t-38 19.5q-41 0 -101.5 -97.5t-60.5 -119.5z" />
    <glyph glyph-name="Ecaron" unicode="&#x11a;" horiz-adv-x="824" 
d="M584 898h182q88 0 136 -24.5t48 -51.5q0 -15 -27 -15q-12 0 -29 3q-30 4 -144 4q-60 0 -130.5 -7.5t-80 -19t-46 -134t-36.5 -127.5q0 -7 7 -10t49.5 -6.5t130.5 -3.5q52 0 102 6l76 11q12 0 12 -8q0 -22 -67.5 -62.5t-320.5 -40.5q-20 0 -25.5 -9.5t-55.5 -145
t-50 -143.5q0 -10 9.5 -13.5t74 -8t139.5 -4.5q100 0 166.5 9t155.5 43q9 3 15 3q12 0 12 -9q0 -23 -118.5 -83.5t-356.5 -60.5q-294 0 -294 48q0 15 24.5 37.5t38.5 28t29 40.5t50.5 145t35.5 119q0 11 -14 20q-24 17 -24 44q0 13 22 22q44 18 51.5 28.5t39.5 117.5t32 118
q0 12 -15 24q-38 29 -38 43q0 11 24.5 23.5t39.5 17.5q16 4 24.5 16.5t21.5 49.5q9 28 26 28q25 0 54 -46q10 -16 44 -16zM989 1239q0 -9 -17 -31q-145 -111 -186 -154q-28 -28 -58 -28t-44 38q-30 93 -76 142q-9 12 -9 20q0 10 19.5 25t35.5 15q27 0 48.5 -25t47.5 -77
q7 -16 14 -16q4 0 12 8q139 119 183 119q30 0 30 -36z" />
    <glyph glyph-name="ecaron" unicode="&#x11b;" horiz-adv-x="634" 
d="M276 -20q-62 0 -107 50t-45 130q0 79 56 210t147.5 235.5t144.5 104.5q42 0 46 -36q0 -18 24 -18q37 -2 60.5 -29t23.5 -71q0 -106 -89.5 -194t-206.5 -88q-26 0 -48 18q-5 4 -8 4q-9 0 -21.5 -44.5t-12.5 -73.5q0 -92 88 -92q97 0 229 78.5t275 231.5q12 13 22 13
q16 0 16 -21q0 -48 -124.5 -168t-249.5 -180t-220 -60zM302 379q0 -11 26 -11q73 0 131.5 51t58.5 105q0 33 -16 52.5t-38 19.5q-41 0 -101.5 -97.5t-60.5 -119.5zM749 1039q0 -22 -25 -47q-117 -113 -160 -174q-22 -32 -54 -32q-28 0 -38 44q-30 115 -68 166q-10 14 -10 26
q0 9 18 23.5t32 14.5q23 0 41 -22t45 -104q5 -18 13 -18q4 0 41 42q69 78 90.5 96.5t41.5 18.5q33 0 33 -34z" />
    <glyph glyph-name="Gcommaaccent" unicode="&#x122;" horiz-adv-x="900" 
d="M330 -20q-51 0 -105.5 69.5t-54.5 164.5q0 162 95.5 322.5t264.5 278t316 117.5q44 0 81 -21t37 -48q0 -16 -36.5 -41.5t-72.5 -25.5q-26 0 -49 12q-36 18 -58 18q-57 0 -183.5 -106.5t-197.5 -241t-71 -246.5q0 -73 22.5 -108.5t55.5 -35.5q85 0 241.5 115.5
t164.5 236.5q3 42 57.5 82t84.5 40q23 0 39.5 -16t16.5 -29q0 -11 -16 -25q-64 -55 -102 -208q-69 -268 -97.5 -321.5t-84.5 -53.5q-53 0 -53 37q0 20 15 32q32 26 38 50q15 68 20 80q9 27 9 40q0 11 -6 11q-4 0 -11 -5q-56 -47 -162.5 -110.5t-197.5 -63.5zM474 -90
q35 0 56.5 -22t21.5 -60q0 -63 -58 -127t-148.5 -111.5t-117.5 -47.5q-10 0 -10 12q0 9 24 24q77 45 131.5 107.5t54.5 108.5q0 24 -20 48q-7 9 -7 18q0 15 22.5 32.5t50.5 17.5z" />
    <glyph glyph-name="gcommaaccent" unicode="&#x123;" horiz-adv-x="670" 
d="M84 102q0 123 106.5 281.5t242 241.5t201.5 83q55 0 85.5 -35t30.5 -75q0 -56 -62 -98q-12 -9 -12 -15q0 -2 2 -7q4 -6 4 -18q0 -13 -53 -264.5t-84 -352.5t-87.5 -203.5t-125.5 -175t-156 -112.5t-142 -40q-58 0 -78 6q-37 10 -66 10q-35 0 -69.5 22t-34.5 48
q0 25 33.5 52.5t62.5 27.5q26 0 64 -38q47 -42 110 -42q113 0 236 152.5t179 409t56 311.5q0 7 -3 7q-4 0 -22 -18l-119 -123q-59 -60 -126.5 -105.5t-98.5 -45.5q-32 0 -53 34.5t-21 81.5zM588 594q-69 0 -164.5 -71t-150.5 -180.5t-55 -174.5q0 -42 20 -42
q25 0 121.5 85.5t183.5 215.5q42 62 75 71q16 0 30 16t14 32q0 21 -21 34.5t-53 13.5zM584 780q-35 0 -56.5 22t-21.5 60q0 63 58 127t148.5 111.5t117.5 47.5q10 0 10 -12q0 -9 -24 -24q-77 -45 -131.5 -107.5t-54.5 -108.5q0 -24 20 -48q7 -9 7 -18q0 -15 -22.5 -32.5
t-50.5 -17.5z" />
    <glyph glyph-name="Imacron" unicode="&#x12a;" horiz-adv-x="572" 
d="M641 814q-15 0 -25 -14.5t-85 -186t-127.5 -315.5t-52.5 -181q0 -11 14 -11l146 4q74 0 74 -18q0 -22 -86 -47t-154 -25q-8 0 -25 -14q-27 -22 -49 -22q-14 0 -30 22q-12 14 -30 14q-24 0 -74 -20q-6 -3 -11 -3q-11 0 -24.5 14t-13.5 29q0 26 32.5 49t104.5 23
q13 0 18 18q38 182 228 654q4 9 4 13q0 9 -20 9q-30 0 -62 -4.5t-33 -4.5q-17 0 -26 13.5t-9 26.5q0 30 35.5 45.5t140.5 15.5q25 0 28 10q23 50 62 50q20 0 37.5 -16.5t20.5 -35.5q3 -17 18 -20q28 -3 81 -12.5t56 -15.5t3 -10q0 -14 -26 -24t-46 -10h-94zM551 1080
q-28 0 -40 -4q-8 -4 -28 -4q-13 0 -25.5 12.5t-12.5 23.5q0 33 24.5 48.5t77.5 15.5l162 -4q22 0 58 6q12 4 26 4q12 0 26 -15.5t14 -28.5q0 -17 -11 -32.5t-19.5 -20t-24.5 -4.5q-13 3 -21 3h-206z" />
    <glyph glyph-name="imacron" unicode="&#x12b;" horiz-adv-x="468" 
d="M763 442q0 -51 -124 -185t-243.5 -207.5t-174.5 -73.5q-41 0 -73 45t-32 92q0 26 9 53q83 248 83 269q0 8 -3 17q-3 12 -3 22q0 51 78 140.5t112 89.5q14 0 25 -17.5t11 -38.5q0 -20 -11 -38q-66 -108 -127 -266.5t-61 -208.5q0 -45 38 -45q71 0 210 112.5t246 245.5
q14 17 25 17q15 0 15 -23zM537 830h-192q-28 0 -40 -4t-28 -4q-13 0 -25.5 12.5t-12.5 23.5q0 33 24.5 48.5t77.5 15.5l154 -4q32 0 62 6q12 4 28 4q13 0 27.5 -15t14.5 -29q0 -20 -11 -35t-27 -21h-27q-16 2 -25 2z" />
    <glyph glyph-name="Iogonek" unicode="&#x12e;" horiz-adv-x="572" 
d="M399 26q-30 -6 -54 -6q-8 0 -25 -14q-27 -22 -49 -22q-14 0 -30 22q-12 14 -30 14q-24 0 -74 -20q-6 -3 -11 -3q-11 0 -24.5 14t-13.5 29q0 26 32.5 49t104.5 23q13 0 18 18q38 182 228 654q4 9 4 13q0 9 -20 9q-30 0 -62 -4.5t-33 -4.5q-17 0 -26 13.5t-9 26.5
q0 30 35.5 45.5t140.5 15.5q25 0 28 10q23 50 62 50h2q18 0 35.5 -16.5t20.5 -35.5q3 -17 18 -20q28 -3 81 -12.5t56 -15.5t3 -10q0 -14 -26 -24t-46 -10h-94q-15 0 -25 -14.5t-85 -186t-127.5 -315.5t-52.5 -181q0 -11 14 -11l146 4q74 0 74 -18q0 -14 -32.5 -28t-51.5 -18
q-7 -5 -18 -14q-12 -10 -18 -14q-40 -25 -120 -119t-80 -149q0 -42 32 -42q58 0 78 40q6 14 34.5 41t57.5 27q16 0 28 -14t12 -34q0 -40 -84 -90t-142 -50q-49 0 -86.5 25.5t-37.5 70.5q0 62 72 152.5t170 149.5z" />
    <glyph glyph-name="iogonek" unicode="&#x12f;" horiz-adv-x="468" 
d="M412 1012q0 78 60 78q62 0 62 -46q0 -7 -2 -14q-12 -50 -12 -148q0 -26 -19 -26q-22 0 -55.5 31.5t-33.5 124.5zM212 -24q-33 0 -65 45t-32 92q0 26 9 53q83 248 83 269q0 8 -3 17q-3 12 -3 22q0 41 74 135.5t111 94.5q11 0 26 -16.5t15 -40.5q0 -19 -11 -37
q-66 -111 -127 -268t-61 -207q0 -45 38 -45q68 0 198.5 108.5t243.5 249.5q13 16 23 16q15 0 15 -22q0 -52 -128 -194t-260 -222q-44 -26 -127 -123t-83 -153q0 -42 32 -42q58 0 78 40q10 23 38.5 45.5t53.5 22.5q16 0 28 -14t12 -34q0 -40 -84 -90t-142 -50
q-49 0 -86.5 25.5t-37.5 70.5q0 54 54.5 129.5t117.5 122.5z" />
    <glyph glyph-name="Idotaccent" unicode="&#x130;" horiz-adv-x="572" 
d="M641 814q-15 0 -25 -14.5t-85 -186t-127.5 -315.5t-52.5 -181q0 -11 14 -11l146 4q74 0 74 -18q0 -22 -86 -47t-154 -25q-8 0 -25 -14q-27 -22 -49 -22q-14 0 -30 22q-12 14 -30 14q-24 0 -74 -20q-6 -3 -11 -3q-11 0 -24.5 14t-13.5 29q0 26 32.5 49t104.5 23
q13 0 18 18q38 182 228 654q4 9 4 13q0 9 -20 9q-30 0 -62 -4.5t-33 -4.5q-17 0 -26 13.5t-9 26.5q0 30 35.5 45.5t140.5 15.5q25 0 28 10q23 50 62 50q20 0 37.5 -16.5t20.5 -35.5q3 -17 18 -20q28 -3 81 -12.5t56 -15.5t3 -10q0 -14 -26 -24t-46 -10h-94zM741 1144
q0 -36 -25.5 -64t-60.5 -28q-27 0 -49.5 28.5t-22.5 55.5q0 33 24.5 55.5t59.5 22.5q36 0 55 -22t19 -48z" />
    <glyph glyph-name="Kcommaaccent" unicode="&#x136;" horiz-adv-x="986" 
d="M447 504q25 0 260 154t304 234q29 36 70 36q18 0 38 -18t20 -40q0 -44 -44 -68q-28 -14 -70 -46q-70 -54 -325 -212q-90 -55 -113 -70.5t-23 -31.5q0 -9 7 -16q65 -59 166 -167.5t120 -134.5q9 -11 18 -11q11 0 20 15q19 30 40 30q17 0 29.5 -26.5t12.5 -53.5
q0 -34 -45 -72t-71 -38q-29 0 -60 40q-194 258 -338 366q-44 34 -50 44q-4 4 -8 4q-6 0 -10.5 -9t-34 -90t-29.5 -105t12 -32q7 -5 7 -15q0 -15 -17 -43q-14 -21 -60 -104q-30 -54 -66 -54q-31 0 -31 79q0 58 28 149t195 514q23 59 23 106l-2 32q0 29 34 60.5t65 31.5
q25 0 41 -24.5t16 -50.5q0 -31 -21 -67q-29 -52 -75 -167t-46 -121q0 -8 13 -8zM547 -40q35 0 56.5 -22t21.5 -60q0 -63 -58 -127t-148.5 -111.5t-117.5 -47.5q-10 0 -10 12q0 9 24 24q77 45 131.5 107.5t54.5 108.5q0 24 -20 48q-7 9 -7 18q0 15 22.5 32.5t50.5 17.5z" />
    <glyph glyph-name="kcommaaccent" unicode="&#x137;" horiz-adv-x="786" 
d="M286 352q5 0 27 22q328 330 450 330q28 0 45 -16.5t17 -30.5q0 -17 -19 -37t-61 -24q-72 -4 -186.5 -95t-114.5 -129q0 -42 85.5 -171t139.5 -129q108 0 282 240q10 15 22 15q16 0 16 -22q0 -32 -67.5 -127t-149 -150.5t-141.5 -55.5q-28 0 -62.5 21.5t-59.5 53
t-85 125.5q-39 60 -56 84t-35 24q-22 0 -60.5 -51t-55.5 -159q-4 -33 -31.5 -56.5t-52.5 -23.5q-35 0 -35 56q0 50 78.5 324t172 501.5t131.5 276t65 48.5q32 0 47 -20t15 -35q0 -14 -12 -31q-103 -140 -207.5 -429.5t-104.5 -322.5q0 -6 3 -6zM377 -60q35 0 56.5 -22
t21.5 -60q0 -63 -58 -127t-148.5 -111.5t-117.5 -47.5q-10 0 -10 12q0 9 24 24q77 45 131.5 107.5t54.5 108.5q0 24 -20 48q-7 9 -7 18q0 15 22.5 32.5t50.5 17.5z" />
    <glyph glyph-name="Lacute" unicode="&#x139;" horiz-adv-x="818" 
d="M311 126q0 -10 12.5 -18t92.5 -21t178 -13q144 0 248 60q13 8 21 8q9 0 9 -9q0 -34 -98 -93.5t-250 -59.5q-149 0 -231 16q-24 4 -33 4q-27 0 -54 -18q-10 -6 -21 -6q-27 0 -31 24q-5 21 -22 52q-4 9 -4 20q0 25 19.5 43.5t34.5 18.5q14 0 37.5 49.5t107.5 313t84 282.5
q0 11 -11 11q-20 0 -41 11t-21 25q0 22 44 34q55 17 92 60q21 24 40 24q25 0 51.5 -24t26.5 -47q0 -19 -16 -43q-27 -45 -36 -74q-47 -140 -126 -354.5t-98 -257.5q-5 -11 -5 -18zM550 1022q-22 0 -22 12q0 20 24 44q90 85 146 154q34 40 60 40q27 0 49 -18.5t22 -40.5
q0 -40 -119 -115.5t-160 -75.5z" />
    <glyph glyph-name="lacute" unicode="&#x13a;" horiz-adv-x="472" 
d="M198 -18q-33 0 -53.5 35.5t-20.5 90.5q0 53 42 208.5t143.5 399t154 348t66.5 114.5t26 10q23 0 37.5 -23.5t14.5 -45.5q0 -27 -26 -77q-140 -261 -241 -536t-101 -358q0 -52 32 -52q47 0 189.5 111.5t214.5 198.5q12 14 22 14q14 0 14 -21q0 -61 -198.5 -239
t-315.5 -178zM542 1282q-22 0 -22 12q0 20 24 44q90 85 146 154q34 40 60 40q27 0 49 -18.5t22 -40.5q0 -40 -119 -115.5t-160 -75.5z" />
    <glyph glyph-name="Lcommaaccent" unicode="&#x13b;" horiz-adv-x="818" 
d="M311 126q0 -10 12.5 -18t92.5 -21t178 -13q144 0 248 60q13 8 21 8q9 0 9 -9q0 -34 -98 -93.5t-250 -59.5q-149 0 -231 16q-24 4 -33 4q-27 0 -54 -18q-10 -6 -21 -6q-27 0 -31 24q-5 21 -22 52q-4 9 -4 20q0 25 19.5 43.5t34.5 18.5q14 0 37.5 49.5t107.5 313t84 282.5
q0 11 -11 11q-20 0 -41 11t-21 25q0 22 44 34q55 17 92 60q21 24 40 24q25 0 51.5 -24t26.5 -47q0 -19 -16 -43q-27 -45 -36 -74q-47 -140 -126 -354.5t-98 -257.5q-5 -11 -5 -18zM396 -80q35 0 56.5 -22t21.5 -60q0 -63 -58 -127t-148.5 -111.5t-117.5 -47.5q-10 0 -10 12
q0 9 24 24q77 45 131.5 107.5t54.5 108.5q0 24 -20 48q-7 9 -7 18q0 15 22.5 32.5t50.5 17.5z" />
    <glyph glyph-name="lcommaaccent" unicode="&#x13c;" horiz-adv-x="472" 
d="M198 -18q-33 0 -53.5 35.5t-20.5 90.5q0 53 42 208.5t143.5 399t154 348t66.5 114.5t26 10q23 0 37.5 -23.5t14.5 -45.5q0 -27 -26 -77q-140 -261 -241 -536t-101 -358q0 -52 32 -52q47 0 189.5 111.5t214.5 198.5q12 14 22 14q14 0 14 -21q0 -61 -198.5 -239
t-315.5 -178zM218 -92q35 0 56.5 -22t21.5 -60q0 -63 -58 -127t-148.5 -111.5t-117.5 -47.5q-10 0 -10 12q0 9 24 24q77 45 131.5 107.5t54.5 108.5q0 24 -20 48q-7 9 -7 18q0 15 22.5 32.5t50.5 17.5z" />
    <glyph glyph-name="Lcaron" unicode="&#x13d;" horiz-adv-x="818" 
d="M311 126q0 -10 12.5 -18t92.5 -21t178 -13q144 0 248 60q13 8 21 8q9 0 9 -9q0 -34 -98 -93.5t-250 -59.5q-149 0 -231 16q-24 4 -33 4q-27 0 -54 -18q-10 -6 -21 -6q-27 0 -31 24q-5 21 -22 52q-4 9 -4 20q0 25 19.5 43.5t34.5 18.5q14 0 37.5 49.5t107.5 313t84 282.5
q0 11 -11 11q-20 0 -41 11t-21 25q0 22 44 34q55 17 92 60q21 24 40 24q25 0 51.5 -24t26.5 -47q0 -19 -16 -43q-27 -45 -36 -74q-47 -140 -126 -354.5t-98 -257.5q-5 -11 -5 -18zM876 1070q35 0 56.5 -22t21.5 -60q0 -63 -58 -127t-148.5 -111.5t-117.5 -47.5q-10 0 -10 12
q0 9 24 24q77 45 131.5 107.5t54.5 108.5q0 24 -20 48q-7 9 -7 18q0 15 22.5 32.5t50.5 17.5z" />
    <glyph glyph-name="lcaron" unicode="&#x13e;" horiz-adv-x="582" 
d="M198 -18q-33 0 -53.5 35.5t-20.5 90.5q0 53 42 208.5t143.5 399t154 348t66.5 114.5t26 10q23 0 37.5 -23.5t14.5 -45.5q0 -27 -26 -77q-140 -262 -240.5 -535.5t-100.5 -354.5q0 -56 45 -56q48 0 205 88.5t233 159.5q13 12 22 12q13 0 13 -19q0 -45 -131.5 -144.5
t-247.5 -155t-182 -55.5zM838 1192q35 0 56.5 -22t21.5 -60q0 -63 -58 -127t-148.5 -111.5t-117.5 -47.5q-10 0 -10 12q0 9 24 24q77 45 131.5 107.5t54.5 108.5q0 24 -20 48q-7 9 -7 18q0 15 22.5 32.5t50.5 17.5z" />
    <glyph glyph-name="Nacute" unicode="&#x143;" horiz-adv-x="1008" 
d="M412 847q0 17 19 43t49 26q27 0 44.5 -22.5t17.5 -50.5q0 -23 -13 -42t-13 -31q0 -29 138.5 -276.5t149.5 -247.5q6 0 12 20q68 214 147.5 415.5t110 234t58.5 32.5q29 0 46.5 -45t17.5 -78q0 -25 -36 -31q-30 -4 -48 -25t-82.5 -187.5t-99 -286t-34.5 -167.5
q0 -29 22 -62q5 -8 5 -19q0 -21 -19 -42t-44 -21q-46 0 -78 61l-260 465q-44 80 -47.5 83.5t-6.5 3.5q-9 0 -23 -35l-73 -171q-58 -136 -66 -219q-7 -102 -17 -120.5t-33.5 -55t-57.5 -36.5q-26 0 -43 20t-17 54q0 30 22 78l225 565q3 8 3 15q0 12 -12 22q-17 17 -17 32
q0 32 39 66q14 14 14 35zM740 962q-22 0 -22 12q0 20 24 44q90 85 146 154q34 40 60 40q27 0 49 -18.5t22 -40.5q0 -40 -119 -115.5t-160 -75.5z" />
    <glyph glyph-name="nacute" unicode="&#x144;" horiz-adv-x="852" 
d="M108 61q0 48 52 238.5t87 284.5t61 123t53 29q26 0 47 -29.5t21 -54.5q0 -16 -18 -20q-30 -6 -55.5 -60t-55.5 -150.5t-30 -111.5q0 -10 6 -10t15 12q58 78 184 197.5t192 148.5q22 11 36 36q17 30 38 30q16 0 36.5 -20.5t20.5 -41.5q0 -28 -36 -86q-49 -79 -95 -216
t-46 -205q0 -99 68 -99q109 0 380 344q10 14 19 14q13 0 13 -18q0 -50 -160.5 -244t-297.5 -194q-56 0 -89.5 48.5t-33.5 133.5q0 98 73 318q10 29 10 42q0 11 -6 11q-25 0 -155.5 -138.5t-228.5 -308.5q-34 -58 -60 -58q-15 0 -30 17t-15 38zM569 770q-18 0 -18 12
q0 18 20 36q84 76 190 208q31 40 60 40q24 0 45.5 -17.5t21.5 -35.5q0 -12 -11.5 -29t-82 -75t-117.5 -88t-72 -40.5t-36 -10.5z" />
    <glyph glyph-name="Ncommaaccent" unicode="&#x145;" horiz-adv-x="1008" 
d="M412 847q0 17 19 43t49 26q27 0 44.5 -22.5t17.5 -50.5q0 -23 -13 -42t-13 -31q0 -29 138.5 -276.5t149.5 -247.5q6 0 12 20q68 214 147.5 415.5t110 234t58.5 32.5q29 0 46.5 -45t17.5 -78q0 -25 -36 -31q-30 -4 -48 -25t-82.5 -187.5t-99 -286t-34.5 -167.5
q0 -29 22 -62q5 -8 5 -19q0 -21 -19 -42t-44 -21q-46 0 -78 61l-260 465q-44 80 -47.5 83.5t-6.5 3.5q-9 0 -23 -35l-73 -171q-58 -136 -66 -219q-7 -102 -17 -120.5t-33.5 -55t-57.5 -36.5q-26 0 -43 20t-17 54q0 30 22 78l225 565q3 8 3 15q0 12 -12 22q-17 17 -17 32
q0 32 39 66q14 14 14 35zM536 -40q35 0 56.5 -22t21.5 -60q0 -63 -58 -127t-148.5 -111.5t-117.5 -47.5q-10 0 -10 12q0 9 24 24q77 45 131.5 107.5t54.5 108.5q0 24 -20 48q-7 9 -7 18q0 15 22.5 32.5t50.5 17.5z" />
    <glyph glyph-name="ncommaaccent" unicode="&#x146;" horiz-adv-x="852" 
d="M108 61q0 48 52 238.5t87 284.5t61 123t53 29q26 0 47 -29.5t21 -54.5q0 -16 -18 -20q-30 -6 -55.5 -60t-55.5 -150.5t-30 -111.5q0 -10 6 -10t15 12q58 78 184 197.5t192 148.5q22 11 36 36q17 30 38 30q16 0 36.5 -20.5t20.5 -41.5q0 -28 -36 -86q-49 -79 -95 -216
t-46 -205q0 -99 68 -99q109 0 380 344q10 14 19 14q13 0 13 -18q0 -50 -160.5 -244t-297.5 -194q-56 0 -89.5 48.5t-33.5 133.5q0 98 73 318q10 29 10 42q0 11 -6 11q-25 0 -155.5 -138.5t-228.5 -308.5q-34 -58 -60 -58q-15 0 -30 17t-15 38zM375 -60q35 0 56.5 -22
t21.5 -60q0 -63 -58 -127t-148.5 -111.5t-117.5 -47.5q-10 0 -10 12q0 9 24 24q77 45 131.5 107.5t54.5 108.5q0 24 -20 48q-7 9 -7 18q0 15 22.5 32.5t50.5 17.5z" />
    <glyph glyph-name="Ncaron" unicode="&#x147;" horiz-adv-x="1008" 
d="M412 847q0 17 19 43t49 26q27 0 44.5 -22.5t17.5 -50.5q0 -23 -13 -42t-13 -31q0 -29 138.5 -276.5t149.5 -247.5q6 0 12 20q68 214 147.5 415.5t110 234t58.5 32.5q29 0 46.5 -45t17.5 -78q0 -25 -36 -31q-30 -4 -48 -25t-82.5 -187.5t-99 -286t-34.5 -167.5
q0 -29 22 -62q5 -8 5 -19q0 -21 -19 -42t-44 -21q-46 0 -78 61l-260 465q-44 80 -47.5 83.5t-6.5 3.5q-9 0 -23 -35l-73 -171q-58 -136 -66 -219q-7 -102 -17 -120.5t-33.5 -55t-57.5 -36.5q-26 0 -43 20t-17 54q0 30 22 78l225 565q3 8 3 15q0 12 -12 22q-17 17 -17 32
q0 32 39 66q14 14 14 35zM1051 1179q0 -9 -17 -31q-145 -111 -186 -154q-28 -28 -58 -28t-44 38q-30 93 -76 142q-9 12 -9 20q0 10 19.5 25t35.5 15q27 0 48.5 -25t47.5 -77q7 -16 14 -16q4 0 12 8q139 119 183 119q30 0 30 -36z" />
    <glyph glyph-name="ncaron" unicode="&#x148;" horiz-adv-x="852" 
d="M108 61q0 48 52 238.5t87 284.5t61 123t53 29q26 0 47 -29.5t21 -54.5q0 -16 -18 -20q-30 -6 -55.5 -60t-55.5 -150.5t-30 -111.5q0 -10 6 -10t15 12q58 78 184 197.5t192 148.5q22 11 36 36q17 30 38 30q16 0 36.5 -20.5t20.5 -41.5q0 -28 -36 -86q-49 -79 -95 -216
t-46 -205q0 -99 68 -99q109 0 380 344q10 14 19 14q13 0 13 -18q0 -50 -160.5 -244t-297.5 -194q-56 0 -89.5 48.5t-33.5 133.5q0 98 73 318q10 29 10 42q0 11 -6 11q-25 0 -155.5 -138.5t-228.5 -308.5q-34 -58 -60 -58q-15 0 -30 17t-15 38zM814 1039q0 -22 -25 -47
q-117 -113 -160 -174q-22 -32 -54 -32q-28 0 -38 44q-30 115 -68 166q-10 14 -10 26q0 9 18 23.5t32 14.5q23 0 41 -22t45 -104q5 -18 13 -18q4 0 41 42q69 78 90.5 96.5t41.5 18.5q33 0 33 -34z" />
    <glyph glyph-name="Omacron" unicode="&#x14c;" horiz-adv-x="910" 
d="M174 240q0 102 60.5 239t157 240t182.5 141t112 38q10 0 30 20q26 26 60 26q86 0 160 -64t74 -210q0 -160 -105.5 -334.5t-244 -264t-252.5 -89.5q-85 0 -159.5 63t-74.5 195zM756 756q-23 0 -30 22q-9 28 -44 28q-48 0 -138.5 -86.5t-166 -230.5t-75.5 -263
q0 -69 30.5 -110.5t85.5 -41.5q69 0 183.5 77t212.5 253.5t98 323.5q0 50 -29.5 83.5t-47.5 32.5q-8 0 -8 -7l2 -20q0 -26 -25.5 -43.5t-47.5 -17.5zM720 1080q-28 0 -40 -4q-8 -4 -28 -4q-13 0 -25.5 12.5t-12.5 23.5q0 33 24.5 48.5t77.5 15.5l162 -4q22 0 58 6q12 4 26 4
q12 0 26 -15.5t14 -28.5q0 -17 -11 -32.5t-19.5 -20t-24.5 -4.5q-13 3 -21 3h-206z" />
    <glyph glyph-name="omacron" unicode="&#x14d;" horiz-adv-x="622" 
d="M214 -22q-38 0 -74 41.5t-36 92.5q0 64 34 165t150 259q24 30 24 62q0 28 23 51t55 23q29 0 46 22q23 32 62 32q54 0 54 -52q0 -24 10 -30q98 -64 98 -208q0 -65 -53 -175t-171 -196.5t-222 -86.5zM478 580q-52 0 -152 -161t-100 -271q0 -31 14.5 -49.5t37.5 -18.5
q92 0 184 137t92 231q0 132 -76 132zM636 830h-192q-28 0 -40 -4t-28 -4q-13 0 -25.5 12.5t-12.5 23.5q0 33 24.5 48.5t77.5 15.5l154 -4q32 0 62 6q12 4 28 4q13 0 27.5 -15t14.5 -29q0 -20 -11 -35t-27 -21h-27q-16 2 -25 2z" />
    <glyph glyph-name="Ohungarumlaut" unicode="&#x150;" horiz-adv-x="910" 
d="M174 240q0 102 60.5 239t157 240t182.5 141t112 38q10 0 30 20q26 26 60 26q86 0 160 -64t74 -210q0 -160 -105.5 -334.5t-244 -264t-252.5 -89.5q-85 0 -159.5 63t-74.5 195zM756 756q-23 0 -30 22q-9 28 -44 28q-48 0 -138.5 -86.5t-166 -230.5t-75.5 -263
q0 -69 30.5 -110.5t85.5 -41.5q69 0 183.5 77t212.5 253.5t98 323.5q0 50 -29.5 83.5t-47.5 32.5q-8 0 -8 -7l2 -20q0 -26 -25.5 -43.5t-47.5 -17.5zM643 1016q0 16 51 78t84.5 110t55.5 48t44.5 -8.5t22.5 -21.5q0 -7 -3.5 -15t-47 -52t-93.5 -87.5t-70 -53.5t-31 -10
q-13 0 -13 12zM832 990q0 13 84 107q81 91 94 113q18 30 86 30q22 0 22 -26q0 -35 -119 -134.5t-153 -99.5q-14 0 -14 10z" />
    <glyph glyph-name="ohungarumlaut" unicode="&#x151;" horiz-adv-x="622" 
d="M214 -22q-38 0 -74 41.5t-36 92.5q0 64 34 165t150 259q24 30 24 62q0 28 23 51t55 23q29 0 46 22q23 32 62 32q54 0 54 -52q0 -24 10 -30q98 -64 98 -208q0 -65 -53 -175t-171 -196.5t-222 -86.5zM478 580q-52 0 -152 -161t-100 -271q0 -31 14.5 -49.5t37.5 -18.5
q92 0 184 137t92 231q0 132 -76 132zM346 806q0 11 77.5 111.5t97.5 127.5t51 27q20 0 39.5 -11.5t19.5 -22.5q0 -29 -113 -137.5t-156 -108.5q-16 0 -16 14zM544 780q0 10 65 87q106 126 121 153q7 14 34.5 26t53.5 12q37 0 37 -28q0 -36 -126 -149t-171 -113q-14 0 -14 12
z" />
    <glyph glyph-name="Racute" unicode="&#x154;" horiz-adv-x="988" 
d="M567 980q25 0 47.5 -14.5t22.5 -47.5q0 -8 14 -8q98 0 174 -53.5t76 -148.5q0 -146 -280 -270q-21 -9 -21 -20q0 -14 105 -164t150.5 -189t99.5 -39q21 0 50.5 12.5t47.5 29.5q8 7 13 7q7 0 7 -9q0 -31 -54.5 -73.5t-117.5 -42.5q-74 0 -146 66.5t-196 243.5
q-62 88 -77 103t-37 15q-13 0 -21 -14t-50 -134.5t-42 -132.5q0 -11 21 -15q105 -23 105 -41q0 -12 -33.5 -28t-107.5 -19q-14 0 -38 -8q-18 -14 -44 -14q-34 0 -69.5 25t-35.5 51q0 31 71 44q21 3 29.5 37t44.5 130t36 112l-7 45q0 36 29 48q22 7 29.5 38t58.5 162t51 147
q0 7 -8 7q-65 0 -97 -44q-25 -37 -52 -37q-18 0 -37.5 21.5t-19.5 40.5q0 75 225 105q25 2 34 26q20 50 50 50zM479 476q25 0 108 35t141.5 89.5t58.5 93.5q0 57 -50 93.5t-112 36.5q-18 0 -29.5 -18t-67.5 -162t-56 -158q0 -10 7 -10zM677 1022q-22 0 -22 12q0 20 24 44
q90 85 146 154q34 40 60 40q27 0 49 -18.5t22 -40.5q0 -40 -119 -115.5t-160 -75.5z" />
    <glyph glyph-name="racute" unicode="&#x155;" horiz-adv-x="564" 
d="M288 330q6 0 18 18q246 360 362 360q29 0 46 -16.5t17 -41.5q0 -31 -24 -67.5t-47 -36.5q-9 0 -16 6q-22 18 -46 18q-44 0 -159 -152.5t-223 -389.5q-20 -42 -48 -42q-19 0 -39.5 18t-20.5 41q0 17 10 43q46 116 100 444q9 58 18.5 78t39.5 48t48 28q19 0 32.5 -21.5
t13.5 -42.5q0 -26 -20 -56q-22 -34 -44.5 -118t-22.5 -108q0 -10 5 -10zM448 770q-18 0 -18 12q0 18 20 36q84 76 190 208q31 40 60 40q24 0 45.5 -17.5t21.5 -35.5q0 -12 -11.5 -29t-82 -75t-117.5 -88t-72 -40.5t-36 -10.5z" />
    <glyph glyph-name="Rcommaaccent" unicode="&#x156;" horiz-adv-x="988" 
d="M567 980q25 0 47.5 -14.5t22.5 -47.5q0 -8 14 -8q98 0 174 -53.5t76 -148.5q0 -146 -280 -270q-21 -9 -21 -20q0 -14 105 -164t150.5 -189t99.5 -39q21 0 50.5 12.5t47.5 29.5q8 7 13 7q7 0 7 -9q0 -31 -54.5 -73.5t-117.5 -42.5q-74 0 -146 66.5t-196 243.5
q-62 88 -77 103t-37 15q-13 0 -21 -14t-50 -134.5t-42 -132.5q0 -11 21 -15q105 -23 105 -41q0 -12 -33.5 -28t-107.5 -19q-14 0 -38 -8q-18 -14 -44 -14q-34 0 -69.5 25t-35.5 51q0 31 71 44q21 3 29.5 37t44.5 130t36 112l-7 45q0 36 29 48q22 7 29.5 38t58.5 162t51 147
q0 7 -8 7q-65 0 -97 -44q-25 -37 -52 -37q-18 0 -37.5 21.5t-19.5 40.5q0 75 225 105q25 2 34 26q20 50 50 50zM479 476q25 0 108 35t141.5 89.5t58.5 93.5q0 57 -50 93.5t-112 36.5q-18 0 -29.5 -18t-67.5 -162t-56 -158q0 -10 7 -10zM543 -80q35 0 56.5 -22t21.5 -60
q0 -63 -58 -127t-148.5 -111.5t-117.5 -47.5q-10 0 -10 12q0 9 24 24q77 45 131.5 107.5t54.5 108.5q0 24 -20 48q-7 9 -7 18q0 15 22.5 32.5t50.5 17.5z" />
    <glyph glyph-name="rcommaaccent" unicode="&#x157;" horiz-adv-x="564" 
d="M288 330q6 0 18 18q246 360 362 360q29 0 46 -16.5t17 -41.5q0 -31 -24 -67.5t-47 -36.5q-9 0 -16 6q-22 18 -46 18q-44 0 -159 -152.5t-223 -389.5q-20 -42 -48 -42q-19 0 -39.5 18t-20.5 41q0 17 10 43q46 116 100 444q9 58 18.5 78t39.5 48t48 28q19 0 32.5 -21.5
t13.5 -42.5q0 -26 -20 -56q-22 -34 -44.5 -118t-22.5 -108q0 -10 5 -10zM164 -80q35 0 56.5 -22t21.5 -60q0 -63 -58 -127t-148.5 -111.5t-117.5 -47.5q-10 0 -10 12q0 9 24 24q77 45 131.5 107.5t54.5 108.5q0 24 -20 48q-7 9 -7 18q0 15 22.5 32.5t50.5 17.5z" />
    <glyph glyph-name="Rcaron" unicode="&#x158;" horiz-adv-x="988" 
d="M567 980q25 0 47.5 -14.5t22.5 -47.5q0 -8 14 -8q98 0 174 -53.5t76 -148.5q0 -146 -280 -270q-21 -9 -21 -20q0 -14 105 -164t150.5 -189t99.5 -39q21 0 50.5 12.5t47.5 29.5q8 7 13 7q7 0 7 -9q0 -31 -54.5 -73.5t-117.5 -42.5q-74 0 -146 66.5t-196 243.5
q-62 88 -77 103t-37 15q-13 0 -21 -14t-50 -134.5t-42 -132.5q0 -11 21 -15q105 -23 105 -41q0 -12 -33.5 -28t-107.5 -19q-14 0 -38 -8q-18 -14 -44 -14q-34 0 -69.5 25t-35.5 51q0 31 71 44q21 3 29.5 37t44.5 130t36 112l-7 45q0 36 29 48q22 7 29.5 38t58.5 162t51 147
q0 7 -8 7q-65 0 -97 -44q-25 -37 -52 -37q-18 0 -37.5 21.5t-19.5 40.5q0 75 225 105q25 2 34 26q20 50 50 50zM479 476q25 0 108 35t141.5 89.5t58.5 93.5q0 57 -50 93.5t-112 36.5q-18 0 -29.5 -18t-67.5 -162t-56 -158q0 -10 7 -10zM982 1239q0 -9 -17 -31
q-145 -111 -186 -154q-28 -28 -58 -28t-44 38q-30 93 -76 142q-9 12 -9 20q0 10 19.5 25t35.5 15q27 0 48.5 -25t47.5 -77q7 -16 14 -16q4 0 12 8q139 119 183 119q30 0 30 -36z" />
    <glyph glyph-name="rcaron" unicode="&#x159;" horiz-adv-x="564" 
d="M288 330q6 0 18 18q246 360 362 360q29 0 46 -16.5t17 -41.5q0 -31 -24 -67.5t-47 -36.5q-9 0 -16 6q-22 18 -46 18q-44 0 -159 -152.5t-223 -389.5q-20 -42 -48 -42q-19 0 -39.5 18t-20.5 41q0 17 10 43q46 116 100 444q9 58 18.5 78t39.5 48t48 28q19 0 32.5 -21.5
t13.5 -42.5q0 -26 -20 -56q-22 -34 -44.5 -118t-22.5 -108q0 -10 5 -10zM703 1039q0 -22 -25 -47q-117 -113 -160 -174q-22 -32 -54 -32q-28 0 -38 44q-30 115 -68 166q-10 14 -10 26q0 9 18 23.5t32 14.5q23 0 41 -22t45 -104q5 -18 13 -18q4 0 41 42q69 78 90.5 96.5
t41.5 18.5q33 0 33 -34z" />
    <glyph glyph-name="Sacute" unicode="&#x15a;" horiz-adv-x="592" 
d="M328 578q0 84 68.5 166.5t190 140t177.5 57.5q58 0 58 -53q0 -26 -25.5 -53.5t-64.5 -27.5l-79 3q-77 0 -140 -54.5t-63 -134.5q0 -72 46 -198q48 -131 48 -216q0 -61 -40 -116t-119.5 -82.5t-158.5 -27.5q-164 0 -164 72q0 31 23.5 49t45.5 18q15 0 27 -9
q68 -44 124 -44q57 0 99.5 38t42.5 100q0 68 -52 200q-44 111 -44 172zM612 1012q-22 0 -22 12q0 20 24 44q90 85 146 154q34 40 60 40q27 0 49 -18.5t22 -40.5q0 -40 -119 -115.5t-160 -75.5z" />
    <glyph glyph-name="sacute" unicode="&#x15b;" horiz-adv-x="472" 
d="M194 416q0 61 56 136t129 111.5t131 36.5q55 0 81.5 -19.5t26.5 -40.5q0 -38 -64 -38q-86 0 -167 -55t-81 -113q0 -51 50 -120q74 -99 74 -170q0 -78 -100 -134t-154 -56q-31 0 -57.5 17t-26.5 35q0 26 39 57t59 31q7 0 24 -6q22 -10 43 -10q30 0 47.5 14.5t17.5 29.5
q0 39 -38 98q-90 132 -90 196zM402 770q-18 0 -18 12q0 18 20 36q84 76 190 208q31 40 60 40q24 0 45.5 -17.5t21.5 -35.5q0 -12 -11.5 -29t-82 -75t-117.5 -88t-72 -40.5t-36 -10.5z" />
    <glyph glyph-name="Scommaaccent" unicode="&#x15e;" horiz-adv-x="592" 
d="M328 578q0 84 68.5 166.5t190 140t177.5 57.5q58 0 58 -53q0 -26 -25.5 -53.5t-64.5 -27.5l-79 3q-77 0 -140 -54.5t-63 -134.5q0 -72 46 -198q48 -131 48 -216q0 -61 -40 -116t-119.5 -82.5t-158.5 -27.5q-164 0 -164 72q0 31 23.5 49t45.5 18q15 0 27 -9
q68 -44 124 -44q57 0 99.5 38t42.5 100q0 68 -52 200q-44 111 -44 172zM278 -80q35 0 56.5 -22t21.5 -60q0 -63 -58 -127t-148.5 -111.5t-117.5 -47.5q-10 0 -10 12q0 9 24 24q77 45 131.5 107.5t54.5 108.5q0 24 -20 48q-7 9 -7 18q0 15 22.5 32.5t50.5 17.5z" />
    <glyph glyph-name="scommaaccent" unicode="&#x15f;" horiz-adv-x="472" 
d="M194 416q0 61 56 136t129 111.5t131 36.5q55 0 81.5 -19.5t26.5 -40.5q0 -38 -64 -38q-86 0 -167 -55t-81 -113q0 -51 50 -120q74 -99 74 -170q0 -78 -100 -134t-154 -56q-31 0 -57.5 17t-26.5 35q0 26 39 57t59 31q7 0 24 -6q22 -10 43 -10q30 0 47.5 14.5t17.5 29.5
q0 39 -38 98q-90 132 -90 196zM218 -80q35 0 56.5 -22t21.5 -60q0 -63 -58 -127t-148.5 -111.5t-117.5 -47.5q-10 0 -10 12q0 9 24 24q77 45 131.5 107.5t54.5 108.5q0 24 -20 48q-7 9 -7 18q0 15 22.5 32.5t50.5 17.5z" />
    <glyph glyph-name="Tcommaaccent" unicode="&#x162;" horiz-adv-x="1066" 
d="M751 881q17 0 23 13q20 40 44 40q22 0 54 -42q9 -13 20.5 -17t82.5 -7.5t135 -3.5q31 0 56.5 29t37.5 29q26 0 50 -29t24 -63q0 -28 -23.5 -51t-52.5 -23q-11 0 -52 18q-30 13 -44 15h-83l-131 3q-14 0 -22 -9t-65 -165l-190 -509q0 -7 15 -7q57 0 115.5 -12t58.5 -25
q0 -22 -72.5 -38.5t-153.5 -16.5q-21 0 -38 -10q-69 -46 -96 -46q-21 0 -41.5 18t-20.5 38q0 57 98 84q19 5 34.5 34t115.5 339.5t100 311.5q0 5 -7.5 8t-74.5 6t-182 3q-107 0 -130 -86q-4 -15 -15 -15q-15 0 -24 32t-9 53q0 116 202 116q67 0 143 -6zM536 -80
q35 0 56.5 -22t21.5 -60q0 -63 -58 -127t-148.5 -111.5t-117.5 -47.5q-10 0 -10 12q0 9 24 24q77 45 131.5 107.5t54.5 108.5q0 24 -20 48q-7 9 -7 18q0 15 22.5 32.5t50.5 17.5z" />
    <glyph glyph-name="tcommaaccent" unicode="&#x163;" horiz-adv-x="534" 
d="M243 155q0 -63 58 -63q94 0 258 112q10 7 18 7q12 0 12 -16q0 -39 -145.5 -126t-226.5 -87q-39 0 -75.5 30t-36.5 76q0 31 37 138l89 262q4 9 4 14q0 6 -10 6q-7 0 -61 -6q-35 -4 -40 -4q-19 0 -32.5 10t-13.5 25q0 16 16.5 33t50.5 24q109 17 118.5 20.5t16 15.5
t47.5 123q33 92 45.5 124t38 53.5t46.5 21.5q19 0 31.5 -18.5t12.5 -36.5t-10 -39q-35 -67 -65.5 -142t-30.5 -84q0 -8 22 -8l170 9q94 5 164 5q23 0 23 -14q0 -9 -14 -22t-131.5 -33.5t-249.5 -38.5q-21 -2 -28.5 -10t-57.5 -157t-50 -204zM230 -92q35 0 56.5 -22t21.5 -60
q0 -63 -58 -127t-148.5 -111.5t-117.5 -47.5q-10 0 -10 12q0 9 24 24q77 45 131.5 107.5t54.5 108.5q0 24 -20 48q-7 9 -7 18q0 15 22.5 32.5t50.5 17.5z" />
    <glyph glyph-name="Tcaron" unicode="&#x164;" horiz-adv-x="1066" 
d="M751 881q17 0 23 13q20 40 44 40q22 0 54 -42q9 -13 20.5 -17t82.5 -7.5t135 -3.5q31 0 56.5 29t37.5 29q26 0 50 -29t24 -63q0 -28 -23.5 -51t-52.5 -23q-11 0 -52 18q-30 13 -44 15h-83l-131 3q-14 0 -22 -9t-65 -165l-190 -509q0 -7 15 -7q57 0 115.5 -12t58.5 -25
q0 -22 -72.5 -38.5t-153.5 -16.5q-21 0 -38 -10q-69 -46 -96 -46q-21 0 -41.5 18t-20.5 38q0 57 98 84q19 5 34.5 34t115.5 339.5t100 311.5q0 5 -7.5 8t-74.5 6t-182 3q-107 0 -130 -86q-4 -15 -15 -15q-15 0 -24 32t-9 53q0 116 202 116q67 0 143 -6zM1119 1239
q0 -9 -17 -31q-145 -111 -186 -154q-28 -28 -58 -28t-44 38q-30 93 -76 142q-9 12 -9 20q0 10 19.5 25t35.5 15q27 0 48.5 -25t47.5 -77q7 -16 14 -16q4 0 12 8q139 119 183 119q30 0 30 -36z" />
    <glyph glyph-name="tcaron" unicode="&#x165;" horiz-adv-x="534" 
d="M243 155q0 -63 58 -63q94 0 258 112q10 7 18 7q12 0 12 -16q0 -39 -145.5 -126t-226.5 -87q-39 0 -75.5 30t-36.5 76q0 31 37 138l89 262q4 9 4 14q0 6 -10 6q-7 0 -61 -6q-35 -4 -40 -4q-19 0 -32.5 10t-13.5 25q0 16 16.5 33t50.5 24q109 17 118.5 20.5t16 15.5
t47.5 123q33 92 45.5 124t38 53.5t46.5 21.5q19 0 31.5 -18.5t12.5 -36.5t-10 -39q-35 -67 -65.5 -142t-30.5 -84q0 -8 22 -8l170 9q94 5 164 5q23 0 23 -14q0 -9 -14 -22t-131.5 -33.5t-249.5 -38.5q-21 -2 -28.5 -10t-57.5 -157t-50 -204zM769 1070q35 0 56.5 -22
t21.5 -60q0 -63 -58 -127t-148.5 -111.5t-117.5 -47.5q-10 0 -10 12q0 9 24 24q77 45 131.5 107.5t54.5 108.5q0 24 -20 48q-7 9 -7 18q0 15 22.5 32.5t50.5 17.5z" />
    <glyph glyph-name="Umacron" unicode="&#x16a;" horiz-adv-x="1068" 
d="M372 146q93 0 328.5 248.5t283.5 367.5q44 111 62.5 136.5t45.5 25.5q18 0 41.5 -29t23.5 -49q0 -23 -21 -56q-95 -159 -144 -354.5t-49 -261.5q0 -16 9 -16q8 0 24 10q46 29 98 48.5t69 19.5q14 0 14 -10q0 -13 -21 -26q-55 -36 -132 -108.5t-102 -105.5
q-17 -20 -32 -20q-71 0 -71 75q0 47 40 201l63 242q0 6 -5 6q-6 0 -17 -12q-418 -478 -598 -478q-80 0 -80 68q0 63 41 220t155 444q18 46 18 89l-3 36q0 16 12.5 28t50.5 35.5t58 23.5q15 0 28 -16t13 -39q0 -22 -11 -45q-89 -190 -155.5 -379t-66.5 -263q0 -56 30 -56z
M768 1070q-28 0 -40 -4q-8 -4 -28 -4q-13 0 -25.5 12.5t-12.5 23.5q0 33 24.5 48.5t77.5 15.5l162 -4q22 0 58 6q12 4 26 4q12 0 26 -15.5t14 -28.5q0 -17 -11 -32.5t-19.5 -20t-24.5 -4.5q-13 3 -21 3h-206z" />
    <glyph glyph-name="umacron" unicode="&#x16b;" horiz-adv-x="884" 
d="M683 150q0 -48 31 -48q48 0 165.5 98.5t244.5 237.5q10 12 19 12q15 0 15 -23q0 -50 -139.5 -192t-233 -197.5t-145.5 -55.5q-65 0 -65 108q0 55 19 132l32 123q0 9 -6 9t-16 -12q-74 -101 -217.5 -227.5t-214.5 -126.5q-23 0 -42.5 33.5t-19.5 80.5q0 81 79.5 281
t112 248.5t58.5 48.5q27 0 51.5 -18.5t24.5 -41.5q0 -12 -32.5 -67.5t-51.5 -73.5q-24 -22 -29 -34l-46 -117q-41 -106 -41 -149t30 -43q57 0 191 150t261 360q39 64 68 64q18 0 35.5 -20t17.5 -42t-33 -84q-47 -99 -85 -232.5t-38 -181.5zM746 830h-192q-28 0 -40 -4
t-28 -4q-13 0 -25.5 12.5t-12.5 23.5q0 33 24.5 48.5t77.5 15.5l154 -4q32 0 62 6q12 4 28 4q13 0 27.5 -15t14.5 -29q0 -20 -11 -35t-27 -21h-27q-16 2 -25 2z" />
    <glyph glyph-name="Uring" unicode="&#x16e;" horiz-adv-x="1068" 
d="M372 146q93 0 328.5 248.5t283.5 367.5q44 111 62.5 136.5t45.5 25.5q18 0 41.5 -29t23.5 -49q0 -23 -21 -56q-95 -159 -144 -354.5t-49 -261.5q0 -16 9 -16q8 0 24 10q46 29 98 48.5t69 19.5q14 0 14 -10q0 -13 -21 -26q-55 -36 -132 -108.5t-102 -105.5
q-17 -20 -32 -20q-71 0 -71 75q0 47 40 201l63 242q0 6 -5 6q-6 0 -17 -12q-418 -478 -598 -478q-80 0 -80 68q0 63 41 220t155 444q18 46 18 89l-3 36q0 16 12.5 28t50.5 35.5t58 23.5q15 0 28 -16t13 -39q0 -22 -11 -45q-89 -190 -155.5 -379t-66.5 -263q0 -56 30 -56z
M682 1122q0 59 55 113.5t113 54.5q70 0 109 -37t39 -105q0 -59 -65 -112.5t-125 -53.5q-48 0 -87 45t-39 95zM922 1142q0 32 -23 51t-59 19q-25 0 -51.5 -21.5t-26.5 -52.5t18 -54.5t48 -23.5q37 0 65.5 26t28.5 56z" />
    <glyph glyph-name="uring" unicode="&#x16f;" horiz-adv-x="884" 
d="M683 150q0 -48 31 -48q48 0 165.5 98.5t244.5 237.5q10 12 19 12q15 0 15 -23q0 -50 -139.5 -192t-233 -197.5t-145.5 -55.5q-65 0 -65 108q0 55 19 132l32 123q0 9 -6 9t-16 -12q-74 -101 -217.5 -227.5t-214.5 -126.5q-23 0 -42.5 33.5t-19.5 80.5q0 81 79.5 281
t112 248.5t58.5 48.5q27 0 51.5 -18.5t24.5 -41.5q0 -12 -32.5 -67.5t-51.5 -73.5q-24 -22 -29 -34l-46 -117q-41 -106 -41 -149t30 -43q57 0 191 150t261 360q39 64 68 64q18 0 35.5 -20t17.5 -42t-33 -84q-47 -99 -85 -232.5t-38 -181.5zM558 932q0 59 55 113.5t113 54.5
q70 0 109 -37t39 -105q0 -58 -65 -112t-125 -54q-48 0 -87 45t-39 95zM798 952q0 32 -23 51t-59 19q-25 0 -51.5 -21.5t-26.5 -52.5t18 -54.5t48 -23.5q37 0 65.5 26t28.5 56z" />
    <glyph glyph-name="Uhungarumlaut" unicode="&#x170;" horiz-adv-x="1068" 
d="M372 146q93 0 328.5 248.5t283.5 367.5q44 111 62.5 136.5t45.5 25.5q18 0 41.5 -29t23.5 -49q0 -23 -21 -56q-95 -159 -144 -354.5t-49 -261.5q0 -16 9 -16q8 0 24 10q46 29 98 48.5t69 19.5q14 0 14 -10q0 -13 -21 -26q-55 -36 -132 -108.5t-102 -105.5
q-17 -20 -32 -20q-71 0 -71 75q0 47 40 201l63 242q0 6 -5 6q-6 0 -17 -12q-418 -478 -598 -478q-80 0 -80 68q0 63 41 220t155 444q18 46 18 89l-3 36q0 16 12.5 28t50.5 35.5t58 23.5q15 0 28 -16t13 -39q0 -22 -11 -45q-89 -190 -155.5 -379t-66.5 -263q0 -56 30 -56z
M661 1016q0 16 51 78t84.5 110t55.5 48t44.5 -8.5t22.5 -21.5q0 -7 -3.5 -15t-47 -52t-93.5 -87.5t-70 -53.5t-31 -10q-13 0 -13 12zM850 990q0 13 84 107q81 91 94 113q18 30 86 30q22 0 22 -26q0 -35 -119 -134.5t-153 -99.5q-14 0 -14 10z" />
    <glyph glyph-name="uhungarumlaut" unicode="&#x171;" horiz-adv-x="884" 
d="M683 150q0 -48 31 -48q48 0 165.5 98.5t244.5 237.5q10 12 19 12q15 0 15 -23q0 -50 -139.5 -192t-233 -197.5t-145.5 -55.5q-65 0 -65 108q0 55 19 132l32 123q0 9 -6 9t-16 -12q-74 -101 -217.5 -227.5t-214.5 -126.5q-23 0 -42.5 33.5t-19.5 80.5q0 81 79.5 281
t112 248.5t58.5 48.5q27 0 51.5 -18.5t24.5 -41.5q0 -12 -32.5 -67.5t-51.5 -73.5q-24 -22 -29 -34l-46 -117q-41 -106 -41 -149t30 -43q57 0 191 150t261 360q39 64 68 64q18 0 35.5 -20t17.5 -42t-33 -84q-47 -99 -85 -232.5t-38 -181.5zM456 806q0 11 77.5 111.5
t97.5 127.5t51 27q20 0 39.5 -11.5t19.5 -22.5q0 -29 -113 -137.5t-156 -108.5q-16 0 -16 14zM654 780q0 10 65 87q106 126 121 153q7 14 34.5 26t53.5 12q37 0 37 -28q0 -36 -126 -149t-171 -113q-14 0 -14 12z" />
    <glyph glyph-name="Uogonek" unicode="&#x172;" horiz-adv-x="1068" 
d="M812 -12q-13 18 -13 50q0 48 39 203l64 243q0 6 -5 6q-6 0 -17 -12q-418 -478 -598 -478q-80 0 -80 68q0 63 41 220t155 444q18 46 18 89l-3 36q0 16 12.5 28t50.5 35.5t58 23.5q15 0 28 -16t13 -39q0 -22 -11 -45q-89 -190 -155.5 -379t-66.5 -263q0 -56 30 -56
q93 0 328.5 248.5t283.5 367.5q44 111 62.5 136.5t45.5 25.5q18 0 41.5 -29t23.5 -49q0 -23 -21 -56q-95 -159 -144 -354.5t-49 -261.5q0 -16 9 -16q8 0 24 10q45 28 97.5 48t69.5 20q14 0 14 -9q0 -13 -21 -27q-47 -30 -109.5 -86.5t-82.5 -80t-61.5 -90t-62 -115.5
t-20.5 -78q0 -42 32 -42q58 0 78 40q9 23 37 45.5t55 22.5q16 0 28 -14t12 -34q0 -40 -84 -90t-142 -50q-49 0 -86.5 25.5t-37.5 70.5q0 44 120 264zM870 -34z" />
    <glyph glyph-name="uogonek" unicode="&#x173;" horiz-adv-x="884" 
d="M642 -18q-67 0 -67 108q0 55 19 132l32 123q0 9 -6 9t-16 -12q-74 -101 -217.5 -227.5t-214.5 -126.5q-23 0 -42.5 33.5t-19.5 80.5q0 81 79.5 281t112 248.5t58.5 48.5q27 0 51.5 -18.5t24.5 -41.5q0 -12 -32.5 -67.5t-51.5 -73.5q-24 -22 -29 -34l-46 -117
q-41 -106 -41 -149t30 -43q57 0 191 150t261 360q39 64 68 64q18 0 35.5 -20t17.5 -42t-33 -84q-47 -99 -85 -232.5t-38 -181.5t31 -48q48 0 165.5 98.5t244.5 237.5q10 12 19 12q15 0 15 -23q0 -47 -130.5 -183.5t-245.5 -209.5q-176 -210 -176 -264q0 -42 32 -42
q58 0 78 40q10 23 38.5 45.5t53.5 22.5q16 0 28 -14t12 -34q0 -41 -85 -90.5t-141 -49.5q-49 0 -86.5 25.5t-37.5 70.5q0 27 20 73.5t124 164.5z" />
    <glyph glyph-name="Zacute" unicode="&#x179;" horiz-adv-x="1082" 
d="M243 690q0 80 65.5 155t155.5 75q92 0 182 -16q226 -42 290 -42q39 0 60 24q48 52 62 52q42 0 42 -66q0 -37 -19 -70.5t-37 -33.5q-19 0 -48 -36q-259 -289 -564 -560q-17 -14 -17 -24q0 -8 11 -10q66 -10 218 -52q154 -42 236 -42q112 0 124 96q2 24 22 40.5t38 16.5
q25 0 45.5 -25.5t20.5 -45.5q0 -51 -107 -113.5t-213 -62.5q-77 0 -300 56q-177 44 -201 44q-42 0 -75 -48q-11 -16 -32 -16q-13 0 -31.5 20.5t-18.5 46.5q0 33 34 62t54 31q46 6 345 301t299 320q0 4 -3.5 6t-53 6t-172 20.5t-193.5 16.5q-48 0 -89 -19t-89 -87
q-27 -38 -32 -38q-9 0 -9 18zM670 1022q-22 0 -22 12q0 20 24 44q90 85 146 154q34 40 60 40q27 0 49 -18.5t22 -40.5q0 -40 -119 -115.5t-160 -75.5z" />
    <glyph glyph-name="zacute" unicode="&#x17a;" horiz-adv-x="820" 
d="M415 206q0 -21 96 -72.5t163 -51.5q165 0 286 194q10 15 20 15q12 0 12 -15q0 -25 -53 -106t-128.5 -132.5t-158.5 -51.5q-46 0 -103.5 18.5t-210.5 107.5q-11 6 -19 6q-11 0 -27 -16q-88 -88 -106.5 -101.5t-32.5 -13.5q-17 0 -25 14t-8 23q0 40 82 130q10 10 10 40
q0 35 19.5 59.5t40.5 24.5q19 0 40 -18q5 -4 10 -4q7 0 43 39l196 209q40 42 40 48q0 5 -6 7t-107.5 10.5t-109.5 8.5q-57 0 -57 -72q0 -31 15 -68q3 -7 3 -13q0 -10 -11 -10q-24 0 -63.5 52t-39.5 86t46 76.5t91 42.5q24 0 172 -18q70 -10 126 -10q33 0 52 14q24 16 44 16
q27 0 58.5 -19.5t31.5 -46.5q0 -15 -11.5 -37.5t-30.5 -22.5l-36 2q-41 0 -115 -79l-156 -163q-82 -85 -82 -102zM546 770q-18 0 -18 12q0 18 20 36q84 76 190 208q31 40 60 40q24 0 45.5 -17.5t21.5 -35.5q0 -12 -11.5 -29t-82 -75t-117.5 -88t-72 -40.5t-36 -10.5z" />
    <glyph glyph-name="Zdotaccent" unicode="&#x17b;" horiz-adv-x="1082" 
d="M243 690q0 80 65.5 155t155.5 75q92 0 182 -16q226 -42 290 -42q39 0 60 24q48 52 62 52q42 0 42 -66q0 -37 -19 -70.5t-37 -33.5q-19 0 -48 -36q-259 -289 -564 -560q-17 -14 -17 -24q0 -8 11 -10q66 -10 218 -52q154 -42 236 -42q112 0 124 96q2 24 22 40.5t38 16.5
q25 0 45.5 -25.5t20.5 -45.5q0 -51 -107 -113.5t-213 -62.5q-77 0 -300 56q-177 44 -201 44q-42 0 -75 -48q-11 -16 -32 -16q-13 0 -31.5 20.5t-18.5 46.5q0 33 34 62t54 31q46 6 345 301t299 320q0 4 -3.5 6t-53 6t-172 20.5t-193.5 16.5q-48 0 -89 -19t-89 -87
q-27 -38 -32 -38q-9 0 -9 18zM788 1124q0 -36 -25.5 -64t-60.5 -28q-27 0 -49.5 28.5t-22.5 55.5q0 33 24.5 55.5t59.5 22.5q36 0 55 -22t19 -48z" />
    <glyph glyph-name="zdotaccent" unicode="&#x17c;" horiz-adv-x="820" 
d="M415 206q0 -21 96 -72.5t163 -51.5q165 0 286 194q10 15 20 15q12 0 12 -15q0 -25 -53 -106t-128.5 -132.5t-158.5 -51.5q-46 0 -103.5 18.5t-210.5 107.5q-11 6 -19 6q-11 0 -27 -16q-88 -88 -106.5 -101.5t-32.5 -13.5q-17 0 -25 14t-8 23q0 40 82 130q10 10 10 40
q0 35 19.5 59.5t40.5 24.5q19 0 40 -18q5 -4 10 -4q7 0 43 39l196 209q40 42 40 48q0 5 -6 7t-107.5 10.5t-109.5 8.5q-57 0 -57 -72q0 -31 15 -68q3 -7 3 -13q0 -10 -11 -10q-24 0 -63.5 52t-39.5 86t46 76.5t91 42.5q24 0 172 -18q70 -10 126 -10q33 0 52 14q24 16 44 16
q27 0 58.5 -19.5t31.5 -46.5q0 -15 -11.5 -37.5t-30.5 -22.5l-36 2q-41 0 -115 -79l-156 -163q-82 -85 -82 -102zM636 884q0 -36 -25.5 -64t-60.5 -28q-27 0 -49.5 28.5t-22.5 55.5q0 32 24.5 55t59.5 23q36 0 55 -22t19 -48z" />
    <glyph glyph-name="commaaccent" unicode="&#xf6c3;" 
d="M354 -80q35 0 56.5 -22t21.5 -60q0 -63 -58 -127t-148.5 -111.5t-117.5 -47.5q-10 0 -10 12q0 9 24 24q77 45 131.5 107.5t54.5 108.5q0 24 -20 48q-7 9 -7 18q0 15 22.5 32.5t50.5 17.5z" />
    <glyph glyph-name="UCacute" unicode="&#xf100;" horiz-adv-x="818" 
d="M546 1022q-22 0 -22 12q0 20 24 44q90 85 146 154q34 40 60 40q27 0 49 -18.5t22 -40.5q0 -40 -119 -115.5t-160 -75.5z" />
    <glyph glyph-name="UCdieresis" unicode="&#xf101;" horiz-adv-x="1068" 
d="M642 1124q0 74 84 74q70 0 70 -70q0 -28 -29 -57t-55 -29q-25 0 -47.5 26t-22.5 56zM880 1106q0 33 26 61.5t62 28.5q25 0 49.5 -24.5t24.5 -49.5q0 -32 -33 -56t-69 -24q-20 0 -40 19t-20 45z" />
    <glyph glyph-name="UCcircumflex" unicode="&#xf102;" horiz-adv-x="970" 
d="M620 1044q0 16 19 28q141 100 196 168q21 26 58 26q25 0 34 -34q9 -32 35 -80t49 -74q6 -6 6 -16q0 -14 -15 -27t-39 -13q-42 0 -94 108q-4 7 -9 7q-6 0 -17 -11q-112 -112 -184 -112q-15 0 -27 9t-12 21z" />
    <glyph glyph-name="UCtilde" unicode="&#xf103;" horiz-adv-x="1008" 
d="M596 1025q0 47 45 100t90 53q36 0 88 -56q49 -52 68 -52q27 0 48 76q9 30 34 30q37 0 37 -51q0 -56 -41.5 -104.5t-85.5 -48.5q-27 0 -48 14.5t-56 49.5q-45 42 -56 42q-16 0 -30.5 -25.5t-21.5 -56.5q-4 -22 -28 -22q-43 0 -43 51z" />
    <glyph glyph-name="UCmacron" unicode="&#xf104;" horiz-adv-x="970" 
d="M750 1080q-28 0 -40 -4q-8 -4 -28 -4q-13 0 -25.5 12.5t-12.5 23.5q0 33 24.5 48.5t77.5 15.5l162 -4q22 0 58 6q12 4 26 4q12 0 26 -15.5t14 -28.5q0 -17 -11 -32.5t-19.5 -20t-24.5 -4.5q-13 3 -21 3h-206z" />
    <glyph glyph-name="UCbreve" unicode="&#xf105;" horiz-adv-x="900" 
d="M994 1199q0 -44 -57.5 -112.5t-156.5 -68.5q-138 0 -138 166q0 13 15 28.5t35 15.5q16 0 28.5 -10.5t12.5 -26.5l-4 -40q0 -18 19 -36.5t52 -18.5q46 0 78 30.5t44 71.5q10 30 48 30q24 0 24 -29z" />
    <glyph glyph-name="UCdotaccent" unicode="&#xf106;" horiz-adv-x="1082" 
d="M776 1124q0 -36 -25.5 -64t-60.5 -28q-27 0 -49.5 28.5t-22.5 55.5q0 33 24.5 55.5t59.5 22.5q36 0 55 -22t19 -48z" />
    <glyph glyph-name="UCring" unicode="&#xf107;" horiz-adv-x="1068" 
d="M682 1122q0 59 55 113.5t113 54.5q70 0 109 -37t39 -105q0 -59 -65 -112.5t-125 -53.5q-48 0 -87 45t-39 95zM922 1142q0 32 -23 51t-59 19q-25 0 -51.5 -21.5t-26.5 -52.5t18 -54.5t48 -23.5q37 0 65.5 26t28.5 56z" />
    <glyph glyph-name="UCcedilla" unicode="&#xf108;" 
d="M268 -162q0 43 56 112.5t96 69.5q16 0 16 -14t-16 -34q-50 -61 -50 -88q0 -25 56 -70q30 -23 30 -76q0 -42 -43 -84t-81.5 -48.5t-97.5 -6.5l-43 -6q-20 0 -39.5 16t-19.5 39q0 22 31.5 48t52.5 26q25 0 44 -34q8 -14 34 -14q17 0 39.5 12.5t22.5 31.5q0 22 -50 62
q-38 31 -38 58z" />
    <glyph glyph-name="UChungarumlaut" unicode="&#xf109;" horiz-adv-x="1068" 
d="M666 1016q0 16 51 78t84.5 110t55.5 48t44.5 -8.5t22.5 -21.5q0 -7 -3.5 -15t-47 -52t-93.5 -87.5t-70 -53.5t-31 -10q-13 0 -13 12zM855 990q0 13 84 107q81 91 94 113q18 30 86 30q22 0 22 -26q0 -35 -119 -134.5t-153 -99.5q-14 0 -14 10z" />
    <glyph glyph-name="UCogonek" unicode="&#xf110;" 
d="M108 -296q0 60 64 140.5t137 134t91 53.5q6 0 15.5 -7t9.5 -15q0 -10 -23 -22q-25 -14 -105.5 -108.5t-80.5 -149.5q0 -42 32 -42q58 0 78 40q10 23 38.5 45.5t53.5 22.5q16 0 28 -14t12 -34q0 -40 -84 -90t-142 -50q-49 0 -86.5 25.5t-37.5 70.5z" />
    <glyph glyph-name="UCcaron" unicode="&#xf111;" horiz-adv-x="1066" 
d="M1106 1239q0 -9 -17 -31q-145 -111 -186 -154q-28 -28 -58 -28t-44 38q-30 93 -76 142q-9 12 -9 20q0 10 19.5 25t35.5 15q27 0 48.5 -25t47.5 -77q7 -16 14 -16q4 0 12 8q139 119 183 119q30 0 30 -36z" />
    <glyph glyph-name="UCgrave" unicode="&#xf112;" horiz-adv-x="970" 
d="M656 1220q0 22 15 41t46 19q33 0 54 -36q33 -57 76 -114q51 -71 51 -84q0 -17 -21 -17q-22 0 -121.5 75t-99.5 116z" />
    <glyph glyph-name="frac1" horiz-adv-x="1440" 
d="M286 12q0 58 192 224q92 77 291 263t411 417q29 32 50 32q15 0 42.5 -16t27.5 -32q0 -23 -24 -42l-266 -251q-125 -118 -303 -275t-204.5 -191.5t-28.5 -54.5q-5 -49 -18 -63.5t-36 -14.5q-5 0 -58 -46q-7 -7 -17 -7q-16 0 -37.5 15.5t-21.5 41.5z" />
    <glyph glyph-name="frac2" horiz-adv-x="1440" 
d="M373 21q0 20 22 45l430 452l360 386q25 24 52 24q17 0 33.5 -24t16.5 -46q0 -25 -20 -32q-37 -16 -100 -77l-175 -173l-246 -249q-135 -135 -146 -152t-17 -47q-4 -20 -61.5 -94t-100.5 -74q-21 0 -34.5 23t-13.5 38z" />
    <glyph glyph-name="frac3" horiz-adv-x="1441" 
d="M392 -18q0 40 70 127t112.5 143.5t297.5 321t311.5 315.5t94.5 51q5 0 30.5 -29.5t25.5 -53.5t-17.5 -40.5t-35.5 -16.5q-6 0 -11 2q-7 3 -14 3q-24 0 -78 -46t-293.5 -292t-256.5 -269t-17 -43q0 -14 7 -21q8 -9 8 -20q0 -16 -16 -28q-46 -34 -94 -80q-65 -60 -100 -60
q-24 0 -24 36z" />
    </font>
</defs>
</svg>
